<?xml version="1.0" encoding="UTF-8"?>
<svg xmlns="http://www.w3.org/2000/svg" xmlns:xlink="http://www.w3.org/1999/xlink" width="700" height="550" viewBox="0 0 700 550">
<defs>
<g>
<g id="glyph-0-0-f1ebeeb4">
<path d="M 8.640625 -7.203125 C 8.640625 -5.515625 7.46875 -4.328125 5.78125 -4.328125 C 5.78125 -4.328125 2.578125 -4.328125 2.578125 -4.328125 C 2.578125 -4.328125 2.578125 0 2.578125 0 C 2.578125 0 1.28125 0 1.28125 0 C 1.28125 0 1.28125 -10.203125 1.28125 -10.203125 C 1.28125 -10.203125 5.484375 -10.203125 5.484375 -10.203125 C 7.5 -10.203125 8.640625 -9.125 8.640625 -7.203125 Z M 7.28125 -7.265625 C 7.28125 -8.390625 6.53125 -9.0625 5.296875 -9.0625 C 5.296875 -9.0625 2.578125 -9.0625 2.578125 -9.0625 C 2.578125 -9.0625 2.578125 -5.46875 2.578125 -5.46875 C 2.578125 -5.46875 5.296875 -5.46875 5.296875 -5.46875 C 6.53125 -5.46875 7.28125 -6.140625 7.28125 -7.265625 Z M 7.28125 -7.265625 "/>
</g>
<g id="glyph-1-0-f1ebeeb4">
<path d="M 7.140625 -3.609375 C 7.140625 -1.203125 5.875 0.203125 3.828125 0.203125 C 1.734375 0.203125 0.5 -1.203125 0.5 -3.671875 C 0.5 -6.125 1.75 -7.546875 3.8125 -7.546875 C 5.921875 -7.546875 7.140625 -6.140625 7.140625 -3.609375 Z M 5.921875 -3.625 C 5.921875 -5.453125 5.140625 -6.46875 3.828125 -6.46875 C 2.515625 -6.46875 1.71875 -5.4375 1.71875 -3.671875 C 1.71875 -1.890625 2.515625 -0.875 3.828125 -0.875 C 5.109375 -0.875 5.921875 -1.90625 5.921875 -3.625 Z M 5.921875 -3.625 "/>
</g>
<g id="glyph-1-1-f1ebeeb4">
<path d="M 6.421875 -2.0625 C 6.421875 -0.640625 5.25 0.203125 3.40625 0.203125 C 1.484375 0.203125 0.53125 -0.546875 0.46875 -2.234375 C 0.46875 -2.234375 1.703125 -2.234375 1.703125 -2.234375 C 1.859375 -1.125 2.453125 -0.875 3.5 -0.875 C 4.515625 -0.875 5.203125 -1.28125 5.203125 -1.953125 C 5.203125 -2.484375 4.890625 -2.734375 4.078125 -2.921875 C 4.078125 -2.921875 2.984375 -3.1875 2.984375 -3.1875 C 1.25 -3.609375 0.65625 -4.15625 0.65625 -5.3125 C 0.65625 -6.65625 1.765625 -7.546875 3.46875 -7.546875 C 5.171875 -7.546875 6.125 -6.734375 6.125 -5.296875 C 6.125 -5.296875 4.90625 -5.296875 4.90625 -5.296875 C 4.875 -6.0625 4.375 -6.46875 3.4375 -6.46875 C 2.484375 -6.46875 1.875 -6.03125 1.875 -5.359375 C 1.875 -4.84375 2.28125 -4.53125 3.234375 -4.3125 C 3.234375 -4.3125 4.359375 -4.046875 4.359375 -4.046875 C 5.8125 -3.703125 6.421875 -3.15625 6.421875 -2.0625 Z M 6.421875 -2.0625 "/>
</g>
<g id="glyph-1-2-f1ebeeb4">
<path d="M 2.140625 0 C 2.140625 0 0.984375 0 0.984375 0 C 0.984375 0 0.984375 -7.34375 0.984375 -7.34375 C 0.984375 -7.34375 2.140625 -7.34375 2.140625 -7.34375 C 2.140625 -7.34375 2.140625 0 2.140625 0 Z M 2.296875 -8.4375 C 2.296875 -8.4375 0.84375 -8.4375 0.84375 -8.4375 C 0.84375 -8.4375 0.84375 -9.890625 0.84375 -9.890625 C 0.84375 -9.890625 2.296875 -9.890625 2.296875 -9.890625 C 2.296875 -9.890625 2.296875 -8.4375 2.296875 -8.4375 Z M 2.296875 -8.4375 "/>
</g>
<g id="glyph-1-3-f1ebeeb4">
<path d="M 3.5625 0 C 3.15625 0.0625 2.890625 0.09375 2.609375 0.09375 C 1.6875 0.09375 1.1875 -0.328125 1.1875 -1.0625 C 1.1875 -1.0625 1.1875 -6.390625 1.1875 -6.390625 C 1.1875 -6.390625 0.203125 -6.390625 0.203125 -6.390625 C 0.203125 -6.390625 0.203125 -7.34375 0.203125 -7.34375 C 0.203125 -7.34375 1.1875 -7.34375 1.1875 -7.34375 C 1.1875 -7.34375 1.1875 -9.359375 1.1875 -9.359375 C 1.1875 -9.359375 2.359375 -9.359375 2.359375 -9.359375 C 2.359375 -9.359375 2.359375 -7.34375 2.359375 -7.34375 C 2.359375 -7.34375 3.5625 -7.34375 3.5625 -7.34375 C 3.5625 -7.34375 3.5625 -6.390625 3.5625 -6.390625 C 3.5625 -6.390625 2.359375 -6.390625 2.359375 -6.390625 C 2.359375 -6.390625 2.359375 -1.578125 2.359375 -1.578125 C 2.359375 -1.0625 2.484375 -0.921875 3 -0.921875 C 3.21875 -0.921875 3.40625 -0.9375 3.5625 -0.984375 C 3.5625 -0.984375 3.5625 0 3.5625 0 Z M 3.5625 0 "/>
</g>
<g id="glyph-1-4-f1ebeeb4">
<path d="M 4.078125 2.96875 C 4.078125 2.96875 3.296875 2.96875 3.296875 2.96875 C 1.90625 1.140625 1.015625 -1.40625 1.015625 -3.625 C 1.015625 -5.828125 1.90625 -8.375 3.296875 -10.203125 C 3.296875 -10.203125 4.078125 -10.203125 4.078125 -10.203125 C 2.84375 -8.21875 2.15625 -5.859375 2.15625 -3.625 C 2.15625 -1.390625 2.84375 0.96875 4.078125 2.96875 Z M 4.078125 2.96875 "/>
</g>
<g id="glyph-1-5-f1ebeeb4">
<path d="M 3.578125 -3.609375 C 3.578125 -1.40625 2.703125 1.140625 1.296875 2.96875 C 1.296875 2.96875 0.53125 2.96875 0.53125 2.96875 C 1.765625 0.984375 2.453125 -1.390625 2.453125 -3.609375 C 2.453125 -5.859375 1.765625 -8.203125 0.53125 -10.203125 C 0.53125 -10.203125 1.296875 -10.203125 1.296875 -10.203125 C 2.703125 -8.375 3.578125 -5.828125 3.578125 -3.609375 Z M 3.578125 -3.609375 "/>
</g>
<g id="glyph-2-0-f1ebeeb4">
<path d="M 6.8125 0 C 6.8125 0 5.65625 0 5.65625 0 C 5.65625 0 5.65625 -5.078125 5.65625 -5.078125 C 5.65625 -5.96875 5.0625 -6.53125 4.140625 -6.53125 C 2.953125 -6.53125 2.140625 -5.546875 2.140625 -4.046875 C 2.140625 -4.046875 2.140625 0 2.140625 0 C 2.140625 0 0.984375 0 0.984375 0 C 0.984375 0 0.984375 -7.34375 0.984375 -7.34375 C 0.984375 -7.34375 2.0625 -7.34375 2.0625 -7.34375 C 2.0625 -7.34375 2.0625 -6.109375 2.0625 -6.109375 C 2.703125 -7.125 3.40625 -7.546875 4.5 -7.546875 C 5.90625 -7.546875 6.8125 -6.765625 6.8125 -5.546875 C 6.8125 -5.546875 6.8125 0 6.8125 0 Z M 6.8125 0 "/>
</g>
<g id="glyph-2-1-f1ebeeb4">
</g>
<g id="glyph-2-2-f1ebeeb4">
<path d="M 6.625 0 C 6.625 0 5.265625 0 5.265625 0 C 5.265625 0 3.4375 -2.8125 3.4375 -2.8125 C 3.4375 -2.8125 1.5625 0 1.5625 0 C 1.5625 0 0.234375 0 0.234375 0 C 0.234375 0 2.828125 -3.734375 2.828125 -3.734375 C 2.828125 -3.734375 0.375 -7.34375 0.375 -7.34375 C 0.375 -7.34375 1.703125 -7.34375 1.703125 -7.34375 C 1.703125 -7.34375 3.46875 -4.671875 3.46875 -4.671875 C 3.46875 -4.671875 5.234375 -7.34375 5.234375 -7.34375 C 5.234375 -7.34375 6.546875 -7.34375 6.546875 -7.34375 C 6.546875 -7.34375 4.09375 -3.796875 4.09375 -3.796875 C 4.09375 -3.796875 6.625 0 6.625 0 Z M 6.625 0 "/>
</g>
<g id="glyph-3-0-f1ebeeb4">
<path d="M 6.078125 -4.09375 C 6.078125 -1.296875 5.09375 0.1875 3.296875 0.1875 C 1.46875 0.1875 0.515625 -1.296875 0.515625 -4.15625 C 0.515625 -7.015625 1.46875 -8.515625 3.296875 -8.515625 C 5.140625 -8.515625 6.078125 -7.046875 6.078125 -4.09375 Z M 5 -4.1875 C 5 -6.46875 4.4375 -7.578125 3.296875 -7.578125 C 2.15625 -7.578125 1.59375 -6.484375 1.59375 -4.15625 C 1.59375 -1.828125 2.15625 -0.703125 3.28125 -0.703125 C 4.453125 -0.703125 5 -1.78125 5 -4.1875 Z M 5 -4.1875 "/>
</g>
<g id="glyph-4-0-f1ebeeb4">
<path d="M 2.296875 0 C 2.296875 0 1.046875 0 1.046875 0 C 1.046875 0 1.046875 -1.25 1.046875 -1.25 C 1.046875 -1.25 2.296875 -1.25 2.296875 -1.25 C 2.296875 -1.25 2.296875 0 2.296875 0 Z M 2.296875 0 "/>
</g>
<g id="glyph-4-1-f1ebeeb4">
<path d="M 6.078125 -4.09375 C 6.078125 -1.296875 5.09375 0.1875 3.296875 0.1875 C 1.46875 0.1875 0.515625 -1.296875 0.515625 -4.15625 C 0.515625 -7.015625 1.46875 -8.515625 3.296875 -8.515625 C 5.140625 -8.515625 6.078125 -7.046875 6.078125 -4.09375 Z M 5 -4.1875 C 5 -6.46875 4.4375 -7.578125 3.296875 -7.578125 C 2.15625 -7.578125 1.59375 -6.484375 1.59375 -4.15625 C 1.59375 -1.828125 2.15625 -0.703125 3.28125 -0.703125 C 4.453125 -0.703125 5 -1.78125 5 -4.1875 Z M 5 -4.1875 "/>
</g>
<g id="glyph-4-2-f1ebeeb4">
<path d="M 6.234375 -2.046875 C 6.234375 -2.046875 4.984375 -2.046875 4.984375 -2.046875 C 4.984375 -2.046875 4.984375 0 4.984375 0 C 4.984375 0 3.921875 0 3.921875 0 C 3.921875 0 3.921875 -2.046875 3.921875 -2.046875 C 3.921875 -2.046875 0.34375 -2.046875 0.34375 -2.046875 C 0.34375 -2.046875 0.34375 -3.15625 0.34375 -3.15625 C 0.34375 -3.15625 4.203125 -8.515625 4.203125 -8.515625 C 4.203125 -8.515625 4.984375 -8.515625 4.984375 -8.515625 C 4.984375 -8.515625 4.984375 -2.984375 4.984375 -2.984375 C 4.984375 -2.984375 6.234375 -2.984375 6.234375 -2.984375 C 6.234375 -2.984375 6.234375 -2.046875 6.234375 -2.046875 Z M 3.921875 -2.984375 C 3.921875 -2.984375 3.921875 -6.703125 3.921875 -6.703125 C 3.921875 -6.703125 1.265625 -2.984375 1.265625 -2.984375 C 1.265625 -2.984375 3.921875 -2.984375 3.921875 -2.984375 Z M 3.921875 -2.984375 "/>
</g>
<g id="glyph-5-0-f1ebeeb4">
<path d="M 6.125 -6.015625 C 6.125 -4.96875 5.515625 -4.078125 4.328125 -3.4375 C 4.328125 -3.4375 3.125 -2.796875 3.125 -2.796875 C 2.09375 -2.1875 1.703125 -1.734375 1.59375 -1.046875 C 1.59375 -1.046875 6.078125 -1.046875 6.078125 -1.046875 C 6.078125 -1.046875 6.078125 0 6.078125 0 C 6.078125 0 0.40625 0 0.40625 0 C 0.5 -1.875 1.015625 -2.671875 2.796875 -3.6875 C 2.796875 -3.6875 3.90625 -4.3125 3.90625 -4.3125 C 4.65625 -4.734375 5.046875 -5.3125 5.046875 -5.984375 C 5.046875 -6.90625 4.328125 -7.578125 3.375 -7.578125 C 2.328125 -7.578125 1.734375 -6.984375 1.65625 -5.5625 C 1.65625 -5.5625 0.59375 -5.5625 0.59375 -5.5625 C 0.65625 -7.625 1.671875 -8.515625 3.40625 -8.515625 C 5.015625 -8.515625 6.125 -7.453125 6.125 -6.015625 Z M 6.125 -6.015625 "/>
</g>
<g id="glyph-6-0-f1ebeeb4">
<path d="M 6.078125 -4.09375 C 6.078125 -1.296875 5.09375 0.1875 3.296875 0.1875 C 1.46875 0.1875 0.515625 -1.296875 0.515625 -4.15625 C 0.515625 -7.015625 1.46875 -8.515625 3.296875 -8.515625 C 5.140625 -8.515625 6.078125 -7.046875 6.078125 -4.09375 Z M 5 -4.1875 C 5 -6.46875 4.4375 -7.578125 3.296875 -7.578125 C 2.15625 -7.578125 1.59375 -6.484375 1.59375 -4.15625 C 1.59375 -1.828125 2.15625 -0.703125 3.28125 -0.703125 C 4.453125 -0.703125 5 -1.78125 5 -4.1875 Z M 5 -4.1875 "/>
</g>
<g id="glyph-7-0-f1ebeeb4">
<path d="M 6.078125 -2.46875 C 6.078125 -0.859375 4.9375 0.1875 3.1875 0.1875 C 1.453125 0.1875 0.515625 -0.671875 0.390625 -2.5625 C 0.390625 -2.5625 1.4375 -2.5625 1.4375 -2.5625 C 1.515625 -1.328125 2.078125 -0.75 3.234375 -0.75 C 4.328125 -0.75 4.984375 -1.390625 4.984375 -2.453125 C 4.984375 -3.40625 4.390625 -3.953125 3.234375 -3.953125 C 3.234375 -3.953125 2.65625 -3.953125 2.65625 -3.953125 C 2.65625 -3.953125 2.65625 -4.84375 2.65625 -4.84375 C 4.34375 -4.84375 4.734375 -5.21875 4.734375 -6.125 C 4.734375 -7.03125 4.171875 -7.578125 3.234375 -7.578125 C 2.15625 -7.578125 1.640625 -7.015625 1.625 -5.765625 C 1.625 -5.765625 0.5625 -5.765625 0.5625 -5.765625 C 0.59375 -7.578125 1.515625 -8.515625 3.234375 -8.515625 C 4.84375 -8.515625 5.8125 -7.625 5.8125 -6.171875 C 5.8125 -5.3125 5.421875 -4.765625 4.625 -4.453125 C 5.65625 -4.109375 6.078125 -3.5 6.078125 -2.46875 Z M 6.078125 -2.46875 "/>
</g>
<g id="glyph-8-0-f1ebeeb4">
<path d="M -2.796875 -8.6875 C -0.984375 -8.6875 0.25 -7.296875 0.25 -4.703125 C 0.25 -2.296875 -0.90625 -0.671875 -3.3125 -0.671875 C -3.3125 -0.671875 -3.3125 -1.90625 -3.3125 -1.90625 C -1.859375 -1.90625 -0.890625 -2.859375 -0.890625 -4.78125 C -0.890625 -6.546875 -1.546875 -7.390625 -2.671875 -7.390625 C -3.46875 -7.390625 -3.984375 -6.796875 -4.328125 -5.515625 C -4.328125 -5.515625 -5 -2.984375 -5 -2.984375 C -5.34375 -1.640625 -6.125 -0.984375 -7.375 -0.984375 C -9.21875 -0.984375 -10.453125 -2.359375 -10.453125 -4.609375 C -10.453125 -6.953125 -9.296875 -8.34375 -7.296875 -8.34375 C -7.296875 -8.34375 -7.296875 -7.109375 -7.296875 -7.109375 C -8.625 -7.109375 -9.359375 -6.1875 -9.359375 -4.5625 C -9.359375 -3.1875 -8.59375 -2.28125 -7.5625 -2.28125 C -6.78125 -2.28125 -6.375 -2.734375 -6.046875 -3.96875 C -6.046875 -3.96875 -5.359375 -6.53125 -5.359375 -6.53125 C -4.984375 -7.90625 -4.0625 -8.6875 -2.796875 -8.6875 Z M -2.796875 -8.6875 "/>
</g>
<g id="glyph-9-0-f1ebeeb4">
<path d="M -3.609375 -7.140625 C -1.203125 -7.140625 0.203125 -5.875 0.203125 -3.828125 C 0.203125 -1.734375 -1.203125 -0.5 -3.671875 -0.5 C -6.125 -0.5 -7.546875 -1.75 -7.546875 -3.8125 C -7.546875 -5.921875 -6.140625 -7.140625 -3.609375 -7.140625 Z M -3.625 -5.921875 C -5.453125 -5.921875 -6.46875 -5.140625 -6.46875 -3.828125 C -6.46875 -2.515625 -5.4375 -1.71875 -3.671875 -1.71875 C -1.890625 -1.71875 -0.875 -2.515625 -0.875 -3.828125 C -0.875 -5.109375 -1.90625 -5.921875 -3.625 -5.921875 Z M -3.625 -5.921875 "/>
</g>
<g id="glyph-10-0-f1ebeeb4">
<path d="M 0 -2.109375 C 0 -2.109375 0 -0.953125 0 -0.953125 C 0 -0.953125 -10.203125 -0.953125 -10.203125 -0.953125 C -10.203125 -0.953125 -10.203125 -2.109375 -10.203125 -2.109375 C -10.203125 -2.109375 0 -2.109375 0 -2.109375 Z M 0 -2.109375 "/>
</g>
<g id="glyph-11-0-f1ebeeb4">
<path d="M 0 -6.75 C 0 -6.75 0 -5.703125 0 -5.703125 C 0 -5.703125 -1.140625 -5.703125 -1.140625 -5.703125 C -0.171875 -5.015625 0.203125 -4.328125 0.203125 -3.25 C 0.203125 -1.8125 -0.578125 -0.90625 -1.796875 -0.90625 C -1.796875 -0.90625 -7.34375 -0.90625 -7.34375 -0.90625 C -7.34375 -0.90625 -7.34375 -2.078125 -7.34375 -2.078125 C -7.34375 -2.078125 -2.25 -2.078125 -2.25 -2.078125 C -1.375 -2.078125 -0.8125 -2.65625 -0.8125 -3.578125 C -0.8125 -4.796875 -1.796875 -5.59375 -3.296875 -5.59375 C -3.296875 -5.59375 -7.34375 -5.59375 -7.34375 -5.59375 C -7.34375 -5.59375 -7.34375 -6.75 -7.34375 -6.75 C -7.34375 -6.75 0 -6.75 0 -6.75 Z M 0 -6.75 "/>
</g>
<g id="glyph-12-0-f1ebeeb4">
<path d="M 0 -3.5625 C 0.0625 -3.15625 0.09375 -2.890625 0.09375 -2.609375 C 0.09375 -1.6875 -0.328125 -1.1875 -1.0625 -1.1875 C -1.0625 -1.1875 -6.390625 -1.1875 -6.390625 -1.1875 C -6.390625 -1.1875 -6.390625 -0.203125 -6.390625 -0.203125 C -6.390625 -0.203125 -7.34375 -0.203125 -7.34375 -0.203125 C -7.34375 -0.203125 -7.34375 -1.1875 -7.34375 -1.1875 C -7.34375 -1.1875 -9.359375 -1.1875 -9.359375 -1.1875 C -9.359375 -1.1875 -9.359375 -2.359375 -9.359375 -2.359375 C -9.359375 -2.359375 -7.34375 -2.359375 -7.34375 -2.359375 C -7.34375 -2.359375 -7.34375 -3.5625 -7.34375 -3.5625 C -7.34375 -3.5625 -6.390625 -3.5625 -6.390625 -3.5625 C -6.390625 -3.5625 -6.390625 -2.359375 -6.390625 -2.359375 C -6.390625 -2.359375 -1.578125 -2.359375 -1.578125 -2.359375 C -1.0625 -2.359375 -0.921875 -2.484375 -0.921875 -3 C -0.921875 -3.21875 -0.9375 -3.40625 -0.984375 -3.5625 C -0.984375 -3.5625 0 -3.5625 0 -3.5625 Z M 0 -3.5625 "/>
</g>
<g id="glyph-13-0-f1ebeeb4">
<path d="M 0 -2.140625 C 0 -2.140625 0 -0.984375 0 -0.984375 C 0 -0.984375 -7.34375 -0.984375 -7.34375 -0.984375 C -7.34375 -0.984375 -7.34375 -2.140625 -7.34375 -2.140625 C -7.34375 -2.140625 0 -2.140625 0 -2.140625 Z M -8.4375 -2.296875 C -8.4375 -2.296875 -8.4375 -0.84375 -8.4375 -0.84375 C -8.4375 -0.84375 -9.890625 -0.84375 -9.890625 -0.84375 C -9.890625 -0.84375 -9.890625 -2.296875 -9.890625 -2.296875 C -9.890625 -2.296875 -8.4375 -2.296875 -8.4375 -2.296875 Z M -8.4375 -2.296875 "/>
</g>
<g id="glyph-14-0-f1ebeeb4">
<path d="M -3.609375 -7.140625 C -1.203125 -7.140625 0.203125 -5.875 0.203125 -3.828125 C 0.203125 -1.734375 -1.203125 -0.5 -3.671875 -0.5 C -6.125 -0.5 -7.546875 -1.75 -7.546875 -3.8125 C -7.546875 -5.921875 -6.140625 -7.140625 -3.609375 -7.140625 Z M -3.625 -5.921875 C -5.453125 -5.921875 -6.46875 -5.140625 -6.46875 -3.828125 C -6.46875 -2.515625 -5.4375 -1.71875 -3.671875 -1.71875 C -1.890625 -1.71875 -0.875 -2.515625 -0.875 -3.828125 C -0.875 -5.109375 -1.90625 -5.921875 -3.625 -5.921875 Z M -3.625 -5.921875 "/>
</g>
<g id="glyph-15-0-f1ebeeb4">
<path d="M 0 -6.8125 C 0 -6.8125 0 -5.65625 0 -5.65625 C 0 -5.65625 -5.078125 -5.65625 -5.078125 -5.65625 C -5.96875 -5.65625 -6.53125 -5.0625 -6.53125 -4.140625 C -6.53125 -2.953125 -5.546875 -2.140625 -4.046875 -2.140625 C -4.046875 -2.140625 0 -2.140625 0 -2.140625 C 0 -2.140625 0 -0.984375 0 -0.984375 C 0 -0.984375 -7.34375 -0.984375 -7.34375 -0.984375 C -7.34375 -0.984375 -7.34375 -2.0625 -7.34375 -2.0625 C -7.34375 -2.0625 -6.109375 -2.0625 -6.109375 -2.0625 C -7.125 -2.703125 -7.546875 -3.40625 -7.546875 -4.5 C -7.546875 -5.90625 -6.765625 -6.8125 -5.546875 -6.8125 C -5.546875 -6.8125 0 -6.8125 0 -6.8125 Z M 0 -6.8125 "/>
</g>
<g id="glyph-15-1-f1ebeeb4">
</g>
<g id="glyph-16-0-f1ebeeb4">
<path d="M 2.96875 -4.078125 C 2.96875 -4.078125 2.96875 -3.296875 2.96875 -3.296875 C 1.140625 -1.90625 -1.40625 -1.015625 -3.625 -1.015625 C -5.828125 -1.015625 -8.375 -1.90625 -10.203125 -3.296875 C -10.203125 -3.296875 -10.203125 -4.078125 -10.203125 -4.078125 C -8.21875 -2.84375 -5.859375 -2.15625 -3.625 -2.15625 C -1.390625 -2.15625 0.96875 -2.84375 2.96875 -4.078125 Z M 2.96875 -4.078125 "/>
</g>
<g id="glyph-17-0-f1ebeeb4">
<path d="M 0 -6.75 C 0 -6.75 0 -5.703125 0 -5.703125 C 0 -5.703125 -1.140625 -5.703125 -1.140625 -5.703125 C -0.171875 -5.015625 0.203125 -4.328125 0.203125 -3.25 C 0.203125 -1.8125 -0.578125 -0.90625 -1.796875 -0.90625 C -1.796875 -0.90625 -7.34375 -0.90625 -7.34375 -0.90625 C -7.34375 -0.90625 -7.34375 -2.078125 -7.34375 -2.078125 C -7.34375 -2.078125 -2.25 -2.078125 -2.25 -2.078125 C -1.375 -2.078125 -0.8125 -2.65625 -0.8125 -3.578125 C -0.8125 -4.796875 -1.796875 -5.59375 -3.296875 -5.59375 C -3.296875 -5.59375 -7.34375 -5.59375 -7.34375 -5.59375 C -7.34375 -5.59375 -7.34375 -6.75 -7.34375 -6.75 C -7.34375 -6.75 0 -6.75 0 -6.75 Z M 0 -6.75 "/>
</g>
<g id="glyph-18-0-f1ebeeb4">
<path d="M -3.609375 -3.578125 C -1.40625 -3.578125 1.140625 -2.703125 2.96875 -1.296875 C 2.96875 -1.296875 2.96875 -0.53125 2.96875 -0.53125 C 0.984375 -1.765625 -1.390625 -2.453125 -3.609375 -2.453125 C -5.859375 -2.453125 -8.203125 -1.765625 -10.203125 -0.53125 C -10.203125 -0.53125 -10.203125 -1.296875 -10.203125 -1.296875 C -8.375 -2.703125 -5.828125 -3.578125 -3.609375 -3.578125 Z M -3.609375 -3.578125 "/>
</g>
<g id="glyph-19-0-f1ebeeb4">
<path d="M 6.078125 -4.09375 C 6.078125 -1.296875 5.09375 0.1875 3.296875 0.1875 C 1.46875 0.1875 0.515625 -1.296875 0.515625 -4.15625 C 0.515625 -7.015625 1.46875 -8.515625 3.296875 -8.515625 C 5.140625 -8.515625 6.078125 -7.046875 6.078125 -4.09375 Z M 5 -4.1875 C 5 -6.46875 4.4375 -7.578125 3.296875 -7.578125 C 2.15625 -7.578125 1.59375 -6.484375 1.59375 -4.15625 C 1.59375 -1.828125 2.15625 -0.703125 3.28125 -0.703125 C 4.453125 -0.703125 5 -1.78125 5 -4.1875 Z M 5 -4.1875 "/>
</g>
<g id="glyph-19-1-f1ebeeb4">
<path d="M 2.296875 0 C 2.296875 0 1.046875 0 1.046875 0 C 1.046875 0 1.046875 -1.25 1.046875 -1.25 C 1.046875 -1.25 2.296875 -1.25 2.296875 -1.25 C 2.296875 -1.25 2.296875 0 2.296875 0 Z M 2.296875 0 "/>
</g>
<g id="glyph-20-0-f1ebeeb4">
<path d="M 4.15625 0 C 4.15625 0 3.109375 0 3.109375 0 C 3.109375 0 3.109375 -6.0625 3.109375 -6.0625 C 3.109375 -6.0625 1.21875 -6.0625 1.21875 -6.0625 C 1.21875 -6.0625 1.21875 -6.8125 1.21875 -6.8125 C 2.859375 -7.015625 3.09375 -7.203125 3.46875 -8.515625 C 3.46875 -8.515625 4.15625 -8.515625 4.15625 -8.515625 C 4.15625 -8.515625 4.15625 0 4.15625 0 Z M 4.15625 0 "/>
</g>
<g id="glyph-21-0-f1ebeeb4">
<path d="M 6.078125 -4.09375 C 6.078125 -1.296875 5.09375 0.1875 3.296875 0.1875 C 1.46875 0.1875 0.515625 -1.296875 0.515625 -4.15625 C 0.515625 -7.015625 1.46875 -8.515625 3.296875 -8.515625 C 5.140625 -8.515625 6.078125 -7.046875 6.078125 -4.09375 Z M 5 -4.1875 C 5 -6.46875 4.4375 -7.578125 3.296875 -7.578125 C 2.15625 -7.578125 1.59375 -6.484375 1.59375 -4.15625 C 1.59375 -1.828125 2.15625 -0.703125 3.28125 -0.703125 C 4.453125 -0.703125 5 -1.78125 5 -4.1875 Z M 5 -4.1875 "/>
</g>
<g id="glyph-21-1-f1ebeeb4">
<path d="M 2.296875 0 C 2.296875 0 1.046875 0 1.046875 0 C 1.046875 0 1.046875 -1.25 1.046875 -1.25 C 1.046875 -1.25 2.296875 -1.25 2.296875 -1.25 C 2.296875 -1.25 2.296875 0 2.296875 0 Z M 2.296875 0 "/>
</g>
<g id="glyph-22-0-f1ebeeb4">
<path d="M 6.125 -6.015625 C 6.125 -4.96875 5.515625 -4.078125 4.328125 -3.4375 C 4.328125 -3.4375 3.125 -2.796875 3.125 -2.796875 C 2.09375 -2.1875 1.703125 -1.734375 1.59375 -1.046875 C 1.59375 -1.046875 6.078125 -1.046875 6.078125 -1.046875 C 6.078125 -1.046875 6.078125 0 6.078125 0 C 6.078125 0 0.40625 0 0.40625 0 C 0.5 -1.875 1.015625 -2.671875 2.796875 -3.6875 C 2.796875 -3.6875 3.90625 -4.3125 3.90625 -4.3125 C 4.65625 -4.734375 5.046875 -5.3125 5.046875 -5.984375 C 5.046875 -6.90625 4.328125 -7.578125 3.375 -7.578125 C 2.328125 -7.578125 1.734375 -6.984375 1.65625 -5.5625 C 1.65625 -5.5625 0.59375 -5.5625 0.59375 -5.5625 C 0.65625 -7.625 1.671875 -8.515625 3.40625 -8.515625 C 5.015625 -8.515625 6.125 -7.453125 6.125 -6.015625 Z M 6.125 -6.015625 "/>
</g>
<g id="glyph-23-0-f1ebeeb4">
<path d="M 6.078125 -4.09375 C 6.078125 -1.296875 5.09375 0.1875 3.296875 0.1875 C 1.46875 0.1875 0.515625 -1.296875 0.515625 -4.15625 C 0.515625 -7.015625 1.46875 -8.515625 3.296875 -8.515625 C 5.140625 -8.515625 6.078125 -7.046875 6.078125 -4.09375 Z M 5 -4.1875 C 5 -6.46875 4.4375 -7.578125 3.296875 -7.578125 C 2.15625 -7.578125 1.59375 -6.484375 1.59375 -4.15625 C 1.59375 -1.828125 2.15625 -0.703125 3.28125 -0.703125 C 4.453125 -0.703125 5 -1.78125 5 -4.1875 Z M 5 -4.1875 "/>
</g>
<g id="glyph-23-1-f1ebeeb4">
<path d="M 2.296875 0 C 2.296875 0 1.046875 0 1.046875 0 C 1.046875 0 1.046875 -1.25 1.046875 -1.25 C 1.046875 -1.25 2.296875 -1.25 2.296875 -1.25 C 2.296875 -1.25 2.296875 0 2.296875 0 Z M 2.296875 0 "/>
</g>
<g id="glyph-24-0-f1ebeeb4">
<path d="M 6.078125 -2.46875 C 6.078125 -0.859375 4.9375 0.1875 3.1875 0.1875 C 1.453125 0.1875 0.515625 -0.671875 0.390625 -2.5625 C 0.390625 -2.5625 1.4375 -2.5625 1.4375 -2.5625 C 1.515625 -1.328125 2.078125 -0.75 3.234375 -0.75 C 4.328125 -0.75 4.984375 -1.390625 4.984375 -2.453125 C 4.984375 -3.40625 4.390625 -3.953125 3.234375 -3.953125 C 3.234375 -3.953125 2.65625 -3.953125 2.65625 -3.953125 C 2.65625 -3.953125 2.65625 -4.84375 2.65625 -4.84375 C 4.34375 -4.84375 4.734375 -5.21875 4.734375 -6.125 C 4.734375 -7.03125 4.171875 -7.578125 3.234375 -7.578125 C 2.15625 -7.578125 1.640625 -7.015625 1.625 -5.765625 C 1.625 -5.765625 0.5625 -5.765625 0.5625 -5.765625 C 0.59375 -7.578125 1.515625 -8.515625 3.234375 -8.515625 C 4.84375 -8.515625 5.8125 -7.625 5.8125 -6.171875 C 5.8125 -5.3125 5.421875 -4.765625 4.625 -4.453125 C 5.65625 -4.109375 6.078125 -3.5 6.078125 -2.46875 Z M 6.078125 -2.46875 "/>
</g>
<g id="glyph-25-0-f1ebeeb4">
<path d="M 6.078125 -4.09375 C 6.078125 -1.296875 5.09375 0.1875 3.296875 0.1875 C 1.46875 0.1875 0.515625 -1.296875 0.515625 -4.15625 C 0.515625 -7.015625 1.46875 -8.515625 3.296875 -8.515625 C 5.140625 -8.515625 6.078125 -7.046875 6.078125 -4.09375 Z M 5 -4.1875 C 5 -6.46875 4.4375 -7.578125 3.296875 -7.578125 C 2.15625 -7.578125 1.59375 -6.484375 1.59375 -4.15625 C 1.59375 -1.828125 2.15625 -0.703125 3.28125 -0.703125 C 4.453125 -0.703125 5 -1.78125 5 -4.1875 Z M 5 -4.1875 "/>
</g>
<g id="glyph-25-1-f1ebeeb4">
<path d="M 2.296875 0 C 2.296875 0 1.046875 0 1.046875 0 C 1.046875 0 1.046875 -1.25 1.046875 -1.25 C 1.046875 -1.25 2.296875 -1.25 2.296875 -1.25 C 2.296875 -1.25 2.296875 0 2.296875 0 Z M 2.296875 0 "/>
</g>
<g id="glyph-26-0-f1ebeeb4">
<path d="M 6.234375 -2.046875 C 6.234375 -2.046875 4.984375 -2.046875 4.984375 -2.046875 C 4.984375 -2.046875 4.984375 0 4.984375 0 C 4.984375 0 3.921875 0 3.921875 0 C 3.921875 0 3.921875 -2.046875 3.921875 -2.046875 C 3.921875 -2.046875 0.34375 -2.046875 0.34375 -2.046875 C 0.34375 -2.046875 0.34375 -3.15625 0.34375 -3.15625 C 0.34375 -3.15625 4.203125 -8.515625 4.203125 -8.515625 C 4.203125 -8.515625 4.984375 -8.515625 4.984375 -8.515625 C 4.984375 -8.515625 4.984375 -2.984375 4.984375 -2.984375 C 4.984375 -2.984375 6.234375 -2.984375 6.234375 -2.984375 C 6.234375 -2.984375 6.234375 -2.046875 6.234375 -2.046875 Z M 3.921875 -2.984375 C 3.921875 -2.984375 3.921875 -6.703125 3.921875 -6.703125 C 3.921875 -6.703125 1.265625 -2.984375 1.265625 -2.984375 C 1.265625 -2.984375 3.921875 -2.984375 3.921875 -2.984375 Z M 3.921875 -2.984375 "/>
</g>
<g id="glyph-27-0-f1ebeeb4">
<path d="M 9.140625 0 C 9.140625 0 7.6875 0 7.6875 0 C 7.6875 0 6.640625 -3.0625 6.640625 -3.0625 C 6.640625 -3.0625 2.703125 -3.0625 2.703125 -3.0625 C 2.703125 -3.0625 1.625 0 1.625 0 C 1.625 0 0.234375 0 0.234375 0 C 0.234375 0 3.875 -10.203125 3.875 -10.203125 C 3.875 -10.203125 5.5625 -10.203125 5.5625 -10.203125 C 5.5625 -10.203125 9.140625 0 9.140625 0 Z M 6.265625 -4.15625 C 6.265625 -4.15625 4.703125 -8.8125 4.703125 -8.8125 C 4.703125 -8.8125 3.03125 -4.15625 3.03125 -4.15625 C 3.03125 -4.15625 6.265625 -4.15625 6.265625 -4.15625 Z M 6.265625 -4.15625 "/>
</g>
<g id="glyph-27-1-f1ebeeb4">
<path d="M 6.8125 0 C 6.8125 0 5.65625 0 5.65625 0 C 5.65625 0 5.65625 -5.078125 5.65625 -5.078125 C 5.65625 -5.96875 5.0625 -6.53125 4.140625 -6.53125 C 2.953125 -6.53125 2.140625 -5.546875 2.140625 -4.046875 C 2.140625 -4.046875 2.140625 0 2.140625 0 C 2.140625 0 0.984375 0 0.984375 0 C 0.984375 0 0.984375 -7.34375 0.984375 -7.34375 C 0.984375 -7.34375 2.0625 -7.34375 2.0625 -7.34375 C 2.0625 -7.34375 2.0625 -6.109375 2.0625 -6.109375 C 2.703125 -7.125 3.40625 -7.546875 4.5 -7.546875 C 5.90625 -7.546875 6.8125 -6.765625 6.8125 -5.546875 C 6.8125 -5.546875 6.8125 0 6.8125 0 Z M 6.8125 0 "/>
</g>
<g id="glyph-27-2-f1ebeeb4">
<path d="M 7.484375 -0.03125 C 7.109375 0.0625 6.9375 0.09375 6.6875 0.09375 C 6.125 0.09375 5.609375 -0.3125 5.484375 -0.875 C 4.84375 -0.1875 3.9375 0.203125 3 0.203125 C 1.515625 0.203125 0.59375 -0.578125 0.59375 -1.90625 C 0.59375 -2.796875 1.015625 -3.453125 1.875 -3.8125 C 2.328125 -3.984375 2.578125 -4.046875 4.234375 -4.25 C 5.15625 -4.375 5.453125 -4.578125 5.453125 -5.0625 C 5.453125 -5.0625 5.453125 -5.375 5.453125 -5.375 C 5.453125 -6.078125 4.859375 -6.46875 3.8125 -6.46875 C 2.71875 -6.46875 2.1875 -6.0625 2.09375 -5.171875 C 2.09375 -5.171875 0.90625 -5.171875 0.90625 -5.171875 C 0.984375 -6.859375 2.078125 -7.546875 3.84375 -7.546875 C 5.65625 -7.546875 6.609375 -6.84375 6.609375 -5.546875 C 6.609375 -5.546875 6.609375 -1.453125 6.609375 -1.453125 C 6.609375 -1.09375 6.828125 -0.875 7.234375 -0.875 C 7.3125 -0.875 7.359375 -0.875 7.484375 -0.90625 C 7.484375 -0.90625 7.484375 -0.03125 7.484375 -0.03125 Z M 5.453125 -2.53125 C 5.453125 -2.53125 5.453125 -3.625 5.453125 -3.625 C 5.046875 -3.4375 4.796875 -3.390625 3.5625 -3.21875 C 2.328125 -3.03125 1.8125 -2.703125 1.8125 -1.9375 C 1.8125 -1.140625 2.34375 -0.8125 3.25 -0.8125 C 4.375 -0.8125 5.453125 -1.484375 5.453125 -2.53125 Z M 5.453125 -2.53125 "/>
</g>
<g id="glyph-27-3-f1ebeeb4">
<path d="M 2.109375 0 C 2.109375 0 0.953125 0 0.953125 0 C 0.953125 0 0.953125 -10.203125 0.953125 -10.203125 C 0.953125 -10.203125 2.109375 -10.203125 2.109375 -10.203125 C 2.109375 -10.203125 2.109375 0 2.109375 0 Z M 2.109375 0 "/>
</g>
<g id="glyph-27-4-f1ebeeb4">
<path d="M 6.6875 -7.34375 C 6.6875 -7.34375 3.4375 1.546875 3.4375 1.546875 C 3.03125 2.59375 2.359375 3.046875 1.546875 3.046875 C 1.234375 3.046875 1 3 0.75 2.875 C 0.75 2.875 0.75 1.8125 0.75 1.8125 C 1.015625 1.875 1.203125 1.90625 1.375 1.90625 C 1.875 1.90625 2.109375 1.703125 2.3125 1.1875 C 2.3125 1.1875 2.765625 0.03125 2.765625 0.03125 C 2.765625 0.03125 0.28125 -7.34375 0.28125 -7.34375 C 0.28125 -7.34375 1.53125 -7.34375 1.53125 -7.34375 C 1.53125 -7.34375 3.40625 -1.625 3.40625 -1.625 C 3.40625 -1.625 5.4375 -7.34375 5.4375 -7.34375 C 5.4375 -7.34375 6.6875 -7.34375 6.6875 -7.34375 Z M 6.6875 -7.34375 "/>
</g>
<g id="glyph-27-5-f1ebeeb4">
<path d="M 3.5625 0 C 3.15625 0.0625 2.890625 0.09375 2.609375 0.09375 C 1.6875 0.09375 1.1875 -0.328125 1.1875 -1.0625 C 1.1875 -1.0625 1.1875 -6.390625 1.1875 -6.390625 C 1.1875 -6.390625 0.203125 -6.390625 0.203125 -6.390625 C 0.203125 -6.390625 0.203125 -7.34375 0.203125 -7.34375 C 0.203125 -7.34375 1.1875 -7.34375 1.1875 -7.34375 C 1.1875 -7.34375 1.1875 -9.359375 1.1875 -9.359375 C 1.1875 -9.359375 2.359375 -9.359375 2.359375 -9.359375 C 2.359375 -9.359375 2.359375 -7.34375 2.359375 -7.34375 C 2.359375 -7.34375 3.5625 -7.34375 3.5625 -7.34375 C 3.5625 -7.34375 3.5625 -6.390625 3.5625 -6.390625 C 3.5625 -6.390625 2.359375 -6.390625 2.359375 -6.390625 C 2.359375 -6.390625 2.359375 -1.578125 2.359375 -1.578125 C 2.359375 -1.0625 2.484375 -0.921875 3 -0.921875 C 3.21875 -0.921875 3.40625 -0.9375 3.5625 -0.984375 C 3.5625 -0.984375 3.5625 0 3.5625 0 Z M 3.5625 0 "/>
</g>
<g id="glyph-27-6-f1ebeeb4">
<path d="M 2.140625 0 C 2.140625 0 0.984375 0 0.984375 0 C 0.984375 0 0.984375 -7.34375 0.984375 -7.34375 C 0.984375 -7.34375 2.140625 -7.34375 2.140625 -7.34375 C 2.140625 -7.34375 2.140625 0 2.140625 0 Z M 2.296875 -8.4375 C 2.296875 -8.4375 0.84375 -8.4375 0.84375 -8.4375 C 0.84375 -8.4375 0.84375 -9.890625 0.84375 -9.890625 C 0.84375 -9.890625 2.296875 -9.890625 2.296875 -9.890625 C 2.296875 -9.890625 2.296875 -8.4375 2.296875 -8.4375 Z M 2.296875 -8.4375 "/>
</g>
<g id="glyph-27-7-f1ebeeb4">
<path d="M 6.671875 -2.515625 C 6.53125 -0.84375 5.4375 0.203125 3.6875 0.203125 C 1.6875 0.203125 0.4375 -1.234375 0.4375 -3.59375 C 0.4375 -6.03125 1.71875 -7.546875 3.703125 -7.546875 C 5.328125 -7.546875 6.453125 -6.65625 6.59375 -4.875 C 6.59375 -4.875 5.421875 -4.875 5.421875 -4.875 C 5.28125 -5.890625 4.65625 -6.46875 3.6875 -6.46875 C 2.40625 -6.46875 1.65625 -5.4375 1.65625 -3.59375 C 1.65625 -1.859375 2.421875 -0.875 3.703125 -0.875 C 4.703125 -0.875 5.3125 -1.34375 5.5 -2.515625 C 5.5 -2.515625 6.671875 -2.515625 6.671875 -2.515625 Z M 6.671875 -2.515625 "/>
</g>
<g id="glyph-27-8-f1ebeeb4">
</g>
<g id="glyph-27-9-f1ebeeb4">
<path d="M 8.6875 -2.796875 C 8.6875 -0.984375 7.296875 0.25 4.703125 0.25 C 2.296875 0.25 0.671875 -0.90625 0.671875 -3.3125 C 0.671875 -3.3125 1.90625 -3.3125 1.90625 -3.3125 C 1.90625 -1.859375 2.859375 -0.890625 4.78125 -0.890625 C 6.546875 -0.890625 7.390625 -1.546875 7.390625 -2.671875 C 7.390625 -3.46875 6.796875 -3.984375 5.515625 -4.328125 C 5.515625 -4.328125 2.984375 -5 2.984375 -5 C 1.640625 -5.34375 0.984375 -6.125 0.984375 -7.375 C 0.984375 -9.21875 2.359375 -10.453125 4.609375 -10.453125 C 6.953125 -10.453125 8.34375 -9.296875 8.34375 -7.296875 C 8.34375 -7.296875 7.109375 -7.296875 7.109375 -7.296875 C 7.109375 -8.625 6.1875 -9.359375 4.5625 -9.359375 C 3.1875 -9.359375 2.28125 -8.59375 2.28125 -7.5625 C 2.28125 -6.78125 2.734375 -6.375 3.96875 -6.046875 C 3.96875 -6.046875 6.53125 -5.359375 6.53125 -5.359375 C 7.90625 -4.984375 8.6875 -4.0625 8.6875 -2.796875 Z M 8.6875 -2.796875 "/>
</g>
<g id="glyph-27-10-f1ebeeb4">
<path d="M 7.140625 -3.609375 C 7.140625 -1.203125 5.875 0.203125 3.828125 0.203125 C 1.734375 0.203125 0.5 -1.203125 0.5 -3.671875 C 0.5 -6.125 1.75 -7.546875 3.8125 -7.546875 C 5.921875 -7.546875 7.140625 -6.140625 7.140625 -3.609375 Z M 5.921875 -3.625 C 5.921875 -5.453125 5.140625 -6.46875 3.828125 -6.46875 C 2.515625 -6.46875 1.71875 -5.4375 1.71875 -3.671875 C 1.71875 -1.890625 2.515625 -0.875 3.828125 -0.875 C 5.109375 -0.875 5.921875 -1.90625 5.921875 -3.625 Z M 5.921875 -3.625 "/>
</g>
<g id="glyph-27-11-f1ebeeb4">
<path d="M 6.75 0 C 6.75 0 5.703125 0 5.703125 0 C 5.703125 0 5.703125 -1.140625 5.703125 -1.140625 C 5.015625 -0.171875 4.328125 0.203125 3.25 0.203125 C 1.8125 0.203125 0.90625 -0.578125 0.90625 -1.796875 C 0.90625 -1.796875 0.90625 -7.34375 0.90625 -7.34375 C 0.90625 -7.34375 2.078125 -7.34375 2.078125 -7.34375 C 2.078125 -7.34375 2.078125 -2.25 2.078125 -2.25 C 2.078125 -1.375 2.65625 -0.8125 3.578125 -0.8125 C 4.796875 -0.8125 5.59375 -1.796875 5.59375 -3.296875 C 5.59375 -3.296875 5.59375 -7.34375 5.59375 -7.34375 C 5.59375 -7.34375 6.75 -7.34375 6.75 -7.34375 C 6.75 -7.34375 6.75 0 6.75 0 Z M 6.75 0 "/>
</g>
<g id="glyph-27-12-f1ebeeb4">
<path d="M 7.15625 -7.015625 C 7.15625 -5.796875 6.4375 -4.765625 5.046875 -4.015625 C 5.046875 -4.015625 3.65625 -3.265625 3.65625 -3.265625 C 2.4375 -2.546875 1.984375 -2.03125 1.859375 -1.21875 C 1.859375 -1.21875 7.078125 -1.21875 7.078125 -1.21875 C 7.078125 -1.21875 7.078125 0 7.078125 0 C 7.078125 0 0.46875 0 0.46875 0 C 0.59375 -2.1875 1.1875 -3.125 3.265625 -4.296875 C 3.265625 -4.296875 4.546875 -5.03125 4.546875 -5.03125 C 5.4375 -5.53125 5.890625 -6.203125 5.890625 -6.984375 C 5.890625 -8.046875 5.046875 -8.84375 3.9375 -8.84375 C 2.71875 -8.84375 2.03125 -8.140625 1.9375 -6.484375 C 1.9375 -6.484375 0.703125 -6.484375 0.703125 -6.484375 C 0.765625 -8.890625 1.953125 -9.921875 3.96875 -9.921875 C 5.859375 -9.921875 7.15625 -8.6875 7.15625 -7.015625 Z M 7.15625 -7.015625 "/>
</g>
<g id="glyph-27-13-f1ebeeb4">
<path d="M 10.65625 0 C 10.65625 0 9.421875 0 9.421875 0 C 9.421875 0 9.421875 -8.546875 9.421875 -8.546875 C 9.421875 -8.546875 6.546875 0 6.546875 0 C 6.546875 0 5.1875 0 5.1875 0 C 5.1875 0 2.28125 -8.546875 2.28125 -8.546875 C 2.28125 -8.546875 2.28125 0 2.28125 0 C 2.28125 0 1.046875 0 1.046875 0 C 1.046875 0 1.046875 -10.203125 1.046875 -10.203125 C 1.046875 -10.203125 2.859375 -10.203125 2.859375 -10.203125 C 2.859375 -10.203125 5.875 -1.3125 5.875 -1.3125 C 5.875 -1.3125 8.84375 -10.203125 8.84375 -10.203125 C 8.84375 -10.203125 10.65625 -10.203125 10.65625 -10.203125 C 10.65625 -10.203125 10.65625 0 10.65625 0 Z M 10.65625 0 "/>
</g>
<g id="glyph-27-14-f1ebeeb4">
<path d="M 9.03125 -3.109375 C 9.03125 -1.0625 7.484375 0.25 5.09375 0.25 C 2.671875 0.25 1.1875 -1.03125 1.1875 -3.109375 C 1.1875 -3.109375 1.1875 -10.203125 1.1875 -10.203125 C 1.1875 -10.203125 2.484375 -10.203125 2.484375 -10.203125 C 2.484375 -10.203125 2.484375 -3.109375 2.484375 -3.109375 C 2.484375 -1.625 3.5625 -0.890625 5.09375 -0.890625 C 6.734375 -0.890625 7.734375 -1.734375 7.734375 -3.109375 C 7.734375 -3.109375 7.734375 -10.203125 7.734375 -10.203125 C 7.734375 -10.203125 9.03125 -10.203125 9.03125 -10.203125 C 9.03125 -10.203125 9.03125 -3.109375 9.03125 -3.109375 Z M 9.03125 -3.109375 "/>
</g>
<g id="glyph-27-15-f1ebeeb4">
<path d="M 9.484375 -3.71875 C 9.171875 -1.0625 7.765625 0.25 5.28125 0.25 C 2.28125 0.25 0.671875 -2 0.671875 -4.984375 C 0.671875 -7.96875 2.234375 -10.453125 5.328125 -10.453125 C 7.578125 -10.453125 8.859375 -9.28125 9.265625 -7.046875 C 9.265625 -7.046875 7.9375 -7.046875 7.9375 -7.046875 C 7.609375 -8.59375 6.78125 -9.3125 5.1875 -9.3125 C 3.203125 -9.3125 1.96875 -7.609375 1.96875 -5 C 1.96875 -2.453125 3.265625 -0.890625 5.296875 -0.890625 C 7.015625 -0.890625 7.828125 -1.796875 8.140625 -3.71875 C 8.140625 -3.71875 9.484375 -3.71875 9.484375 -3.71875 Z M 9.484375 -3.71875 "/>
</g>
<g id="glyph-27-16-f1ebeeb4">
<path d="M 7.46875 0 C 7.46875 0 1.125 0 1.125 0 C 1.125 0 1.125 -10.203125 1.125 -10.203125 C 1.125 -10.203125 2.421875 -10.203125 2.421875 -10.203125 C 2.421875 -10.203125 2.421875 -1.140625 2.421875 -1.140625 C 2.421875 -1.140625 7.46875 -1.140625 7.46875 -1.140625 C 7.46875 -1.140625 7.46875 0 7.46875 0 Z M 7.46875 0 "/>
</g>
<g id="glyph-27-17-f1ebeeb4">
<path d="M 4.078125 2.96875 C 4.078125 2.96875 3.296875 2.96875 3.296875 2.96875 C 1.90625 1.140625 1.015625 -1.40625 1.015625 -3.625 C 1.015625 -5.828125 1.90625 -8.375 3.296875 -10.203125 C 3.296875 -10.203125 4.078125 -10.203125 4.078125 -10.203125 C 2.84375 -8.21875 2.15625 -5.859375 2.15625 -3.625 C 2.15625 -1.390625 2.84375 0.96875 4.078125 2.96875 Z M 4.078125 2.96875 "/>
</g>
<g id="glyph-27-18-f1ebeeb4">
<path d="M 10.640625 0 C 10.640625 0 9.484375 0 9.484375 0 C 9.484375 0 9.484375 -5.046875 9.484375 -5.046875 C 9.484375 -5.984375 8.984375 -6.53125 8.140625 -6.53125 C 7.1875 -6.53125 6.390625 -5.671875 6.390625 -4.609375 C 6.390625 -4.609375 6.390625 0 6.390625 0 C 6.390625 0 5.234375 0 5.234375 0 C 5.234375 0 5.234375 -5.046875 5.234375 -5.046875 C 5.234375 -5.984375 4.75 -6.53125 3.875 -6.53125 C 2.921875 -6.53125 2.15625 -5.671875 2.15625 -4.609375 C 2.15625 -4.609375 2.15625 0 2.15625 0 C 2.15625 0 1 0 1 0 C 1 0 1 -7.34375 1 -7.34375 C 1 -7.34375 2.0625 -7.34375 2.0625 -7.34375 C 2.0625 -7.34375 2.0625 -6.296875 2.0625 -6.296875 C 2.6875 -7.1875 3.328125 -7.546875 4.3125 -7.546875 C 5.265625 -7.546875 5.859375 -7.203125 6.28125 -6.421875 C 6.96875 -7.25 7.5625 -7.546875 8.546875 -7.546875 C 9.90625 -7.546875 10.640625 -6.8125 10.640625 -5.5 C 10.640625 -5.5 10.640625 0 10.640625 0 Z M 10.640625 0 "/>
</g>
<g id="glyph-27-19-f1ebeeb4">
<path d="M 6.9375 0 C 6.9375 0 5.890625 0 5.890625 0 C 5.890625 0 5.890625 -1.078125 5.890625 -1.078125 C 5.265625 -0.171875 4.5625 0.203125 3.5625 0.203125 C 1.578125 0.203125 0.359375 -1.265625 0.359375 -3.734375 C 0.359375 -6.078125 1.609375 -7.546875 3.515625 -7.546875 C 4.5 -7.546875 5.28125 -7.15625 5.765625 -6.40625 C 5.765625 -6.40625 5.765625 -10.203125 5.765625 -10.203125 C 5.765625 -10.203125 6.9375 -10.203125 6.9375 -10.203125 C 6.9375 -10.203125 6.9375 0 6.9375 0 Z M 5.765625 -3.640625 C 5.765625 -5.328125 4.96875 -6.453125 3.703125 -6.453125 C 2.4375 -6.453125 1.578125 -5.375 1.578125 -3.671875 C 1.578125 -1.953125 2.4375 -0.875 3.71875 -0.875 C 4.953125 -0.875 5.765625 -1.953125 5.765625 -3.640625 Z M 5.765625 -3.640625 "/>
</g>
<g id="glyph-27-20-f1ebeeb4">
<path d="M 3.578125 -3.609375 C 3.578125 -1.40625 2.703125 1.140625 1.296875 2.96875 C 1.296875 2.96875 0.53125 2.96875 0.53125 2.96875 C 1.765625 0.984375 2.453125 -1.390625 2.453125 -3.609375 C 2.453125 -5.859375 1.765625 -8.203125 0.53125 -10.203125 C 0.53125 -10.203125 1.296875 -10.203125 1.296875 -10.203125 C 2.703125 -8.375 3.578125 -5.828125 3.578125 -3.609375 Z M 3.578125 -3.609375 "/>
</g>
<g id="glyph-28-0-f1ebeeb4">
<path d="M 9.140625 0 C 9.140625 0 7.6875 0 7.6875 0 C 7.6875 0 6.640625 -3.0625 6.640625 -3.0625 C 6.640625 -3.0625 2.703125 -3.0625 2.703125 -3.0625 C 2.703125 -3.0625 1.625 0 1.625 0 C 1.625 0 0.234375 0 0.234375 0 C 0.234375 0 3.875 -10.203125 3.875 -10.203125 C 3.875 -10.203125 5.5625 -10.203125 5.5625 -10.203125 C 5.5625 -10.203125 9.140625 0 9.140625 0 Z M 6.265625 -4.15625 C 6.265625 -4.15625 4.703125 -8.8125 4.703125 -8.8125 C 4.703125 -8.8125 3.03125 -4.15625 3.03125 -4.15625 C 3.03125 -4.15625 6.265625 -4.15625 6.265625 -4.15625 Z M 6.265625 -4.15625 "/>
</g>
<g id="glyph-28-1-f1ebeeb4">
<path d="M 9.5 0 C 9.5 0 7.921875 0 7.921875 0 C 7.734375 -0.421875 7.609375 -1.03125 7.625 -1.671875 C 7.625 -1.671875 7.640625 -2.578125 7.640625 -2.578125 C 7.65625 -3.84375 7.109375 -4.390625 5.96875 -4.390625 C 5.96875 -4.390625 2.609375 -4.390625 2.609375 -4.390625 C 2.609375 -4.390625 2.609375 0 2.609375 0 C 2.609375 0 1.296875 0 1.296875 0 C 1.296875 0 1.296875 -10.203125 1.296875 -10.203125 C 1.296875 -10.203125 6 -10.203125 6 -10.203125 C 8.015625 -10.203125 9.109375 -9.234375 9.109375 -7.46875 C 9.109375 -6.3125 8.65625 -5.59375 7.5 -5.046875 C 8.609375 -4.5625 8.859375 -4.0625 8.890625 -2.375 C 8.90625 -1.015625 9.015625 -0.65625 9.5 -0.328125 C 9.5 -0.328125 9.5 0 9.5 0 Z M 7.75 -7.296875 C 7.75 -8.4375 7.203125 -9.0625 5.75 -9.0625 C 5.75 -9.0625 2.609375 -9.0625 2.609375 -9.0625 C 2.609375 -9.0625 2.609375 -5.546875 2.609375 -5.546875 C 2.609375 -5.546875 5.75 -5.546875 5.75 -5.546875 C 7.140625 -5.546875 7.75 -6.09375 7.75 -7.296875 Z M 7.75 -7.296875 "/>
</g>
<g id="glyph-28-2-f1ebeeb4">
<path d="M 8.6875 -2.796875 C 8.6875 -0.984375 7.296875 0.25 4.703125 0.25 C 2.296875 0.25 0.671875 -0.90625 0.671875 -3.3125 C 0.671875 -3.3125 1.90625 -3.3125 1.90625 -3.3125 C 1.90625 -1.859375 2.859375 -0.890625 4.78125 -0.890625 C 6.546875 -0.890625 7.390625 -1.546875 7.390625 -2.671875 C 7.390625 -3.46875 6.796875 -3.984375 5.515625 -4.328125 C 5.515625 -4.328125 2.984375 -5 2.984375 -5 C 1.640625 -5.34375 0.984375 -6.125 0.984375 -7.375 C 0.984375 -9.21875 2.359375 -10.453125 4.609375 -10.453125 C 6.953125 -10.453125 8.34375 -9.296875 8.34375 -7.296875 C 8.34375 -7.296875 7.109375 -7.296875 7.109375 -7.296875 C 7.109375 -8.625 6.1875 -9.359375 4.5625 -9.359375 C 3.1875 -9.359375 2.28125 -8.59375 2.28125 -7.5625 C 2.28125 -6.78125 2.734375 -6.375 3.96875 -6.046875 C 3.96875 -6.046875 6.53125 -5.359375 6.53125 -5.359375 C 7.90625 -4.984375 8.6875 -4.0625 8.6875 -2.796875 Z M 8.6875 -2.796875 "/>
</g>
<g id="glyph-28-3-f1ebeeb4">
<path d="M 7.15625 -7.015625 C 7.15625 -5.796875 6.4375 -4.765625 5.046875 -4.015625 C 5.046875 -4.015625 3.65625 -3.265625 3.65625 -3.265625 C 2.4375 -2.546875 1.984375 -2.03125 1.859375 -1.21875 C 1.859375 -1.21875 7.078125 -1.21875 7.078125 -1.21875 C 7.078125 -1.21875 7.078125 0 7.078125 0 C 7.078125 0 0.46875 0 0.46875 0 C 0.59375 -2.1875 1.1875 -3.125 3.265625 -4.296875 C 3.265625 -4.296875 4.546875 -5.03125 4.546875 -5.03125 C 5.4375 -5.53125 5.890625 -6.203125 5.890625 -6.984375 C 5.890625 -8.046875 5.046875 -8.84375 3.9375 -8.84375 C 2.71875 -8.84375 2.03125 -8.140625 1.9375 -6.484375 C 1.9375 -6.484375 0.703125 -6.484375 0.703125 -6.484375 C 0.765625 -8.890625 1.953125 -9.921875 3.96875 -9.921875 C 5.859375 -9.921875 7.15625 -8.6875 7.15625 -7.015625 Z M 7.15625 -7.015625 "/>
</g>
<g id="glyph-28-4-f1ebeeb4">
<path d="M 10.65625 0 C 10.65625 0 9.421875 0 9.421875 0 C 9.421875 0 9.421875 -8.546875 9.421875 -8.546875 C 9.421875 -8.546875 6.546875 0 6.546875 0 C 6.546875 0 5.1875 0 5.1875 0 C 5.1875 0 2.28125 -8.546875 2.28125 -8.546875 C 2.28125 -8.546875 2.28125 0 2.28125 0 C 2.28125 0 1.046875 0 1.046875 0 C 1.046875 0 1.046875 -10.203125 1.046875 -10.203125 C 1.046875 -10.203125 2.859375 -10.203125 2.859375 -10.203125 C 2.859375 -10.203125 5.875 -1.3125 5.875 -1.3125 C 5.875 -1.3125 8.84375 -10.203125 8.84375 -10.203125 C 8.84375 -10.203125 10.65625 -10.203125 10.65625 -10.203125 C 10.65625 -10.203125 10.65625 0 10.65625 0 Z M 10.65625 0 "/>
</g>
<g id="glyph-28-5-f1ebeeb4">
<path d="M 9.03125 -3.109375 C 9.03125 -1.0625 7.484375 0.25 5.09375 0.25 C 2.671875 0.25 1.1875 -1.03125 1.1875 -3.109375 C 1.1875 -3.109375 1.1875 -10.203125 1.1875 -10.203125 C 1.1875 -10.203125 2.484375 -10.203125 2.484375 -10.203125 C 2.484375 -10.203125 2.484375 -3.109375 2.484375 -3.109375 C 2.484375 -1.625 3.5625 -0.890625 5.09375 -0.890625 C 6.734375 -0.890625 7.734375 -1.734375 7.734375 -3.109375 C 7.734375 -3.109375 7.734375 -10.203125 7.734375 -10.203125 C 7.734375 -10.203125 9.03125 -10.203125 9.03125 -10.203125 C 9.03125 -10.203125 9.03125 -3.109375 9.03125 -3.109375 Z M 9.03125 -3.109375 "/>
</g>
<g id="glyph-28-6-f1ebeeb4">
<path d="M 9.484375 -3.71875 C 9.171875 -1.0625 7.765625 0.25 5.28125 0.25 C 2.28125 0.25 0.671875 -2 0.671875 -4.984375 C 0.671875 -7.96875 2.234375 -10.453125 5.328125 -10.453125 C 7.578125 -10.453125 8.859375 -9.28125 9.265625 -7.046875 C 9.265625 -7.046875 7.9375 -7.046875 7.9375 -7.046875 C 7.609375 -8.59375 6.78125 -9.3125 5.1875 -9.3125 C 3.203125 -9.3125 1.96875 -7.609375 1.96875 -5 C 1.96875 -2.453125 3.265625 -0.890625 5.296875 -0.890625 C 7.015625 -0.890625 7.828125 -1.796875 8.140625 -3.71875 C 8.140625 -3.71875 9.484375 -3.71875 9.484375 -3.71875 Z M 9.484375 -3.71875 "/>
</g>
<g id="glyph-28-7-f1ebeeb4">
<path d="M 7.46875 0 C 7.46875 0 1.125 0 1.125 0 C 1.125 0 1.125 -10.203125 1.125 -10.203125 C 1.125 -10.203125 2.421875 -10.203125 2.421875 -10.203125 C 2.421875 -10.203125 2.421875 -1.140625 2.421875 -1.140625 C 2.421875 -1.140625 7.46875 -1.140625 7.46875 -1.140625 C 7.46875 -1.140625 7.46875 0 7.46875 0 Z M 7.46875 0 "/>
</g>
<g id="glyph-28-8-f1ebeeb4">
<path d="M 10.390625 -4.9375 C 10.390625 -1.953125 8.453125 0.25 5.453125 0.25 C 2.515625 0.25 0.53125 -1.828125 0.53125 -5.03125 C 0.53125 -8.21875 2.515625 -10.453125 5.453125 -10.453125 C 8.4375 -10.453125 10.390625 -8.234375 10.390625 -4.9375 Z M 9.09375 -4.96875 C 9.09375 -7.546875 7.65625 -9.3125 5.453125 -9.3125 C 3.296875 -9.3125 1.828125 -7.546875 1.828125 -5.03125 C 1.828125 -2.5 3.296875 -0.890625 5.453125 -0.890625 C 7.609375 -0.890625 9.09375 -2.5 9.09375 -4.96875 Z M 9.09375 -4.96875 "/>
</g>
<g id="glyph-28-9-f1ebeeb4">
<path d="M 9.34375 -5.109375 C 9.34375 -1.9375 7.75 0 5.1875 0 C 5.1875 0 1.25 0 1.25 0 C 1.25 0 1.25 -10.203125 1.25 -10.203125 C 1.25 -10.203125 5.1875 -10.203125 5.1875 -10.203125 C 7.765625 -10.203125 9.34375 -8.28125 9.34375 -5.109375 Z M 8.03125 -5.09375 C 8.03125 -7.703125 6.96875 -9.0625 4.953125 -9.0625 C 4.953125 -9.0625 2.546875 -9.0625 2.546875 -9.0625 C 2.546875 -9.0625 2.546875 -1.140625 2.546875 -1.140625 C 2.546875 -1.140625 4.953125 -1.140625 4.953125 -1.140625 C 6.96875 -1.140625 8.03125 -2.515625 8.03125 -5.09375 Z M 8.03125 -5.09375 "/>
</g>
<g id="glyph-28-10-f1ebeeb4">
<path d="M 7.328125 -3.59375 C 7.328125 -1.265625 6.078125 0.203125 4.1875 0.203125 C 3.234375 0.203125 2.546875 -0.125 1.9375 -0.875 C 1.9375 -0.875 1.9375 3.046875 1.9375 3.046875 C 1.9375 3.046875 0.765625 3.046875 0.765625 3.046875 C 0.765625 3.046875 0.765625 -7.34375 0.765625 -7.34375 C 0.765625 -7.34375 1.828125 -7.34375 1.828125 -7.34375 C 1.828125 -7.34375 1.828125 -6.234375 1.828125 -6.234375 C 2.375 -7.09375 3.171875 -7.546875 4.171875 -7.546875 C 6.125 -7.546875 7.328125 -6.0625 7.328125 -3.59375 Z M 6.109375 -3.625 C 6.109375 -5.375 5.265625 -6.453125 3.96875 -6.453125 C 2.75 -6.453125 1.9375 -5.328125 1.9375 -3.609375 C 1.9375 -1.890625 2.75 -0.875 3.96875 -0.875 C 5.25 -0.875 6.109375 -1.953125 6.109375 -3.625 Z M 6.109375 -3.625 "/>
</g>
<g id="glyph-28-11-f1ebeeb4">
<path d="M 9.90625 -7.34375 C 9.90625 -7.34375 7.75 0 7.75 0 C 7.75 0 6.421875 0 6.421875 0 C 6.421875 0 4.9375 -5.75 4.9375 -5.75 C 4.9375 -5.75 3.53125 0 3.53125 0 C 3.53125 0 2.21875 0 2.21875 0 C 2.21875 0 0.078125 -7.34375 0.078125 -7.34375 C 0.078125 -7.34375 1.375 -7.34375 1.375 -7.34375 C 1.375 -7.34375 2.875 -1.625 2.875 -1.625 C 2.875 -1.625 4.265625 -7.34375 4.265625 -7.34375 C 4.265625 -7.34375 5.703125 -7.34375 5.703125 -7.34375 C 5.703125 -7.34375 7.140625 -1.625 7.140625 -1.625 C 7.140625 -1.625 8.59375 -7.34375 8.59375 -7.34375 C 8.59375 -7.34375 9.90625 -7.34375 9.90625 -7.34375 Z M 9.90625 -7.34375 "/>
</g>
<g id="glyph-28-12-f1ebeeb4">
<path d="M 2.140625 0 C 2.140625 0 0.984375 0 0.984375 0 C 0.984375 0 0.984375 -7.34375 0.984375 -7.34375 C 0.984375 -7.34375 2.140625 -7.34375 2.140625 -7.34375 C 2.140625 -7.34375 2.140625 0 2.140625 0 Z M 2.296875 -8.4375 C 2.296875 -8.4375 0.84375 -8.4375 0.84375 -8.4375 C 0.84375 -8.4375 0.84375 -9.890625 0.84375 -9.890625 C 0.84375 -9.890625 2.296875 -9.890625 2.296875 -9.890625 C 2.296875 -9.890625 2.296875 -8.4375 2.296875 -8.4375 Z M 2.296875 -8.4375 "/>
</g>
<g id="glyph-28-13-f1ebeeb4">
<path d="M 6.8125 0 C 6.8125 0 5.65625 0 5.65625 0 C 5.65625 0 5.65625 -5.078125 5.65625 -5.078125 C 5.65625 -5.96875 5.0625 -6.53125 4.140625 -6.53125 C 2.953125 -6.53125 2.140625 -5.546875 2.140625 -4.046875 C 2.140625 -4.046875 2.140625 0 2.140625 0 C 2.140625 0 0.984375 0 0.984375 0 C 0.984375 0 0.984375 -7.34375 0.984375 -7.34375 C 0.984375 -7.34375 2.0625 -7.34375 2.0625 -7.34375 C 2.0625 -7.34375 2.0625 -6.109375 2.0625 -6.109375 C 2.703125 -7.125 3.40625 -7.546875 4.5 -7.546875 C 5.90625 -7.546875 6.8125 -6.765625 6.8125 -5.546875 C 6.8125 -5.546875 6.8125 0 6.8125 0 Z M 6.8125 0 "/>
</g>
<g id="glyph-28-14-f1ebeeb4">
<path d="M 6.9375 0 C 6.9375 0 5.890625 0 5.890625 0 C 5.890625 0 5.890625 -1.078125 5.890625 -1.078125 C 5.265625 -0.171875 4.5625 0.203125 3.5625 0.203125 C 1.578125 0.203125 0.359375 -1.265625 0.359375 -3.734375 C 0.359375 -6.078125 1.609375 -7.546875 3.515625 -7.546875 C 4.5 -7.546875 5.28125 -7.15625 5.765625 -6.40625 C 5.765625 -6.40625 5.765625 -10.203125 5.765625 -10.203125 C 5.765625 -10.203125 6.9375 -10.203125 6.9375 -10.203125 C 6.9375 -10.203125 6.9375 0 6.9375 0 Z M 5.765625 -3.640625 C 5.765625 -5.328125 4.96875 -6.453125 3.703125 -6.453125 C 2.4375 -6.453125 1.578125 -5.375 1.578125 -3.671875 C 1.578125 -1.953125 2.4375 -0.875 3.71875 -0.875 C 4.953125 -0.875 5.765625 -1.953125 5.765625 -3.640625 Z M 5.765625 -3.640625 "/>
</g>
<g id="glyph-29-0-f1ebeeb4">
<path d="M 9.140625 0 C 9.140625 0 7.6875 0 7.6875 0 C 7.6875 0 6.640625 -3.0625 6.640625 -3.0625 C 6.640625 -3.0625 2.703125 -3.0625 2.703125 -3.0625 C 2.703125 -3.0625 1.625 0 1.625 0 C 1.625 0 0.234375 0 0.234375 0 C 0.234375 0 3.875 -10.203125 3.875 -10.203125 C 3.875 -10.203125 5.5625 -10.203125 5.5625 -10.203125 C 5.5625 -10.203125 9.140625 0 9.140625 0 Z M 6.265625 -4.15625 C 6.265625 -4.15625 4.703125 -8.8125 4.703125 -8.8125 C 4.703125 -8.8125 3.03125 -4.15625 3.03125 -4.15625 C 3.03125 -4.15625 6.265625 -4.15625 6.265625 -4.15625 Z M 6.265625 -4.15625 "/>
</g>
<g id="glyph-29-1-f1ebeeb4">
<path d="M 9.5 0 C 9.5 0 7.921875 0 7.921875 0 C 7.734375 -0.421875 7.609375 -1.03125 7.625 -1.671875 C 7.625 -1.671875 7.640625 -2.578125 7.640625 -2.578125 C 7.65625 -3.84375 7.109375 -4.390625 5.96875 -4.390625 C 5.96875 -4.390625 2.609375 -4.390625 2.609375 -4.390625 C 2.609375 -4.390625 2.609375 0 2.609375 0 C 2.609375 0 1.296875 0 1.296875 0 C 1.296875 0 1.296875 -10.203125 1.296875 -10.203125 C 1.296875 -10.203125 6 -10.203125 6 -10.203125 C 8.015625 -10.203125 9.109375 -9.234375 9.109375 -7.46875 C 9.109375 -6.3125 8.65625 -5.59375 7.5 -5.046875 C 8.609375 -4.5625 8.859375 -4.0625 8.890625 -2.375 C 8.90625 -1.015625 9.015625 -0.65625 9.5 -0.328125 C 9.5 -0.328125 9.5 0 9.5 0 Z M 7.75 -7.296875 C 7.75 -8.4375 7.203125 -9.0625 5.75 -9.0625 C 5.75 -9.0625 2.609375 -9.0625 2.609375 -9.0625 C 2.609375 -9.0625 2.609375 -5.546875 2.609375 -5.546875 C 2.609375 -5.546875 5.75 -5.546875 5.75 -5.546875 C 7.140625 -5.546875 7.75 -6.09375 7.75 -7.296875 Z M 7.75 -7.296875 "/>
</g>
</g>
<clipPath id="clip-0-f1ebeeb4">
<path clip-rule="nonzero" d="M 63 68 L 684 68 L 684 444 L 63 444 Z M 63 68 "/>
</clipPath>
<clipPath id="clip-1-f1ebeeb4">
<path clip-rule="nonzero" d="M 63 62 L 684 62 L 684 467 L 63 467 Z M 63 62 "/>
</clipPath>
<clipPath id="clip-2-f1ebeeb4">
<path clip-rule="nonzero" d="M 63 68 L 684 68 L 684 445 L 63 445 Z M 63 68 "/>
</clipPath>
<clipPath id="clip-3-f1ebeeb4">
<path clip-rule="nonzero" d="M 63 66 L 684 66 L 684 444 L 63 444 Z M 63 66 "/>
</clipPath>
<clipPath id="clip-4-f1ebeeb4">
<path clip-rule="nonzero" d="M 63 98 L 684 98 L 684 444 L 63 444 Z M 63 98 "/>
</clipPath>
</defs>
<rect x="-70" y="-55" width="840" height="660" fill="rgb(100%, 100%, 100%)" fill-opacity="1"/>
<path fill-rule="nonzero" fill="rgb(100%, 100%, 100%)" fill-opacity="1" d="M 63 494 L 684 494 L 684 16 L 63 16 Z M 63 494 "/>
<path fill="none" stroke-width="1" stroke-linecap="butt" stroke-linejoin="miter" stroke="rgb(0%, 0%, 0%)" stroke-opacity="0.12" stroke-miterlimit="1.154701" d="M 231.410156 494 L 231.410156 16 "/>
<path fill="none" stroke-width="1" stroke-linecap="butt" stroke-linejoin="miter" stroke="rgb(0%, 0%, 0%)" stroke-opacity="0.12" stroke-miterlimit="1.154701" d="M 404.425781 494 L 404.425781 16 "/>
<path fill="none" stroke-width="1" stroke-linecap="butt" stroke-linejoin="miter" stroke="rgb(0%, 0%, 0%)" stroke-opacity="0.12" stroke-miterlimit="1.154701" d="M 577.445313 494 L 577.445313 16 "/>
<path fill="none" stroke-width="1" stroke-linecap="butt" stroke-linejoin="miter" stroke="rgb(0%, 0%, 0%)" stroke-opacity="0.12" stroke-miterlimit="1.154701" d="M 63 464.308594 L 684 464.308594 "/>
<path fill="none" stroke-width="1" stroke-linecap="butt" stroke-linejoin="miter" stroke="rgb(0%, 0%, 0%)" stroke-opacity="0.12" stroke-miterlimit="1.154701" d="M 63 345.546875 L 684 345.546875 "/>
<path fill="none" stroke-width="1" stroke-linecap="butt" stroke-linejoin="miter" stroke="rgb(0%, 0%, 0%)" stroke-opacity="0.12" stroke-miterlimit="1.154701" d="M 63 226.785156 L 684 226.785156 "/>
<path fill="none" stroke-width="1" stroke-linecap="butt" stroke-linejoin="miter" stroke="rgb(0%, 0%, 0%)" stroke-opacity="0.12" stroke-miterlimit="1.154701" d="M 63 108.023438 L 684 108.023438 "/>
<g fill="rgb(0%, 0%, 0%)" fill-opacity="1">
<use xlink:href="#glyph-0-0-f1ebeeb4" x="338.493" y="532.238"/>
</g>
<g fill="rgb(0%, 0%, 0%)" fill-opacity="1">
<use xlink:href="#glyph-1-0-f1ebeeb4" x="347.831001" y="532.238"/>
</g>
<g fill="rgb(0%, 0%, 0%)" fill-opacity="1">
<use xlink:href="#glyph-1-1-f1ebeeb4" x="355.615" y="532.238"/>
</g>
<g fill="rgb(0%, 0%, 0%)" fill-opacity="1">
<use xlink:href="#glyph-1-2-f1ebeeb4" x="362.615" y="532.238"/>
</g>
<g fill="rgb(0%, 0%, 0%)" fill-opacity="1">
<use xlink:href="#glyph-1-3-f1ebeeb4" x="365.723" y="532.238"/>
</g>
<g fill="rgb(0%, 0%, 0%)" fill-opacity="1">
<use xlink:href="#glyph-1-2-f1ebeeb4" x="369.615" y="532.238"/>
</g>
<g fill="rgb(0%, 0%, 0%)" fill-opacity="1">
<use xlink:href="#glyph-1-0-f1ebeeb4" x="372.723" y="532.238"/>
</g>
<g fill="rgb(0%, 0%, 0%)" fill-opacity="1">
<use xlink:href="#glyph-2-0-f1ebeeb4" x="380.507" y="532.238"/>
</g>
<g fill="rgb(0%, 0%, 0%)" fill-opacity="1">
<use xlink:href="#glyph-2-1-f1ebeeb4" x="388.291" y="532.238"/>
</g>
<g fill="rgb(0%, 0%, 0%)" fill-opacity="1">
<use xlink:href="#glyph-1-4-f1ebeeb4" x="392.182999" y="532.238"/>
</g>
<g fill="rgb(0%, 0%, 0%)" fill-opacity="1">
<use xlink:href="#glyph-2-2-f1ebeeb4" x="396.844997" y="532.238"/>
</g>
<g fill="rgb(0%, 0%, 0%)" fill-opacity="1">
<use xlink:href="#glyph-1-5-f1ebeeb4" x="403.844997" y="532.238"/>
</g>
<g fill="rgb(0%, 0%, 0%)" fill-opacity="1">
<use xlink:href="#glyph-3-0-f1ebeeb4" x="223.068996" y="513.364"/>
</g>
<g fill="rgb(0%, 0%, 0%)" fill-opacity="1">
<use xlink:href="#glyph-4-0-f1ebeeb4" x="229.740996" y="513.364"/>
</g>
<g fill="rgb(0%, 0%, 0%)" fill-opacity="1">
<use xlink:href="#glyph-5-0-f1ebeeb4" x="233.076996" y="513.364"/>
</g>
<g fill="rgb(0%, 0%, 0%)" fill-opacity="1">
<use xlink:href="#glyph-6-0-f1ebeeb4" x="396.087704" y="513.364"/>
</g>
<g fill="rgb(0%, 0%, 0%)" fill-opacity="1">
<use xlink:href="#glyph-4-0-f1ebeeb4" x="402.759704" y="513.364"/>
</g>
<g fill="rgb(0%, 0%, 0%)" fill-opacity="1">
<use xlink:href="#glyph-7-0-f1ebeeb4" x="406.095703" y="513.364"/>
</g>
<g fill="rgb(0%, 0%, 0%)" fill-opacity="1">
<use xlink:href="#glyph-4-1-f1ebeeb4" x="569.10635" y="513.364"/>
</g>
<g fill="rgb(0%, 0%, 0%)" fill-opacity="1">
<use xlink:href="#glyph-4-0-f1ebeeb4" x="575.77835" y="513.364"/>
</g>
<g fill="rgb(0%, 0%, 0%)" fill-opacity="1">
<use xlink:href="#glyph-4-2-f1ebeeb4" x="579.114349" y="513.364"/>
</g>
<g fill="rgb(0%, 0%, 0%)" fill-opacity="1">
<use xlink:href="#glyph-8-0-f1ebeeb4" x="28.267998" y="290.790997"/>
</g>
<g fill="rgb(0%, 0%, 0%)" fill-opacity="1">
<use xlink:href="#glyph-9-0-f1ebeeb4" x="28.267998" y="281.452997"/>
</g>
<g fill="rgb(0%, 0%, 0%)" fill-opacity="1">
<use xlink:href="#glyph-10-0-f1ebeeb4" x="28.267999" y="273.668999"/>
</g>
<g fill="rgb(0%, 0%, 0%)" fill-opacity="1">
<use xlink:href="#glyph-11-0-f1ebeeb4" x="28.267999" y="270.561"/>
</g>
<g fill="rgb(0%, 0%, 0%)" fill-opacity="1">
<use xlink:href="#glyph-12-0-f1ebeeb4" x="28.267999" y="262.777"/>
</g>
<g fill="rgb(0%, 0%, 0%)" fill-opacity="1">
<use xlink:href="#glyph-13-0-f1ebeeb4" x="28.268" y="258.885"/>
</g>
<g fill="rgb(0%, 0%, 0%)" fill-opacity="1">
<use xlink:href="#glyph-14-0-f1ebeeb4" x="28.268" y="255.777"/>
</g>
<g fill="rgb(0%, 0%, 0%)" fill-opacity="1">
<use xlink:href="#glyph-15-0-f1ebeeb4" x="28.268" y="247.993001"/>
</g>
<g fill="rgb(0%, 0%, 0%)" fill-opacity="1">
<use xlink:href="#glyph-15-1-f1ebeeb4" x="28.268001" y="240.209001"/>
</g>
<g fill="rgb(0%, 0%, 0%)" fill-opacity="1">
<use xlink:href="#glyph-16-0-f1ebeeb4" x="28.268001" y="236.317003"/>
</g>
<g fill="rgb(0%, 0%, 0%)" fill-opacity="1">
<use xlink:href="#glyph-17-0-f1ebeeb4" x="28.268001" y="231.655005"/>
</g>
<g fill="rgb(0%, 0%, 0%)" fill-opacity="1">
<use xlink:href="#glyph-18-0-f1ebeeb4" x="28.268002" y="223.871004"/>
</g>
<g fill="rgb(0%, 0%, 0%)" fill-opacity="1">
<use xlink:href="#glyph-19-0-f1ebeeb4" x="36.32" y="468.680801"/>
</g>
<g fill="rgb(0%, 0%, 0%)" fill-opacity="1">
<use xlink:href="#glyph-19-1-f1ebeeb4" x="42.992" y="468.680801"/>
</g>
<g fill="rgb(0%, 0%, 0%)" fill-opacity="1">
<use xlink:href="#glyph-20-0-f1ebeeb4" x="46.327999" y="468.680801"/>
</g>
<g fill="rgb(0%, 0%, 0%)" fill-opacity="1">
<use xlink:href="#glyph-21-0-f1ebeeb4" x="36.32" y="349.919609"/>
</g>
<g fill="rgb(0%, 0%, 0%)" fill-opacity="1">
<use xlink:href="#glyph-21-1-f1ebeeb4" x="42.992" y="349.919609"/>
</g>
<g fill="rgb(0%, 0%, 0%)" fill-opacity="1">
<use xlink:href="#glyph-22-0-f1ebeeb4" x="46.327999" y="349.919609"/>
</g>
<g fill="rgb(0%, 0%, 0%)" fill-opacity="1">
<use xlink:href="#glyph-23-0-f1ebeeb4" x="36.32" y="231.158393"/>
</g>
<g fill="rgb(0%, 0%, 0%)" fill-opacity="1">
<use xlink:href="#glyph-23-1-f1ebeeb4" x="42.992" y="231.158393"/>
</g>
<g fill="rgb(0%, 0%, 0%)" fill-opacity="1">
<use xlink:href="#glyph-24-0-f1ebeeb4" x="46.327999" y="231.158393"/>
</g>
<g fill="rgb(0%, 0%, 0%)" fill-opacity="1">
<use xlink:href="#glyph-25-0-f1ebeeb4" x="36.32" y="112.397193"/>
</g>
<g fill="rgb(0%, 0%, 0%)" fill-opacity="1">
<use xlink:href="#glyph-25-1-f1ebeeb4" x="42.992" y="112.397193"/>
</g>
<g fill="rgb(0%, 0%, 0%)" fill-opacity="1">
<use xlink:href="#glyph-26-0-f1ebeeb4" x="46.327999" y="112.397193"/>
</g>
<g clip-path="url(#clip-0-f1ebeeb4)">
<path fill="none" stroke-width="3" stroke-linecap="butt" stroke-linejoin="miter" stroke="rgb(100%, 0%, 0%)" stroke-opacity="1" stroke-miterlimit="2" d="M 63 76.765625 L 206.097656 76.765625 L 209.566406 267.667969 L 490.417969 267.667969 L 493.882813 434.617188 L 684 434.617188 "/>
</g>
<g clip-path="url(#clip-1-f1ebeeb4)">
<path fill="none" stroke-width="3" stroke-linecap="butt" stroke-linejoin="miter" stroke="rgb(0%, 0%, 100%)" stroke-opacity="1" stroke-miterlimit="2" d="M 63 77.042969 L 63.589844 77.046875 L 66.832031 77.078125 L 70.417969 77.117188 L 73.933594 77.15625 L 78.371094 77.203125 L 81.15625 77.234375 L 85.433594 77.269531 L 88.285156 77.289063 L 92.019531 77.289063 L 94.78125 77.28125 L 98.804688 77.199219 L 102.222656 77.082031 L 105.875 76.886719 L 109.5 76.613281 L 112.316406 76.339844 L 115.351563 75.980469 L 119.019531 75.4375 L 122.457031 74.835938 L 127.023438 73.964844 L 129.632813 73.398438 L 133.539063 72.585938 L 136.957031 71.890625 L 140.539063 71.269531 L 143.226563 70.808594 L 146.949219 70.640625 L 150.691406 70.929688 L 153.605469 71.402344 L 158.085938 73.222656 L 161.5625 75.308594 L 164.441406 77.527344 L 167.539063 80.503906 L 171.042969 85.015625 L 175.035156 91.519531 L 177.699219 96.425781 L 181.789063 105.371094 L 185.128906 113.640625 L 188.21875 122.113281 L 192.074219 133.53125 L 195.398438 144.164063 L 198.503906 154.570313 L 202.234375 167.347656 L 206.335938 181.570313 L 209.429688 192.367188 L 213.636719 206.394531 L 216.835938 216.773438 L 219.820313 226.070313 L 224 237.78125 L 227.464844 246.519531 L 230.207031 252.90625 L 233.488281 259.582031 L 237.929688 266.617188 L 241 270.53125 L 243.804688 273.527344 L 248.28125 276.757813 L 251.128906 277.960938 L 254.261719 278.738281 L 257.691406 278.980469 L 261.40625 278.472656 L 264.535156 277.679688 L 268.851563 276.285156 L 271.609375 275.171875 L 274.785156 273.84375 L 278.3125 272.414063 L 282.710938 270.785156 L 285.59375 269.78125 L 289.171875 268.734375 L 293.433594 267.757813 L 296.617188 267.199219 L 299.78125 266.777344 L 303.253906 266.480469 L 306.0625 266.363281 L 310.101563 266.332031 L 313.019531 266.394531 L 317.136719 266.546875 L 319.902344 266.691406 L 323.792969 266.902344 L 327.855469 267.117188 L 330.671875 267.265625 L 334.113281 267.417969 L 338.519531 267.566406 L 340.90625 267.632813 L 344.316406 267.695313 L 347.816406 267.730469 L 352.398438 267.738281 L 355.195313 267.730469 L 358.417969 267.710938 L 361.53125 267.683594 L 365.835938 267.648438 L 368.960938 267.621094 L 372.75 267.59375 L 376.210938 267.574219 L 379.394531 267.558594 L 383.597656 267.542969 L 386.28125 267.535156 L 390.074219 267.519531 L 393.222656 267.5 L 397.132813 267.46875 L 400.15625 267.4375 L 403.75 267.410156 L 407.605469 267.398438 L 410.042969 267.386719 L 413.863281 267.441406 L 417.246094 267.542969 L 421.476563 267.75 L 424.75 267.964844 L 427.605469 268.242188 L 430.90625 268.574219 L 434.875 268.902344 L 439.0625 269.082031 L 441.433594 269.292969 L 445.800781 268.769531 L 449.234375 267.917969 L 451.652344 266.742188 L 455.25 264.335938 L 458.960938 260.835938 L 462.980469 256.992188 L 465.863281 253.285156 L 470.289063 252.3125 L 473.480469 252.75 L 476.816406 257.070313 L 480.144531 266.363281 L 483.171875 280.984375 L 486.875 306.496094 L 490.367188 336.476563 L 493.820313 368.679688 L 497.585938 400.800781 L 501.417969 427.78125 L 504.199219 443.449219 L 507.859375 454.324219 L 511.808594 457.523438 L 515.171875 454.824219 L 517.546875 450.6875 L 521.210938 444.929688 L 524.632813 439.671875 L 528.519531 435.519531 L 532.066406 433.121094 L 535.195313 432.011719 L 538.566406 431.664063 L 541.824219 431.933594 L 545.789063 432.578125 L 548.867188 433.230469 L 552.597656 433.894531 L 555.949219 434.382813 L 559.835938 434.746094 L 563.339844 434.925781 L 566.730469 434.980469 L 570.832031 434.960938 L 573.871094 434.890625 L 577.578125 434.804688 L 580.214844 434.730469 L 583.40625 434.664063 L 587.3125 434.609375 L 591.289063 434.578125 L 594.632813 434.570313 L 597.242188 434.570313 L 601.378906 434.578125 L 604.402344 434.589844 L 608.09375 434.601563 L 612.230469 434.609375 L 615.792969 434.617188 L 618.0625 434.621094 L 632.683594 434.621094 L 635.402344 434.617188 L 684 434.617188 "/>
</g>
<g clip-path="url(#clip-2-f1ebeeb4)">
<path fill="none" stroke-width="3" stroke-linecap="butt" stroke-linejoin="miter" stroke="rgb(0%, 50.196081%, 0%)" stroke-opacity="1" stroke-miterlimit="2" d="M 63 77.128906 L 63.589844 77.121094 L 66.832031 77.082031 L 70.417969 77.027344 L 73.933594 76.96875 L 78.371094 76.894531 L 81.15625 76.835938 L 85.433594 76.773438 L 88.285156 76.734375 L 92.019531 76.714844 L 94.78125 76.707031 L 98.804688 76.71875 L 102.222656 76.734375 L 105.875 76.769531 L 109.5 76.828125 L 112.316406 76.898438 L 115.351563 77.007813 L 119.019531 77.1875 L 122.457031 77.417969 L 127.023438 77.84375 L 129.632813 78.152344 L 133.539063 78.746094 L 136.957031 79.398438 L 140.539063 80.269531 L 143.226563 81.058594 L 146.949219 82.402344 L 150.691406 84.074219 L 153.605469 85.628906 L 158.085938 88.511719 L 161.5625 91.207031 L 164.441406 93.832031 L 167.539063 97.070313 L 171.042969 101.328125 L 175.035156 107.007813 L 177.699219 111.320313 L 181.789063 118.882813 L 185.128906 125.910156 L 188.21875 133.199219 L 192.074219 143.304688 L 195.398438 153.007813 L 198.503906 162.988281 L 202.234375 175.8125 L 206.335938 190.484375 L 209.429688 202.429688 L 213.636719 217.070313 L 216.835938 227.304688 L 219.820313 236.109375 L 224 245.6875 L 227.464844 251.9375 L 230.207031 255.894531 L 233.488281 259.941406 L 237.929688 263.566406 L 241 265.324219 L 243.804688 266.628906 L 248.28125 267.820313 L 251.128906 268.390625 L 254.261719 268.652344 L 257.691406 268.898438 L 261.40625 268.949219 L 264.535156 268.980469 L 268.851563 268.957031 L 271.609375 268.9375 L 274.785156 268.894531 L 278.3125 268.824219 L 282.710938 268.707031 L 285.59375 268.609375 L 289.171875 268.476563 L 293.433594 268.328125 L 296.617188 268.214844 L 299.78125 268.125 L 303.253906 268.042969 L 306.0625 267.992188 L 310.101563 267.945313 L 313.019531 267.914063 L 317.136719 267.890625 L 319.902344 267.875 L 323.792969 267.863281 L 327.855469 267.851563 L 330.671875 267.847656 L 334.113281 267.84375 L 344.316406 267.84375 L 347.816406 267.847656 L 352.398438 267.855469 L 355.195313 267.859375 L 358.417969 267.867188 L 361.53125 267.878906 L 365.835938 267.886719 L 368.960938 267.890625 L 372.75 267.890625 L 376.210938 267.886719 L 379.394531 267.882813 L 383.597656 267.878906 L 386.28125 267.875 L 390.074219 267.867188 L 393.222656 267.863281 L 397.132813 267.855469 L 400.15625 267.851563 L 403.75 267.84375 L 407.605469 267.839844 L 410.042969 267.835938 L 413.863281 267.832031 L 417.246094 267.832031 L 421.476563 267.828125 L 424.75 267.824219 L 427.605469 267.820313 L 430.90625 267.816406 L 434.875 267.820313 L 439.0625 267.828125 L 441.433594 267.835938 L 445.800781 267.871094 L 449.234375 267.917969 L 451.652344 267.972656 L 455.25 268.125 L 458.960938 268.425781 L 462.980469 269.066406 L 465.863281 269.78125 L 470.289063 271.773438 L 473.480469 273.960938 L 476.816406 277.453125 L 480.144531 282.867188 L 483.171875 290.367188 L 486.875 305.113281 L 490.367188 325.285156 L 493.820313 352.527344 L 497.585938 384.175781 L 501.417969 409.527344 L 504.199219 423.980469 L 507.859375 432.136719 L 511.808594 435.546875 L 515.171875 435.644531 L 517.546875 435.507813 L 521.210938 435.253906 L 524.632813 434.988281 L 528.519531 434.789063 L 532.066406 434.679688 L 535.195313 434.636719 L 538.566406 434.613281 L 555.949219 434.613281 L 559.835938 434.617188 L 684 434.617188 "/>
</g>
<g clip-path="url(#clip-3-f1ebeeb4)">
<path fill="none" stroke-width="3" stroke-linecap="butt" stroke-linejoin="miter" stroke="rgb(100%, 64.705884%, 0%)" stroke-opacity="1" stroke-miterlimit="2" d="M 63 76.097656 L 63.589844 76.089844 L 66.832031 76.046875 L 70.417969 76 L 73.933594 75.957031 L 78.371094 75.902344 L 81.15625 75.867188 L 85.433594 75.8125 L 88.285156 75.78125 L 92.019531 75.738281 L 94.78125 75.714844 L 98.804688 75.679688 L 102.222656 75.65625 L 105.875 75.628906 L 109.5 75.597656 L 112.316406 75.570313 L 115.351563 75.539063 L 119.019531 75.496094 L 122.457031 75.464844 L 127.023438 75.457031 L 129.632813 75.460938 L 133.539063 75.496094 L 136.957031 75.554688 L 140.539063 75.691406 L 143.226563 75.753906 L 146.949219 76.246094 L 150.691406 77.144531 L 153.605469 78.066406 L 158.085938 80.578125 L 161.5625 83.199219 L 164.441406 85.871094 L 167.539063 89.34375 L 171.042969 94.414063 L 175.035156 101.535156 L 177.699219 106.855469 L 181.789063 116.351563 L 185.128906 125.019531 L 188.21875 133.796875 L 192.074219 145.4375 L 195.398438 156.125 L 198.503906 166.464844 L 202.234375 178.914063 L 206.335938 192.488281 L 209.429688 202.617188 L 213.636719 215.453125 L 216.835938 224.734375 L 219.820313 232.847656 L 224 242.695313 L 227.464844 249.722656 L 230.207031 254.65625 L 233.488281 259.566406 L 237.929688 264.292969 L 241 266.613281 L 243.804688 268.203125 L 248.28125 269.660156 L 251.128906 269.960938 L 254.261719 270.027344 L 257.691406 270.019531 L 261.40625 270.039063 L 264.535156 270.046875 L 268.851563 270.050781 L 274.785156 270.050781 L 278.3125 270.046875 L 282.710938 270.011719 L 285.59375 269.980469 L 289.171875 269.925781 L 293.433594 269.839844 L 296.617188 269.765625 L 299.78125 269.683594 L 303.253906 269.589844 L 306.0625 269.507813 L 310.101563 269.390625 L 313.019531 269.308594 L 317.136719 269.191406 L 319.902344 269.117188 L 323.792969 269.019531 L 327.855469 268.921875 L 330.671875 268.859375 L 334.113281 268.789063 L 338.519531 268.707031 L 340.90625 268.664063 L 344.316406 268.609375 L 347.816406 268.5625 L 352.398438 268.507813 L 355.195313 268.480469 L 358.417969 268.449219 L 361.53125 268.421875 L 365.835938 268.390625 L 368.960938 268.371094 L 372.75 268.347656 L 376.210938 268.328125 L 379.394531 268.3125 L 383.597656 268.292969 L 386.28125 268.277344 L 390.074219 268.261719 L 393.222656 268.25 L 397.132813 268.234375 L 400.15625 268.226563 L 403.75 268.21875 L 407.605469 268.210938 L 413.863281 268.210938 L 417.246094 268.214844 L 421.476563 268.226563 L 424.75 268.238281 L 427.605469 268.253906 L 430.90625 268.277344 L 434.875 268.308594 L 439.0625 268.339844 L 441.433594 268.355469 L 445.800781 268.359375 L 449.234375 268.351563 L 451.652344 268.339844 L 455.25 268.335938 L 458.960938 268.355469 L 462.980469 268.4375 L 465.863281 268.46875 L 470.289063 268.660156 L 473.480469 268.710938 L 476.816406 268.730469 L 480.144531 268.757813 L 483.171875 268.96875 L 486.875 271.15625 L 490.367188 275.496094 L 493.820313 283.070313 L 497.585938 295.738281 L 501.417969 313.25 L 504.199219 329.351563 L 507.859375 351.695313 L 511.808594 375.757813 L 515.171875 395.546875 L 517.546875 409.21875 L 521.210938 422.921875 L 524.632813 430.601563 L 528.519531 433.914063 L 532.066406 434.398438 L 535.195313 434.433594 L 538.566406 434.535156 L 541.824219 434.582031 L 545.789063 434.609375 L 548.867188 434.613281 L 552.597656 434.617188 L 555.949219 434.613281 L 559.835938 434.617188 L 684 434.617188 "/>
</g>
<g clip-path="url(#clip-4-f1ebeeb4)">
<path fill="none" stroke-width="3" stroke-linecap="butt" stroke-linejoin="miter" stroke="rgb(50.196081%, 0%, 50.196081%)" stroke-opacity="1" stroke-miterlimit="2" d="M 63 107.234375 L 63.589844 107.519531 L 66.832031 109.144531 L 70.417969 110.855469 L 73.933594 112.613281 L 78.371094 114.386719 L 81.15625 116.296875 L 85.433594 118.070313 L 88.285156 119.96875 L 92.019531 121.953125 L 94.78125 124.023438 L 98.804688 126.089844 L 102.222656 128.285156 L 105.875 130.511719 L 109.5 132.628906 L 112.316406 135.085938 L 115.351563 137.519531 L 119.019531 140.070313 L 122.457031 142.804688 L 127.023438 145.382813 L 129.632813 148.230469 L 133.539063 150.933594 L 136.957031 153.546875 L 140.539063 156.417969 L 143.226563 159.429688 L 146.949219 162.21875 L 150.691406 165.207031 L 153.605469 168.519531 L 158.085938 171.285156 L 161.5625 174.222656 L 164.441406 177.386719 L 167.539063 180.351563 L 171.042969 183.347656 L 175.035156 186.402344 L 177.699219 189.691406 L 181.789063 192.542969 L 185.128906 195.578125 L 188.21875 198.816406 L 192.074219 201.574219 L 195.398438 204.617188 L 198.503906 207.789063 L 202.234375 210.601563 L 206.335938 213.539063 L 209.429688 216.539063 L 213.636719 219.054688 L 216.835938 221.71875 L 219.820313 224.476563 L 224 226.695313 L 227.464844 229.097656 L 230.207031 231.632813 L 233.488281 233.847656 L 237.929688 235.875 L 241 238.144531 L 243.804688 240.238281 L 248.28125 241.894531 L 251.128906 243.867188 L 254.261719 245.703125 L 257.691406 247.265625 L 261.40625 248.976563 L 264.535156 250.578125 L 268.851563 251.917969 L 271.609375 253.355469 L 274.785156 254.746094 L 278.3125 255.949219 L 282.710938 257.125 L 285.59375 258.300781 L 289.171875 259.320313 L 293.433594 260.195313 L 296.617188 261.105469 L 299.78125 261.890625 L 303.253906 262.605469 L 306.0625 263.351563 L 310.101563 263.984375 L 313.019531 264.617188 L 317.136719 265.183594 L 319.902344 265.734375 L 323.792969 266.226563 L 327.855469 266.652344 L 330.671875 267.113281 L 334.113281 267.488281 L 338.519531 267.8125 L 340.90625 268.191406 L 344.316406 268.515625 L 347.816406 268.820313 L 352.398438 269.121094 L 355.195313 269.414063 L 358.417969 269.707031 L 361.53125 270 L 365.835938 270.304688 L 368.960938 270.632813 L 372.75 270.953125 L 376.210938 271.285156 L 379.394531 271.664063 L 383.597656 272.007813 L 386.28125 272.441406 L 390.074219 272.871094 L 393.222656 273.335938 L 397.132813 273.863281 L 400.15625 274.425781 L 403.75 275.019531 L 407.605469 275.640625 L 410.042969 276.464844 L 413.863281 277.261719 L 417.246094 278.195313 L 421.476563 279.183594 L 424.75 280.21875 L 427.605469 281.5 L 430.90625 282.84375 L 434.875 284.292969 L 439.0625 285.945313 L 441.433594 287.832031 L 445.800781 289.378906 L 449.234375 291.285156 L 451.652344 293.8125 L 455.25 296.015625 L 458.960938 298.722656 L 462.980469 301.828125 L 465.863281 304.992188 L 470.289063 308.007813 L 473.480469 311.335938 L 476.816406 314.863281 L 480.144531 318.324219 L 483.171875 322.515625 L 486.875 326.652344 L 490.367188 331.191406 L 493.820313 336.097656 L 497.585938 340.664063 L 501.417969 345.449219 L 504.199219 350.6875 L 507.859375 355.398438 L 511.808594 359.910156 L 515.171875 364.847656 L 517.546875 369.921875 L 521.210938 374.554688 L 524.632813 379.59375 L 528.519531 384.402344 L 532.066406 388.691406 L 535.195313 393.066406 L 538.566406 397.105469 L 541.824219 401.003906 L 545.789063 404.625 L 548.867188 408.089844 L 552.597656 411.230469 L 555.949219 414.082031 L 559.835938 416.695313 L 563.339844 419.015625 L 566.730469 421.085938 L 570.832031 422.789063 L 573.871094 424.339844 L 577.578125 425.644531 L 580.214844 426.878906 L 583.40625 428.011719 L 587.3125 428.925781 L 591.289063 429.746094 L 594.632813 430.457031 L 597.242188 431.070313 L 601.378906 431.566406 L 604.402344 432.050781 L 608.09375 432.453125 L 612.230469 432.753906 L 615.792969 433.042969 L 618.0625 433.296875 L 622.078125 433.480469 L 626.285156 433.648438 L 628.480469 433.8125 L 632.683594 433.925781 L 635.402344 434.039063 L 640.109375 434.128906 L 642.890625 434.203125 L 646.292969 434.269531 L 650.289063 434.324219 L 652.820313 434.375 L 657.515625 434.410156 L 660.6875 434.441406 L 663.800781 434.472656 L 667.597656 434.492188 L 670.628906 434.511719 L 673.824219 434.53125 L 678.21875 434.542969 L 681.507813 434.554688 L 684 434.5625 "/>
</g>
<path fill-rule="nonzero" fill="rgb(100%, 100%, 100%)" fill-opacity="1" stroke-width="1" stroke-linecap="butt" stroke-linejoin="miter" stroke="rgb(0%, 0%, 0%)" stroke-opacity="1" stroke-miterlimit="2" d="M 469 150 L 674 150 L 674 26 L 469 26 Z M 469 150 "/>
<path fill="none" stroke-width="1" stroke-linecap="butt" stroke-linejoin="miter" stroke="rgb(0%, 0%, 0%)" stroke-opacity="1" stroke-miterlimit="1.154701" d="M 231.410156 494.5 L 231.410156 499.5 "/>
<path fill="none" stroke-width="1" stroke-linecap="butt" stroke-linejoin="miter" stroke="rgb(0%, 0%, 0%)" stroke-opacity="1" stroke-miterlimit="1.154701" d="M 404.425781 494.5 L 404.425781 499.5 "/>
<path fill="none" stroke-width="1" stroke-linecap="butt" stroke-linejoin="miter" stroke="rgb(0%, 0%, 0%)" stroke-opacity="1" stroke-miterlimit="1.154701" d="M 577.445313 494.5 L 577.445313 499.5 "/>
<path fill="none" stroke-width="1" stroke-linecap="butt" stroke-linejoin="miter" stroke="rgb(0%, 0%, 0%)" stroke-opacity="1" stroke-miterlimit="1.154701" d="M 62.5 464.308594 L 57.5 464.308594 "/>
<path fill="none" stroke-width="1" stroke-linecap="butt" stroke-linejoin="miter" stroke="rgb(0%, 0%, 0%)" stroke-opacity="1" stroke-miterlimit="1.154701" d="M 62.5 345.546875 L 57.5 345.546875 "/>
<path fill="none" stroke-width="1" stroke-linecap="butt" stroke-linejoin="miter" stroke="rgb(0%, 0%, 0%)" stroke-opacity="1" stroke-miterlimit="1.154701" d="M 62.5 226.785156 L 57.5 226.785156 "/>
<path fill="none" stroke-width="1" stroke-linecap="butt" stroke-linejoin="miter" stroke="rgb(0%, 0%, 0%)" stroke-opacity="1" stroke-miterlimit="1.154701" d="M 62.5 108.023438 L 57.5 108.023438 "/>
<path fill="none" stroke-width="3" stroke-linecap="butt" stroke-linejoin="miter" stroke="rgb(100%, 0%, 0%)" stroke-opacity="1" stroke-miterlimit="2" d="M 474.984375 42 L 494.984375 42 "/>
<path fill="none" stroke-width="3" stroke-linecap="butt" stroke-linejoin="miter" stroke="rgb(0%, 0%, 100%)" stroke-opacity="1" stroke-miterlimit="2" d="M 474.984375 65 L 494.984375 65 "/>
<path fill="none" stroke-width="3" stroke-linecap="butt" stroke-linejoin="miter" stroke="rgb(0%, 50.196081%, 0%)" stroke-opacity="1" stroke-miterlimit="2" d="M 474.984375 88 L 494.984375 88 "/>
<path fill="none" stroke-width="3" stroke-linecap="butt" stroke-linejoin="miter" stroke="rgb(100%, 64.705884%, 0%)" stroke-opacity="1" stroke-miterlimit="2" d="M 474.984375 111 L 494.984375 111 "/>
<path fill="none" stroke-width="3" stroke-linecap="butt" stroke-linejoin="miter" stroke="rgb(50.196081%, 0%, 50.196081%)" stroke-opacity="1" stroke-miterlimit="2" d="M 474.984375 134 L 494.984375 134 "/>
<g fill="rgb(0%, 0%, 0%)" fill-opacity="1">
<use xlink:href="#glyph-27-0-f1ebeeb4" x="499.986031" y="47.103"/>
</g>
<g fill="rgb(0%, 0%, 0%)" fill-opacity="1">
<use xlink:href="#glyph-27-1-f1ebeeb4" x="509.324032" y="47.103"/>
</g>
<g fill="rgb(0%, 0%, 0%)" fill-opacity="1">
<use xlink:href="#glyph-27-2-f1ebeeb4" x="517.108032" y="47.103"/>
</g>
<g fill="rgb(0%, 0%, 0%)" fill-opacity="1">
<use xlink:href="#glyph-27-3-f1ebeeb4" x="524.892029" y="47.103"/>
</g>
<g fill="rgb(0%, 0%, 0%)" fill-opacity="1">
<use xlink:href="#glyph-27-4-f1ebeeb4" x="528.000031" y="47.103"/>
</g>
<g fill="rgb(0%, 0%, 0%)" fill-opacity="1">
<use xlink:href="#glyph-27-5-f1ebeeb4" x="535.000031" y="47.103"/>
</g>
<g fill="rgb(0%, 0%, 0%)" fill-opacity="1">
<use xlink:href="#glyph-27-6-f1ebeeb4" x="538.892029" y="47.103"/>
</g>
<g fill="rgb(0%, 0%, 0%)" fill-opacity="1">
<use xlink:href="#glyph-27-7-f1ebeeb4" x="542.000031" y="47.103"/>
</g>
<g fill="rgb(0%, 0%, 0%)" fill-opacity="1">
<use xlink:href="#glyph-27-2-f1ebeeb4" x="549.000031" y="47.103"/>
</g>
<g fill="rgb(0%, 0%, 0%)" fill-opacity="1">
<use xlink:href="#glyph-27-3-f1ebeeb4" x="556.784031" y="47.103"/>
</g>
<g fill="rgb(0%, 0%, 0%)" fill-opacity="1">
<use xlink:href="#glyph-27-8-f1ebeeb4" x="559.892033" y="47.103"/>
</g>
<g fill="rgb(0%, 0%, 0%)" fill-opacity="1">
<use xlink:href="#glyph-27-9-f1ebeeb4" x="563.784031" y="47.103"/>
</g>
<g fill="rgb(0%, 0%, 0%)" fill-opacity="1">
<use xlink:href="#glyph-27-10-f1ebeeb4" x="573.122032" y="47.103"/>
</g>
<g fill="rgb(0%, 0%, 0%)" fill-opacity="1">
<use xlink:href="#glyph-27-3-f1ebeeb4" x="580.906029" y="47.103"/>
</g>
<g fill="rgb(0%, 0%, 0%)" fill-opacity="1">
<use xlink:href="#glyph-27-11-f1ebeeb4" x="584.01403" y="47.103"/>
</g>
<g fill="rgb(0%, 0%, 0%)" fill-opacity="1">
<use xlink:href="#glyph-27-5-f1ebeeb4" x="591.798027" y="47.103"/>
</g>
<g fill="rgb(0%, 0%, 0%)" fill-opacity="1">
<use xlink:href="#glyph-27-6-f1ebeeb4" x="595.690025" y="47.103"/>
</g>
<g fill="rgb(0%, 0%, 0%)" fill-opacity="1">
<use xlink:href="#glyph-27-10-f1ebeeb4" x="598.798027" y="47.103"/>
</g>
<g fill="rgb(0%, 0%, 0%)" fill-opacity="1">
<use xlink:href="#glyph-27-1-f1ebeeb4" x="606.582024" y="47.103"/>
</g>
<g fill="rgb(0%, 0%, 0%)" fill-opacity="1">
<use xlink:href="#glyph-28-0-f1ebeeb4" x="499.98605" y="70.103"/>
</g>
<g fill="rgb(0%, 0%, 0%)" fill-opacity="1">
<use xlink:href="#glyph-28-1-f1ebeeb4" x="509.324051" y="70.103"/>
</g>
<g fill="rgb(0%, 0%, 0%)" fill-opacity="1">
<use xlink:href="#glyph-28-2-f1ebeeb4" x="519.432049" y="70.103"/>
</g>
<g fill="rgb(0%, 0%, 0%)" fill-opacity="1">
<use xlink:href="#glyph-28-3-f1ebeeb4" x="528.77005" y="70.103"/>
</g>
<g fill="rgb(0%, 0%, 0%)" fill-opacity="1">
<use xlink:href="#glyph-28-3-f1ebeeb4" x="536.55405" y="70.103"/>
</g>
<g fill="rgb(0%, 0%, 0%)" fill-opacity="1">
<use xlink:href="#glyph-28-3-f1ebeeb4" x="544.338051" y="70.103"/>
</g>
<g fill="rgb(0%, 0%, 0%)" fill-opacity="1">
<use xlink:href="#glyph-28-4-f1ebeeb4" x="552.122051" y="70.103"/>
</g>
<g fill="rgb(0%, 0%, 0%)" fill-opacity="1">
<use xlink:href="#glyph-28-5-f1ebeeb4" x="563.78405" y="70.103"/>
</g>
<g fill="rgb(0%, 0%, 0%)" fill-opacity="1">
<use xlink:href="#glyph-28-2-f1ebeeb4" x="573.892048" y="70.103"/>
</g>
<g fill="rgb(0%, 0%, 0%)" fill-opacity="1">
<use xlink:href="#glyph-28-6-f1ebeeb4" x="583.230045" y="70.103"/>
</g>
<g fill="rgb(0%, 0%, 0%)" fill-opacity="1">
<use xlink:href="#glyph-28-7-f1ebeeb4" x="593.338047" y="70.103"/>
</g>
<g fill="rgb(0%, 0%, 0%)" fill-opacity="1">
<use xlink:href="#glyph-28-3-f1ebeeb4" x="601.122044" y="70.103"/>
</g>
<g fill="rgb(0%, 0%, 0%)" fill-opacity="1">
<use xlink:href="#glyph-29-0-f1ebeeb4" x="499.986008" y="93.103"/>
</g>
<g fill="rgb(0%, 0%, 0%)" fill-opacity="1">
<use xlink:href="#glyph-29-1-f1ebeeb4" x="509.324005" y="93.103"/>
</g>
<g fill="rgb(0%, 0%, 0%)" fill-opacity="1">
<use xlink:href="#glyph-27-9-f1ebeeb4" x="519.432007" y="93.103"/>
</g>
<g fill="rgb(0%, 0%, 0%)" fill-opacity="1">
<use xlink:href="#glyph-27-12-f1ebeeb4" x="528.770008" y="93.103"/>
</g>
<g fill="rgb(0%, 0%, 0%)" fill-opacity="1">
<use xlink:href="#glyph-27-12-f1ebeeb4" x="536.554008" y="93.103"/>
</g>
<g fill="rgb(0%, 0%, 0%)" fill-opacity="1">
<use xlink:href="#glyph-27-12-f1ebeeb4" x="544.338009" y="93.103"/>
</g>
<g fill="rgb(0%, 0%, 0%)" fill-opacity="1">
<use xlink:href="#glyph-27-13-f1ebeeb4" x="552.122009" y="93.103"/>
</g>
<g fill="rgb(0%, 0%, 0%)" fill-opacity="1">
<use xlink:href="#glyph-27-14-f1ebeeb4" x="563.784008" y="93.103"/>
</g>
<g fill="rgb(0%, 0%, 0%)" fill-opacity="1">
<use xlink:href="#glyph-27-9-f1ebeeb4" x="573.892006" y="93.103"/>
</g>
<g fill="rgb(0%, 0%, 0%)" fill-opacity="1">
<use xlink:href="#glyph-27-15-f1ebeeb4" x="583.230003" y="93.103"/>
</g>
<g fill="rgb(0%, 0%, 0%)" fill-opacity="1">
<use xlink:href="#glyph-27-16-f1ebeeb4" x="593.338005" y="93.103"/>
</g>
<g fill="rgb(0%, 0%, 0%)" fill-opacity="1">
<use xlink:href="#glyph-27-12-f1ebeeb4" x="601.122002" y="93.103"/>
</g>
<g fill="rgb(0%, 0%, 0%)" fill-opacity="1">
<use xlink:href="#glyph-27-17-f1ebeeb4" x="608.905998" y="93.103"/>
</g>
<g fill="rgb(0%, 0%, 0%)" fill-opacity="1">
<use xlink:href="#glyph-27-18-f1ebeeb4" x="613.568001" y="93.103"/>
</g>
<g fill="rgb(0%, 0%, 0%)" fill-opacity="1">
<use xlink:href="#glyph-27-6-f1ebeeb4" x="625.230003" y="93.103"/>
</g>
<g fill="rgb(0%, 0%, 0%)" fill-opacity="1">
<use xlink:href="#glyph-27-1-f1ebeeb4" x="628.337997" y="93.103"/>
</g>
<g fill="rgb(0%, 0%, 0%)" fill-opacity="1">
<use xlink:href="#glyph-27-18-f1ebeeb4" x="636.121994" y="93.103"/>
</g>
<g fill="rgb(0%, 0%, 0%)" fill-opacity="1">
<use xlink:href="#glyph-27-10-f1ebeeb4" x="647.783997" y="93.103"/>
</g>
<g fill="rgb(0%, 0%, 0%)" fill-opacity="1">
<use xlink:href="#glyph-27-19-f1ebeeb4" x="655.567993" y="93.103"/>
</g>
<g fill="rgb(0%, 0%, 0%)" fill-opacity="1">
<use xlink:href="#glyph-27-20-f1ebeeb4" x="663.35199" y="93.103"/>
</g>
<g fill="rgb(0%, 0%, 0%)" fill-opacity="1">
<use xlink:href="#glyph-28-0-f1ebeeb4" x="499.986023" y="116.103"/>
</g>
<g fill="rgb(0%, 0%, 0%)" fill-opacity="1">
<use xlink:href="#glyph-28-1-f1ebeeb4" x="509.32402" y="116.103"/>
</g>
<g fill="rgb(0%, 0%, 0%)" fill-opacity="1">
<use xlink:href="#glyph-28-2-f1ebeeb4" x="519.432022" y="116.103"/>
</g>
<g fill="rgb(0%, 0%, 0%)" fill-opacity="1">
<use xlink:href="#glyph-28-3-f1ebeeb4" x="528.770023" y="116.103"/>
</g>
<g fill="rgb(0%, 0%, 0%)" fill-opacity="1">
<use xlink:href="#glyph-28-3-f1ebeeb4" x="536.554024" y="116.103"/>
</g>
<g fill="rgb(0%, 0%, 0%)" fill-opacity="1">
<use xlink:href="#glyph-28-3-f1ebeeb4" x="544.338024" y="116.103"/>
</g>
<g fill="rgb(0%, 0%, 0%)" fill-opacity="1">
<use xlink:href="#glyph-28-4-f1ebeeb4" x="552.122025" y="116.103"/>
</g>
<g fill="rgb(0%, 0%, 0%)" fill-opacity="1">
<use xlink:href="#glyph-28-5-f1ebeeb4" x="563.784023" y="116.103"/>
</g>
<g fill="rgb(0%, 0%, 0%)" fill-opacity="1">
<use xlink:href="#glyph-28-2-f1ebeeb4" x="573.892021" y="116.103"/>
</g>
<g fill="rgb(0%, 0%, 0%)" fill-opacity="1">
<use xlink:href="#glyph-28-6-f1ebeeb4" x="583.230019" y="116.103"/>
</g>
<g fill="rgb(0%, 0%, 0%)" fill-opacity="1">
<use xlink:href="#glyph-28-7-f1ebeeb4" x="593.33802" y="116.103"/>
</g>
<g fill="rgb(0%, 0%, 0%)" fill-opacity="1">
<use xlink:href="#glyph-28-3-f1ebeeb4" x="601.122017" y="116.103"/>
</g>
<g fill="rgb(0%, 0%, 0%)" fill-opacity="1">
<use xlink:href="#glyph-28-4-f1ebeeb4" x="608.906013" y="116.103"/>
</g>
<g fill="rgb(0%, 0%, 0%)" fill-opacity="1">
<use xlink:href="#glyph-28-8-f1ebeeb4" x="620.568016" y="116.103"/>
</g>
<g fill="rgb(0%, 0%, 0%)" fill-opacity="1">
<use xlink:href="#glyph-28-8-f1ebeeb4" x="631.460022" y="116.103"/>
</g>
<g fill="rgb(0%, 0%, 0%)" fill-opacity="1">
<use xlink:href="#glyph-28-9-f1ebeeb4" x="642.35202" y="116.103"/>
</g>
<g fill="rgb(0%, 0%, 0%)" fill-opacity="1">
<use xlink:href="#glyph-28-0-f1ebeeb4" x="499.986031" y="139.103"/>
</g>
<g fill="rgb(0%, 0%, 0%)" fill-opacity="1">
<use xlink:href="#glyph-28-1-f1ebeeb4" x="509.324032" y="139.103"/>
</g>
<g fill="rgb(0%, 0%, 0%)" fill-opacity="1">
<use xlink:href="#glyph-28-2-f1ebeeb4" x="519.43203" y="139.103"/>
</g>
<g fill="rgb(0%, 0%, 0%)" fill-opacity="1">
<use xlink:href="#glyph-28-3-f1ebeeb4" x="528.770031" y="139.103"/>
</g>
<g fill="rgb(0%, 0%, 0%)" fill-opacity="1">
<use xlink:href="#glyph-28-3-f1ebeeb4" x="536.554031" y="139.103"/>
</g>
<g fill="rgb(0%, 0%, 0%)" fill-opacity="1">
<use xlink:href="#glyph-28-3-f1ebeeb4" x="544.338032" y="139.103"/>
</g>
<g fill="rgb(0%, 0%, 0%)" fill-opacity="1">
<use xlink:href="#glyph-28-5-f1ebeeb4" x="552.122032" y="139.103"/>
</g>
<g fill="rgb(0%, 0%, 0%)" fill-opacity="1">
<use xlink:href="#glyph-28-10-f1ebeeb4" x="562.230034" y="139.103"/>
</g>
<g fill="rgb(0%, 0%, 0%)" fill-opacity="1">
<use xlink:href="#glyph-28-11-f1ebeeb4" x="570.01403" y="139.103"/>
</g>
<g fill="rgb(0%, 0%, 0%)" fill-opacity="1">
<use xlink:href="#glyph-28-12-f1ebeeb4" x="580.122032" y="139.103"/>
</g>
<g fill="rgb(0%, 0%, 0%)" fill-opacity="1">
<use xlink:href="#glyph-28-13-f1ebeeb4" x="583.230034" y="139.103"/>
</g>
<g fill="rgb(0%, 0%, 0%)" fill-opacity="1">
<use xlink:href="#glyph-28-14-f1ebeeb4" x="591.01403" y="139.103"/>
</g>
<path fill="none" stroke-width="1" stroke-linecap="butt" stroke-linejoin="miter" stroke="rgb(0%, 0%, 0%)" stroke-opacity="1" stroke-miterlimit="1.154701" d="M 62.5 494 L 684.5 494 "/>
<path fill="none" stroke-width="1" stroke-linecap="butt" stroke-linejoin="miter" stroke="rgb(0%, 0%, 0%)" stroke-opacity="1" stroke-miterlimit="1.154701" d="M 63 494.5 L 63 15.5 "/>
<path fill="none" stroke-width="1" stroke-linecap="butt" stroke-linejoin="miter" stroke="rgb(0%, 0%, 0%)" stroke-opacity="1" stroke-miterlimit="1.154701" d="M 62.5 16 L 684.5 16 "/>
<path fill="none" stroke-width="1" stroke-linecap="butt" stroke-linejoin="miter" stroke="rgb(0%, 0%, 0%)" stroke-opacity="1" stroke-miterlimit="1.154701" d="M 684 494.5 L 684 15.5 "/>
</svg>
