<?xml version="1.0" encoding="UTF-8"?>
<svg xmlns="http://www.w3.org/2000/svg" xmlns:xlink="http://www.w3.org/1999/xlink" width="700" height="550" viewBox="0 0 700 550">
<defs>
<g>
<g id="glyph-0-0-ece5cbd7">
<path d="M 8.296875 -9.0625 C 8.296875 -9.0625 4.953125 -9.0625 4.953125 -9.0625 C 4.953125 -9.0625 4.953125 0 4.953125 0 C 4.953125 0 3.65625 0 3.65625 0 C 3.65625 0 3.65625 -9.0625 3.65625 -9.0625 C 3.65625 -9.0625 0.296875 -9.0625 0.296875 -9.0625 C 0.296875 -9.0625 0.296875 -10.203125 0.296875 -10.203125 C 0.296875 -10.203125 8.296875 -10.203125 8.296875 -10.203125 C 8.296875 -10.203125 8.296875 -9.0625 8.296875 -9.0625 Z M 8.296875 -9.0625 "/>
</g>
<g id="glyph-0-1-ece5cbd7">
<path d="M 2.140625 0 C 2.140625 0 0.984375 0 0.984375 0 C 0.984375 0 0.984375 -7.34375 0.984375 -7.34375 C 0.984375 -7.34375 2.140625 -7.34375 2.140625 -7.34375 C 2.140625 -7.34375 2.140625 0 2.140625 0 Z M 2.296875 -8.4375 C 2.296875 -8.4375 0.84375 -8.4375 0.84375 -8.4375 C 0.84375 -8.4375 0.84375 -9.890625 0.84375 -9.890625 C 0.84375 -9.890625 2.296875 -9.890625 2.296875 -9.890625 C 2.296875 -9.890625 2.296875 -8.4375 2.296875 -8.4375 Z M 2.296875 -8.4375 "/>
</g>
<g id="glyph-1-0-ece5cbd7">
<path d="M 10.640625 0 C 10.640625 0 9.484375 0 9.484375 0 C 9.484375 0 9.484375 -5.046875 9.484375 -5.046875 C 9.484375 -5.984375 8.984375 -6.53125 8.140625 -6.53125 C 7.1875 -6.53125 6.390625 -5.671875 6.390625 -4.609375 C 6.390625 -4.609375 6.390625 0 6.390625 0 C 6.390625 0 5.234375 0 5.234375 0 C 5.234375 0 5.234375 -5.046875 5.234375 -5.046875 C 5.234375 -5.984375 4.75 -6.53125 3.875 -6.53125 C 2.921875 -6.53125 2.15625 -5.671875 2.15625 -4.609375 C 2.15625 -4.609375 2.15625 0 2.15625 0 C 2.15625 0 1 0 1 0 C 1 0 1 -7.34375 1 -7.34375 C 1 -7.34375 2.0625 -7.34375 2.0625 -7.34375 C 2.0625 -7.34375 2.0625 -6.296875 2.0625 -6.296875 C 2.6875 -7.1875 3.328125 -7.546875 4.3125 -7.546875 C 5.265625 -7.546875 5.859375 -7.203125 6.28125 -6.421875 C 6.96875 -7.25 7.5625 -7.546875 8.546875 -7.546875 C 9.90625 -7.546875 10.640625 -6.8125 10.640625 -5.5 C 10.640625 -5.5 10.640625 0 10.640625 0 Z M 10.640625 0 "/>
</g>
<g id="glyph-1-1-ece5cbd7">
<path d="M 7.1875 -3.328125 C 7.1875 -3.328125 1.78125 -3.328125 1.78125 -3.328125 C 1.8125 -1.65625 2.71875 -0.875 3.9375 -0.875 C 4.875 -0.875 5.53125 -1.265625 5.859375 -2.21875 C 5.859375 -2.21875 7.03125 -2.21875 7.03125 -2.21875 C 6.734375 -0.734375 5.578125 0.203125 3.890625 0.203125 C 1.828125 0.203125 0.5625 -1.21875 0.5625 -3.625 C 0.5625 -6.03125 1.875 -7.546875 3.921875 -7.546875 C 5.296875 -7.546875 6.40625 -6.8125 6.890625 -5.609375 C 7.09375 -5.0625 7.1875 -4.390625 7.1875 -3.328125 Z M 5.9375 -4.375 C 5.9375 -5.515625 5.046875 -6.46875 3.90625 -6.46875 C 2.734375 -6.46875 1.90625 -5.59375 1.8125 -4.28125 C 1.8125 -4.28125 5.921875 -4.28125 5.921875 -4.28125 C 5.9375 -4.3125 5.9375 -4.375 5.9375 -4.375 Z M 5.9375 -4.375 "/>
</g>
<g id="glyph-1-2-ece5cbd7">
<path d="M 4.078125 2.96875 C 4.078125 2.96875 3.296875 2.96875 3.296875 2.96875 C 1.90625 1.140625 1.015625 -1.40625 1.015625 -3.625 C 1.015625 -5.828125 1.90625 -8.375 3.296875 -10.203125 C 3.296875 -10.203125 4.078125 -10.203125 4.078125 -10.203125 C 2.84375 -8.21875 2.15625 -5.859375 2.15625 -3.625 C 2.15625 -1.390625 2.84375 0.96875 4.078125 2.96875 Z M 4.078125 2.96875 "/>
</g>
<g id="glyph-1-3-ece5cbd7">
<path d="M 3.578125 -3.609375 C 3.578125 -1.40625 2.703125 1.140625 1.296875 2.96875 C 1.296875 2.96875 0.53125 2.96875 0.53125 2.96875 C 1.765625 0.984375 2.453125 -1.390625 2.453125 -3.609375 C 2.453125 -5.859375 1.765625 -8.203125 0.53125 -10.203125 C 0.53125 -10.203125 1.296875 -10.203125 1.296875 -10.203125 C 2.703125 -8.375 3.578125 -5.828125 3.578125 -3.609375 Z M 3.578125 -3.609375 "/>
</g>
<g id="glyph-1-4-ece5cbd7">
<path d="M 9.140625 0 C 9.140625 0 7.6875 0 7.6875 0 C 7.6875 0 6.640625 -3.0625 6.640625 -3.0625 C 6.640625 -3.0625 2.703125 -3.0625 2.703125 -3.0625 C 2.703125 -3.0625 1.625 0 1.625 0 C 1.625 0 0.234375 0 0.234375 0 C 0.234375 0 3.875 -10.203125 3.875 -10.203125 C 3.875 -10.203125 5.5625 -10.203125 5.5625 -10.203125 C 5.5625 -10.203125 9.140625 0 9.140625 0 Z M 6.265625 -4.15625 C 6.265625 -4.15625 4.703125 -8.8125 4.703125 -8.8125 C 4.703125 -8.8125 3.03125 -4.15625 3.03125 -4.15625 C 3.03125 -4.15625 6.265625 -4.15625 6.265625 -4.15625 Z M 6.265625 -4.15625 "/>
</g>
<g id="glyph-1-5-ece5cbd7">
<path d="M 6.8125 0 C 6.8125 0 5.65625 0 5.65625 0 C 5.65625 0 5.65625 -5.078125 5.65625 -5.078125 C 5.65625 -5.96875 5.0625 -6.53125 4.140625 -6.53125 C 2.953125 -6.53125 2.140625 -5.546875 2.140625 -4.046875 C 2.140625 -4.046875 2.140625 0 2.140625 0 C 2.140625 0 0.984375 0 0.984375 0 C 0.984375 0 0.984375 -7.34375 0.984375 -7.34375 C 0.984375 -7.34375 2.0625 -7.34375 2.0625 -7.34375 C 2.0625 -7.34375 2.0625 -6.109375 2.0625 -6.109375 C 2.703125 -7.125 3.40625 -7.546875 4.5 -7.546875 C 5.90625 -7.546875 6.8125 -6.765625 6.8125 -5.546875 C 6.8125 -5.546875 6.8125 0 6.8125 0 Z M 6.8125 0 "/>
</g>
<g id="glyph-1-6-ece5cbd7">
<path d="M 7.484375 -0.03125 C 7.109375 0.0625 6.9375 0.09375 6.6875 0.09375 C 6.125 0.09375 5.609375 -0.3125 5.484375 -0.875 C 4.84375 -0.1875 3.9375 0.203125 3 0.203125 C 1.515625 0.203125 0.59375 -0.578125 0.59375 -1.90625 C 0.59375 -2.796875 1.015625 -3.453125 1.875 -3.8125 C 2.328125 -3.984375 2.578125 -4.046875 4.234375 -4.25 C 5.15625 -4.375 5.453125 -4.578125 5.453125 -5.0625 C 5.453125 -5.0625 5.453125 -5.375 5.453125 -5.375 C 5.453125 -6.078125 4.859375 -6.46875 3.8125 -6.46875 C 2.71875 -6.46875 2.1875 -6.0625 2.09375 -5.171875 C 2.09375 -5.171875 0.90625 -5.171875 0.90625 -5.171875 C 0.984375 -6.859375 2.078125 -7.546875 3.84375 -7.546875 C 5.65625 -7.546875 6.609375 -6.84375 6.609375 -5.546875 C 6.609375 -5.546875 6.609375 -1.453125 6.609375 -1.453125 C 6.609375 -1.09375 6.828125 -0.875 7.234375 -0.875 C 7.3125 -0.875 7.359375 -0.875 7.484375 -0.90625 C 7.484375 -0.90625 7.484375 -0.03125 7.484375 -0.03125 Z M 5.453125 -2.53125 C 5.453125 -2.53125 5.453125 -3.625 5.453125 -3.625 C 5.046875 -3.4375 4.796875 -3.390625 3.5625 -3.21875 C 2.328125 -3.03125 1.8125 -2.703125 1.8125 -1.9375 C 1.8125 -1.140625 2.34375 -0.8125 3.25 -0.8125 C 4.375 -0.8125 5.453125 -1.484375 5.453125 -2.53125 Z M 5.453125 -2.53125 "/>
</g>
<g id="glyph-1-7-ece5cbd7">
<path d="M 2.109375 0 C 2.109375 0 0.953125 0 0.953125 0 C 0.953125 0 0.953125 -10.203125 0.953125 -10.203125 C 0.953125 -10.203125 2.109375 -10.203125 2.109375 -10.203125 C 2.109375 -10.203125 2.109375 0 2.109375 0 Z M 2.109375 0 "/>
</g>
<g id="glyph-1-8-ece5cbd7">
<path d="M 6.6875 -7.34375 C 6.6875 -7.34375 3.4375 1.546875 3.4375 1.546875 C 3.03125 2.59375 2.359375 3.046875 1.546875 3.046875 C 1.234375 3.046875 1 3 0.75 2.875 C 0.75 2.875 0.75 1.8125 0.75 1.8125 C 1.015625 1.875 1.203125 1.90625 1.375 1.90625 C 1.875 1.90625 2.109375 1.703125 2.3125 1.1875 C 2.3125 1.1875 2.765625 0.03125 2.765625 0.03125 C 2.765625 0.03125 0.28125 -7.34375 0.28125 -7.34375 C 0.28125 -7.34375 1.53125 -7.34375 1.53125 -7.34375 C 1.53125 -7.34375 3.40625 -1.625 3.40625 -1.625 C 3.40625 -1.625 5.4375 -7.34375 5.4375 -7.34375 C 5.4375 -7.34375 6.6875 -7.34375 6.6875 -7.34375 Z M 6.6875 -7.34375 "/>
</g>
<g id="glyph-1-9-ece5cbd7">
<path d="M 3.5625 0 C 3.15625 0.0625 2.890625 0.09375 2.609375 0.09375 C 1.6875 0.09375 1.1875 -0.328125 1.1875 -1.0625 C 1.1875 -1.0625 1.1875 -6.390625 1.1875 -6.390625 C 1.1875 -6.390625 0.203125 -6.390625 0.203125 -6.390625 C 0.203125 -6.390625 0.203125 -7.34375 0.203125 -7.34375 C 0.203125 -7.34375 1.1875 -7.34375 1.1875 -7.34375 C 1.1875 -7.34375 1.1875 -9.359375 1.1875 -9.359375 C 1.1875 -9.359375 2.359375 -9.359375 2.359375 -9.359375 C 2.359375 -9.359375 2.359375 -7.34375 2.359375 -7.34375 C 2.359375 -7.34375 3.5625 -7.34375 3.5625 -7.34375 C 3.5625 -7.34375 3.5625 -6.390625 3.5625 -6.390625 C 3.5625 -6.390625 2.359375 -6.390625 2.359375 -6.390625 C 2.359375 -6.390625 2.359375 -1.578125 2.359375 -1.578125 C 2.359375 -1.0625 2.484375 -0.921875 3 -0.921875 C 3.21875 -0.921875 3.40625 -0.9375 3.5625 -0.984375 C 3.5625 -0.984375 3.5625 0 3.5625 0 Z M 3.5625 0 "/>
</g>
<g id="glyph-1-10-ece5cbd7">
<path d="M 2.140625 0 C 2.140625 0 0.984375 0 0.984375 0 C 0.984375 0 0.984375 -7.34375 0.984375 -7.34375 C 0.984375 -7.34375 2.140625 -7.34375 2.140625 -7.34375 C 2.140625 -7.34375 2.140625 0 2.140625 0 Z M 2.296875 -8.4375 C 2.296875 -8.4375 0.84375 -8.4375 0.84375 -8.4375 C 0.84375 -8.4375 0.84375 -9.890625 0.84375 -9.890625 C 0.84375 -9.890625 2.296875 -9.890625 2.296875 -9.890625 C 2.296875 -9.890625 2.296875 -8.4375 2.296875 -8.4375 Z M 2.296875 -8.4375 "/>
</g>
<g id="glyph-1-11-ece5cbd7">
<path d="M 6.671875 -2.515625 C 6.53125 -0.84375 5.4375 0.203125 3.6875 0.203125 C 1.6875 0.203125 0.4375 -1.234375 0.4375 -3.59375 C 0.4375 -6.03125 1.71875 -7.546875 3.703125 -7.546875 C 5.328125 -7.546875 6.453125 -6.65625 6.59375 -4.875 C 6.59375 -4.875 5.421875 -4.875 5.421875 -4.875 C 5.28125 -5.890625 4.65625 -6.46875 3.6875 -6.46875 C 2.40625 -6.46875 1.65625 -5.4375 1.65625 -3.59375 C 1.65625 -1.859375 2.421875 -0.875 3.703125 -0.875 C 4.703125 -0.875 5.3125 -1.34375 5.5 -2.515625 C 5.5 -2.515625 6.671875 -2.515625 6.671875 -2.515625 Z M 6.671875 -2.515625 "/>
</g>
<g id="glyph-1-12-ece5cbd7">
</g>
<g id="glyph-1-13-ece5cbd7">
<path d="M 8.6875 -2.796875 C 8.6875 -0.984375 7.296875 0.25 4.703125 0.25 C 2.296875 0.25 0.671875 -0.90625 0.671875 -3.3125 C 0.671875 -3.3125 1.90625 -3.3125 1.90625 -3.3125 C 1.90625 -1.859375 2.859375 -0.890625 4.78125 -0.890625 C 6.546875 -0.890625 7.390625 -1.546875 7.390625 -2.671875 C 7.390625 -3.46875 6.796875 -3.984375 5.515625 -4.328125 C 5.515625 -4.328125 2.984375 -5 2.984375 -5 C 1.640625 -5.34375 0.984375 -6.125 0.984375 -7.375 C 0.984375 -9.21875 2.359375 -10.453125 4.609375 -10.453125 C 6.953125 -10.453125 8.34375 -9.296875 8.34375 -7.296875 C 8.34375 -7.296875 7.109375 -7.296875 7.109375 -7.296875 C 7.109375 -8.625 6.1875 -9.359375 4.5625 -9.359375 C 3.1875 -9.359375 2.28125 -8.59375 2.28125 -7.5625 C 2.28125 -6.78125 2.734375 -6.375 3.96875 -6.046875 C 3.96875 -6.046875 6.53125 -5.359375 6.53125 -5.359375 C 7.90625 -4.984375 8.6875 -4.0625 8.6875 -2.796875 Z M 8.6875 -2.796875 "/>
</g>
<g id="glyph-1-14-ece5cbd7">
<path d="M 7.140625 -3.609375 C 7.140625 -1.203125 5.875 0.203125 3.828125 0.203125 C 1.734375 0.203125 0.5 -1.203125 0.5 -3.671875 C 0.5 -6.125 1.75 -7.546875 3.8125 -7.546875 C 5.921875 -7.546875 7.140625 -6.140625 7.140625 -3.609375 Z M 5.921875 -3.625 C 5.921875 -5.453125 5.140625 -6.46875 3.828125 -6.46875 C 2.515625 -6.46875 1.71875 -5.4375 1.71875 -3.671875 C 1.71875 -1.890625 2.515625 -0.875 3.828125 -0.875 C 5.109375 -0.875 5.921875 -1.90625 5.921875 -3.625 Z M 5.921875 -3.625 "/>
</g>
<g id="glyph-1-15-ece5cbd7">
<path d="M 6.75 0 C 6.75 0 5.703125 0 5.703125 0 C 5.703125 0 5.703125 -1.140625 5.703125 -1.140625 C 5.015625 -0.171875 4.328125 0.203125 3.25 0.203125 C 1.8125 0.203125 0.90625 -0.578125 0.90625 -1.796875 C 0.90625 -1.796875 0.90625 -7.34375 0.90625 -7.34375 C 0.90625 -7.34375 2.078125 -7.34375 2.078125 -7.34375 C 2.078125 -7.34375 2.078125 -2.25 2.078125 -2.25 C 2.078125 -1.375 2.65625 -0.8125 3.578125 -0.8125 C 4.796875 -0.8125 5.59375 -1.796875 5.59375 -3.296875 C 5.59375 -3.296875 5.59375 -7.34375 5.59375 -7.34375 C 5.59375 -7.34375 6.75 -7.34375 6.75 -7.34375 C 6.75 -7.34375 6.75 0 6.75 0 Z M 6.75 0 "/>
</g>
<g id="glyph-1-16-ece5cbd7">
<path d="M 9.5 0 C 9.5 0 7.921875 0 7.921875 0 C 7.734375 -0.421875 7.609375 -1.03125 7.625 -1.671875 C 7.625 -1.671875 7.640625 -2.578125 7.640625 -2.578125 C 7.65625 -3.84375 7.109375 -4.390625 5.96875 -4.390625 C 5.96875 -4.390625 2.609375 -4.390625 2.609375 -4.390625 C 2.609375 -4.390625 2.609375 0 2.609375 0 C 2.609375 0 1.296875 0 1.296875 0 C 1.296875 0 1.296875 -10.203125 1.296875 -10.203125 C 1.296875 -10.203125 6 -10.203125 6 -10.203125 C 8.015625 -10.203125 9.109375 -9.234375 9.109375 -7.46875 C 9.109375 -6.3125 8.65625 -5.59375 7.5 -5.046875 C 8.609375 -4.5625 8.859375 -4.0625 8.890625 -2.375 C 8.90625 -1.015625 9.015625 -0.65625 9.5 -0.328125 C 9.5 -0.328125 9.5 0 9.5 0 Z M 7.75 -7.296875 C 7.75 -8.4375 7.203125 -9.0625 5.75 -9.0625 C 5.75 -9.0625 2.609375 -9.0625 2.609375 -9.0625 C 2.609375 -9.0625 2.609375 -5.546875 2.609375 -5.546875 C 2.609375 -5.546875 5.75 -5.546875 5.75 -5.546875 C 7.140625 -5.546875 7.75 -6.09375 7.75 -7.296875 Z M 7.75 -7.296875 "/>
</g>
<g id="glyph-1-17-ece5cbd7">
<path d="M 7.15625 -7.015625 C 7.15625 -5.796875 6.4375 -4.765625 5.046875 -4.015625 C 5.046875 -4.015625 3.65625 -3.265625 3.65625 -3.265625 C 2.4375 -2.546875 1.984375 -2.03125 1.859375 -1.21875 C 1.859375 -1.21875 7.078125 -1.21875 7.078125 -1.21875 C 7.078125 -1.21875 7.078125 0 7.078125 0 C 7.078125 0 0.46875 0 0.46875 0 C 0.59375 -2.1875 1.1875 -3.125 3.265625 -4.296875 C 3.265625 -4.296875 4.546875 -5.03125 4.546875 -5.03125 C 5.4375 -5.53125 5.890625 -6.203125 5.890625 -6.984375 C 5.890625 -8.046875 5.046875 -8.84375 3.9375 -8.84375 C 2.71875 -8.84375 2.03125 -8.140625 1.9375 -6.484375 C 1.9375 -6.484375 0.703125 -6.484375 0.703125 -6.484375 C 0.765625 -8.890625 1.953125 -9.921875 3.96875 -9.921875 C 5.859375 -9.921875 7.15625 -8.6875 7.15625 -7.015625 Z M 7.15625 -7.015625 "/>
</g>
<g id="glyph-1-18-ece5cbd7">
<path d="M 7.078125 -2.890625 C 7.078125 -1.015625 5.765625 0.203125 3.71875 0.203125 C 1.6875 0.203125 0.609375 -0.78125 0.453125 -3 C 0.453125 -3 1.6875 -3 1.6875 -3 C 1.765625 -1.546875 2.421875 -0.875 3.765625 -0.875 C 5.046875 -0.875 5.828125 -1.625 5.828125 -2.875 C 5.828125 -3.96875 5.125 -4.625 3.765625 -4.625 C 3.765625 -4.625 3.09375 -4.625 3.09375 -4.625 C 3.09375 -4.625 3.09375 -5.65625 3.09375 -5.65625 C 5.0625 -5.65625 5.53125 -6.09375 5.53125 -7.15625 C 5.53125 -8.203125 4.875 -8.84375 3.78125 -8.84375 C 2.515625 -8.84375 1.921875 -8.1875 1.890625 -6.71875 C 1.890625 -6.71875 0.65625 -6.71875 0.65625 -6.71875 C 0.703125 -8.828125 1.765625 -9.921875 3.765625 -9.921875 C 5.65625 -9.921875 6.796875 -8.90625 6.796875 -7.203125 C 6.796875 -6.203125 6.328125 -5.5625 5.40625 -5.1875 C 6.59375 -4.78125 7.078125 -4.09375 7.078125 -2.890625 Z M 7.078125 -2.890625 "/>
</g>
<g id="glyph-1-19-ece5cbd7">
<path d="M 10.65625 0 C 10.65625 0 9.421875 0 9.421875 0 C 9.421875 0 9.421875 -8.546875 9.421875 -8.546875 C 9.421875 -8.546875 6.546875 0 6.546875 0 C 6.546875 0 5.1875 0 5.1875 0 C 5.1875 0 2.28125 -8.546875 2.28125 -8.546875 C 2.28125 -8.546875 2.28125 0 2.28125 0 C 2.28125 0 1.046875 0 1.046875 0 C 1.046875 0 1.046875 -10.203125 1.046875 -10.203125 C 1.046875 -10.203125 2.859375 -10.203125 2.859375 -10.203125 C 2.859375 -10.203125 5.875 -1.3125 5.875 -1.3125 C 5.875 -1.3125 8.84375 -10.203125 8.84375 -10.203125 C 8.84375 -10.203125 10.65625 -10.203125 10.65625 -10.203125 C 10.65625 -10.203125 10.65625 0 10.65625 0 Z M 10.65625 0 "/>
</g>
<g id="glyph-1-20-ece5cbd7">
<path d="M 9.03125 -3.109375 C 9.03125 -1.0625 7.484375 0.25 5.09375 0.25 C 2.671875 0.25 1.1875 -1.03125 1.1875 -3.109375 C 1.1875 -3.109375 1.1875 -10.203125 1.1875 -10.203125 C 1.1875 -10.203125 2.484375 -10.203125 2.484375 -10.203125 C 2.484375 -10.203125 2.484375 -3.109375 2.484375 -3.109375 C 2.484375 -1.625 3.5625 -0.890625 5.09375 -0.890625 C 6.734375 -0.890625 7.734375 -1.734375 7.734375 -3.109375 C 7.734375 -3.109375 7.734375 -10.203125 7.734375 -10.203125 C 7.734375 -10.203125 9.03125 -10.203125 9.03125 -10.203125 C 9.03125 -10.203125 9.03125 -3.109375 9.03125 -3.109375 Z M 9.03125 -3.109375 "/>
</g>
<g id="glyph-1-21-ece5cbd7">
<path d="M 9.484375 -3.71875 C 9.171875 -1.0625 7.765625 0.25 5.28125 0.25 C 2.28125 0.25 0.671875 -2 0.671875 -4.984375 C 0.671875 -7.96875 2.234375 -10.453125 5.328125 -10.453125 C 7.578125 -10.453125 8.859375 -9.28125 9.265625 -7.046875 C 9.265625 -7.046875 7.9375 -7.046875 7.9375 -7.046875 C 7.609375 -8.59375 6.78125 -9.3125 5.1875 -9.3125 C 3.203125 -9.3125 1.96875 -7.609375 1.96875 -5 C 1.96875 -2.453125 3.265625 -0.890625 5.296875 -0.890625 C 7.015625 -0.890625 7.828125 -1.796875 8.140625 -3.71875 C 8.140625 -3.71875 9.484375 -3.71875 9.484375 -3.71875 Z M 9.484375 -3.71875 "/>
</g>
<g id="glyph-1-22-ece5cbd7">
<path d="M 7.46875 0 C 7.46875 0 1.125 0 1.125 0 C 1.125 0 1.125 -10.203125 1.125 -10.203125 C 1.125 -10.203125 2.421875 -10.203125 2.421875 -10.203125 C 2.421875 -10.203125 2.421875 -1.140625 2.421875 -1.140625 C 2.421875 -1.140625 7.46875 -1.140625 7.46875 -1.140625 C 7.46875 -1.140625 7.46875 0 7.46875 0 Z M 7.46875 0 "/>
</g>
<g id="glyph-1-23-ece5cbd7">
<path d="M 10.390625 -4.9375 C 10.390625 -1.953125 8.453125 0.25 5.453125 0.25 C 2.515625 0.25 0.53125 -1.828125 0.53125 -5.03125 C 0.53125 -8.21875 2.515625 -10.453125 5.453125 -10.453125 C 8.4375 -10.453125 10.390625 -8.234375 10.390625 -4.9375 Z M 9.09375 -4.96875 C 9.09375 -7.546875 7.65625 -9.3125 5.453125 -9.3125 C 3.296875 -9.3125 1.828125 -7.546875 1.828125 -5.03125 C 1.828125 -2.5 3.296875 -0.890625 5.453125 -0.890625 C 7.609375 -0.890625 9.09375 -2.5 9.09375 -4.96875 Z M 9.09375 -4.96875 "/>
</g>
<g id="glyph-1-24-ece5cbd7">
<path d="M 9.34375 -5.109375 C 9.34375 -1.9375 7.75 0 5.1875 0 C 5.1875 0 1.25 0 1.25 0 C 1.25 0 1.25 -10.203125 1.25 -10.203125 C 1.25 -10.203125 5.1875 -10.203125 5.1875 -10.203125 C 7.765625 -10.203125 9.34375 -8.28125 9.34375 -5.109375 Z M 8.03125 -5.09375 C 8.03125 -7.703125 6.96875 -9.0625 4.953125 -9.0625 C 4.953125 -9.0625 2.546875 -9.0625 2.546875 -9.0625 C 2.546875 -9.0625 2.546875 -1.140625 2.546875 -1.140625 C 2.546875 -1.140625 4.953125 -1.140625 4.953125 -1.140625 C 6.96875 -1.140625 8.03125 -2.515625 8.03125 -5.09375 Z M 8.03125 -5.09375 "/>
</g>
<g id="glyph-1-25-ece5cbd7">
<path d="M 13 -10.203125 C 13 -10.203125 10.421875 0 10.421875 0 C 10.421875 0 8.984375 0 8.984375 0 C 8.984375 0 6.640625 -8.390625 6.640625 -8.390625 C 6.640625 -8.390625 4.359375 0 4.359375 0 C 4.359375 0 2.921875 0 2.921875 0 C 2.921875 0 0.3125 -10.203125 0.3125 -10.203125 C 0.3125 -10.203125 1.765625 -10.203125 1.765625 -10.203125 C 1.765625 -10.203125 3.6875 -1.921875 3.6875 -1.921875 C 3.6875 -1.921875 5.953125 -10.203125 5.953125 -10.203125 C 5.953125 -10.203125 7.34375 -10.203125 7.34375 -10.203125 C 7.34375 -10.203125 9.671875 -1.921875 9.671875 -1.921875 C 9.671875 -1.921875 11.546875 -10.203125 11.546875 -10.203125 C 11.546875 -10.203125 13 -10.203125 13 -10.203125 Z M 13 -10.203125 "/>
</g>
<g id="glyph-1-26-ece5cbd7">
<path d="M 9.21875 0 C 9.21875 0 7.671875 0 7.671875 0 C 7.671875 0 4.078125 -5.234375 4.078125 -5.234375 C 4.078125 -5.234375 2.40625 -3.5625 2.40625 -3.5625 C 2.40625 -3.5625 2.40625 0 2.40625 0 C 2.40625 0 1.109375 0 1.109375 0 C 1.109375 0 1.109375 -10.203125 1.109375 -10.203125 C 1.109375 -10.203125 2.40625 -10.203125 2.40625 -10.203125 C 2.40625 -10.203125 2.40625 -5.046875 2.40625 -5.046875 C 2.40625 -5.046875 7.484375 -10.203125 7.484375 -10.203125 C 7.484375 -10.203125 9.171875 -10.203125 9.171875 -10.203125 C 9.171875 -10.203125 5.015625 -6.046875 5.015625 -6.046875 C 5.015625 -6.046875 9.21875 0 9.21875 0 Z M 9.21875 0 "/>
</g>
<g id="glyph-2-0-ece5cbd7">
</g>
<g id="glyph-3-0-ece5cbd7">
<path d="M 3.5625 0 C 3.15625 0.0625 2.890625 0.09375 2.609375 0.09375 C 1.6875 0.09375 1.1875 -0.328125 1.1875 -1.0625 C 1.1875 -1.0625 1.1875 -6.390625 1.1875 -6.390625 C 1.1875 -6.390625 0.203125 -6.390625 0.203125 -6.390625 C 0.203125 -6.390625 0.203125 -7.34375 0.203125 -7.34375 C 0.203125 -7.34375 1.1875 -7.34375 1.1875 -7.34375 C 1.1875 -7.34375 1.1875 -9.359375 1.1875 -9.359375 C 1.1875 -9.359375 2.359375 -9.359375 2.359375 -9.359375 C 2.359375 -9.359375 2.359375 -7.34375 2.359375 -7.34375 C 2.359375 -7.34375 3.5625 -7.34375 3.5625 -7.34375 C 3.5625 -7.34375 3.5625 -6.390625 3.5625 -6.390625 C 3.5625 -6.390625 2.359375 -6.390625 2.359375 -6.390625 C 2.359375 -6.390625 2.359375 -1.578125 2.359375 -1.578125 C 2.359375 -1.0625 2.484375 -0.921875 3 -0.921875 C 3.21875 -0.921875 3.40625 -0.9375 3.5625 -0.984375 C 3.5625 -0.984375 3.5625 0 3.5625 0 Z M 3.5625 0 "/>
</g>
<g id="glyph-4-0-ece5cbd7">
<path d="M 6.078125 -4.09375 C 6.078125 -1.296875 5.09375 0.1875 3.296875 0.1875 C 1.46875 0.1875 0.515625 -1.296875 0.515625 -4.15625 C 0.515625 -7.015625 1.46875 -8.515625 3.296875 -8.515625 C 5.140625 -8.515625 6.078125 -7.046875 6.078125 -4.09375 Z M 5 -4.1875 C 5 -6.46875 4.4375 -7.578125 3.296875 -7.578125 C 2.15625 -7.578125 1.59375 -6.484375 1.59375 -4.15625 C 1.59375 -1.828125 2.15625 -0.703125 3.28125 -0.703125 C 4.453125 -0.703125 5 -1.78125 5 -4.1875 Z M 5 -4.1875 "/>
</g>
<g id="glyph-5-0-ece5cbd7">
<path d="M 6.15625 -2.8125 C 6.15625 -1.015625 4.953125 0.1875 3.234375 0.1875 C 1.734375 0.1875 0.765625 -0.484375 0.421875 -2.1875 C 0.421875 -2.1875 1.46875 -2.1875 1.46875 -2.1875 C 1.734375 -1.21875 2.296875 -0.75 3.21875 -0.75 C 4.375 -0.75 5.078125 -1.453125 5.078125 -2.671875 C 5.078125 -3.9375 4.359375 -4.671875 3.21875 -4.671875 C 2.5625 -4.671875 2.140625 -4.46875 1.65625 -3.875 C 1.65625 -3.875 0.6875 -3.875 0.6875 -3.875 C 0.6875 -3.875 1.3125 -8.328125 1.3125 -8.328125 C 1.3125 -8.328125 5.71875 -8.328125 5.71875 -8.328125 C 5.71875 -8.328125 5.71875 -7.28125 5.71875 -7.28125 C 5.71875 -7.28125 2.171875 -7.28125 2.171875 -7.28125 C 2.171875 -7.28125 1.84375 -5.09375 1.84375 -5.09375 C 2.328125 -5.453125 2.8125 -5.609375 3.40625 -5.609375 C 5.046875 -5.609375 6.15625 -4.5 6.15625 -2.8125 Z M 6.15625 -2.8125 "/>
</g>
<g id="glyph-5-1-ece5cbd7">
<path d="M 4.15625 0 C 4.15625 0 3.109375 0 3.109375 0 C 3.109375 0 3.109375 -6.0625 3.109375 -6.0625 C 3.109375 -6.0625 1.21875 -6.0625 1.21875 -6.0625 C 1.21875 -6.0625 1.21875 -6.8125 1.21875 -6.8125 C 2.859375 -7.015625 3.09375 -7.203125 3.46875 -8.515625 C 3.46875 -8.515625 4.15625 -8.515625 4.15625 -8.515625 C 4.15625 -8.515625 4.15625 0 4.15625 0 Z M 4.15625 0 "/>
</g>
<g id="glyph-5-2-ece5cbd7">
<path d="M 6.078125 -4.09375 C 6.078125 -1.296875 5.09375 0.1875 3.296875 0.1875 C 1.46875 0.1875 0.515625 -1.296875 0.515625 -4.15625 C 0.515625 -7.015625 1.46875 -8.515625 3.296875 -8.515625 C 5.140625 -8.515625 6.078125 -7.046875 6.078125 -4.09375 Z M 5 -4.1875 C 5 -6.46875 4.4375 -7.578125 3.296875 -7.578125 C 2.15625 -7.578125 1.59375 -6.484375 1.59375 -4.15625 C 1.59375 -1.828125 2.15625 -0.703125 3.28125 -0.703125 C 4.453125 -0.703125 5 -1.78125 5 -4.1875 Z M 5 -4.1875 "/>
</g>
<g id="glyph-6-0-ece5cbd7">
<path d="M 0 -9.5 C 0 -9.5 0 -7.921875 0 -7.921875 C -0.421875 -7.734375 -1.03125 -7.609375 -1.671875 -7.625 C -1.671875 -7.625 -2.578125 -7.640625 -2.578125 -7.640625 C -3.84375 -7.65625 -4.390625 -7.109375 -4.390625 -5.96875 C -4.390625 -5.96875 -4.390625 -2.609375 -4.390625 -2.609375 C -4.390625 -2.609375 0 -2.609375 0 -2.609375 C 0 -2.609375 0 -1.296875 0 -1.296875 C 0 -1.296875 -10.203125 -1.296875 -10.203125 -1.296875 C -10.203125 -1.296875 -10.203125 -6 -10.203125 -6 C -10.203125 -8.015625 -9.234375 -9.109375 -7.46875 -9.109375 C -6.3125 -9.109375 -5.59375 -8.65625 -5.046875 -7.5 C -4.5625 -8.609375 -4.0625 -8.859375 -2.375 -8.890625 C -1.015625 -8.90625 -0.65625 -9.015625 -0.328125 -9.5 C -0.328125 -9.5 0 -9.5 0 -9.5 Z M -7.296875 -7.75 C -8.4375 -7.75 -9.0625 -7.203125 -9.0625 -5.75 C -9.0625 -5.75 -9.0625 -2.609375 -9.0625 -2.609375 C -9.0625 -2.609375 -5.546875 -2.609375 -5.546875 -2.609375 C -5.546875 -2.609375 -5.546875 -5.75 -5.546875 -5.75 C -5.546875 -7.140625 -6.09375 -7.75 -7.296875 -7.75 Z M -7.296875 -7.75 "/>
</g>
<g id="glyph-7-0-ece5cbd7">
<path d="M -3.328125 -7.1875 C -3.328125 -7.1875 -3.328125 -1.78125 -3.328125 -1.78125 C -1.65625 -1.8125 -0.875 -2.71875 -0.875 -3.9375 C -0.875 -4.875 -1.265625 -5.53125 -2.21875 -5.859375 C -2.21875 -5.859375 -2.21875 -7.03125 -2.21875 -7.03125 C -0.734375 -6.734375 0.203125 -5.578125 0.203125 -3.890625 C 0.203125 -1.828125 -1.21875 -0.5625 -3.625 -0.5625 C -6.03125 -0.5625 -7.546875 -1.875 -7.546875 -3.921875 C -7.546875 -5.296875 -6.8125 -6.40625 -5.609375 -6.890625 C -5.0625 -7.09375 -4.390625 -7.1875 -3.328125 -7.1875 Z M -4.375 -5.9375 C -5.515625 -5.9375 -6.46875 -5.046875 -6.46875 -3.90625 C -6.46875 -2.734375 -5.59375 -1.90625 -4.28125 -1.8125 C -4.28125 -1.8125 -4.28125 -5.921875 -4.28125 -5.921875 C -4.3125 -5.9375 -4.375 -5.9375 -4.375 -5.9375 Z M -4.375 -5.9375 "/>
</g>
<g id="glyph-8-0-ece5cbd7">
<path d="M 0 -2.109375 C 0 -2.109375 0 -0.953125 0 -0.953125 C 0 -0.953125 -10.203125 -0.953125 -10.203125 -0.953125 C -10.203125 -0.953125 -10.203125 -2.109375 -10.203125 -2.109375 C -10.203125 -2.109375 0 -2.109375 0 -2.109375 Z M 0 -2.109375 "/>
</g>
<g id="glyph-9-0-ece5cbd7">
<path d="M -0.03125 -7.484375 C 0.0625 -7.109375 0.09375 -6.9375 0.09375 -6.6875 C 0.09375 -6.125 -0.3125 -5.609375 -0.875 -5.484375 C -0.1875 -4.84375 0.203125 -3.9375 0.203125 -3 C 0.203125 -1.515625 -0.578125 -0.59375 -1.90625 -0.59375 C -2.796875 -0.59375 -3.453125 -1.015625 -3.8125 -1.875 C -3.984375 -2.328125 -4.046875 -2.578125 -4.25 -4.234375 C -4.375 -5.15625 -4.578125 -5.453125 -5.0625 -5.453125 C -5.0625 -5.453125 -5.375 -5.453125 -5.375 -5.453125 C -6.078125 -5.453125 -6.46875 -4.859375 -6.46875 -3.8125 C -6.46875 -2.71875 -6.0625 -2.1875 -5.171875 -2.09375 C -5.171875 -2.09375 -5.171875 -0.90625 -5.171875 -0.90625 C -6.859375 -0.984375 -7.546875 -2.078125 -7.546875 -3.84375 C -7.546875 -5.65625 -6.84375 -6.609375 -5.546875 -6.609375 C -5.546875 -6.609375 -1.453125 -6.609375 -1.453125 -6.609375 C -1.09375 -6.609375 -0.875 -6.828125 -0.875 -7.234375 C -0.875 -7.3125 -0.875 -7.359375 -0.90625 -7.484375 C -0.90625 -7.484375 -0.03125 -7.484375 -0.03125 -7.484375 Z M -2.53125 -5.453125 C -2.53125 -5.453125 -3.625 -5.453125 -3.625 -5.453125 C -3.4375 -5.046875 -3.390625 -4.796875 -3.21875 -3.5625 C -3.03125 -2.328125 -2.703125 -1.8125 -1.9375 -1.8125 C -1.140625 -1.8125 -0.8125 -2.34375 -0.8125 -3.25 C -0.8125 -4.375 -1.484375 -5.453125 -2.53125 -5.453125 Z M -2.53125 -5.453125 "/>
</g>
<g id="glyph-10-0-ece5cbd7">
<path d="M 0 -3.5625 C 0.0625 -3.15625 0.09375 -2.890625 0.09375 -2.609375 C 0.09375 -1.6875 -0.328125 -1.1875 -1.0625 -1.1875 C -1.0625 -1.1875 -6.390625 -1.1875 -6.390625 -1.1875 C -6.390625 -1.1875 -6.390625 -0.203125 -6.390625 -0.203125 C -6.390625 -0.203125 -7.34375 -0.203125 -7.34375 -0.203125 C -7.34375 -0.203125 -7.34375 -1.1875 -7.34375 -1.1875 C -7.34375 -1.1875 -9.359375 -1.1875 -9.359375 -1.1875 C -9.359375 -1.1875 -9.359375 -2.359375 -9.359375 -2.359375 C -9.359375 -2.359375 -7.34375 -2.359375 -7.34375 -2.359375 C -7.34375 -2.359375 -7.34375 -3.5625 -7.34375 -3.5625 C -7.34375 -3.5625 -6.390625 -3.5625 -6.390625 -3.5625 C -6.390625 -3.5625 -6.390625 -2.359375 -6.390625 -2.359375 C -6.390625 -2.359375 -1.578125 -2.359375 -1.578125 -2.359375 C -1.0625 -2.359375 -0.921875 -2.484375 -0.921875 -3 C -0.921875 -3.21875 -0.9375 -3.40625 -0.984375 -3.5625 C -0.984375 -3.5625 0 -3.5625 0 -3.5625 Z M 0 -3.5625 "/>
</g>
<g id="glyph-11-0-ece5cbd7">
<path d="M 0 -2.140625 C 0 -2.140625 0 -0.984375 0 -0.984375 C 0 -0.984375 -7.34375 -0.984375 -7.34375 -0.984375 C -7.34375 -0.984375 -7.34375 -2.140625 -7.34375 -2.140625 C -7.34375 -2.140625 0 -2.140625 0 -2.140625 Z M -8.4375 -2.296875 C -8.4375 -2.296875 -8.4375 -0.84375 -8.4375 -0.84375 C -8.4375 -0.84375 -9.890625 -0.84375 -9.890625 -0.84375 C -9.890625 -0.84375 -9.890625 -2.296875 -9.890625 -2.296875 C -9.890625 -2.296875 -8.4375 -2.296875 -8.4375 -2.296875 Z M -8.4375 -2.296875 "/>
</g>
<g id="glyph-12-0-ece5cbd7">
<path d="M -7.34375 -6.796875 C -7.34375 -6.796875 0 -3.984375 0 -3.984375 C 0 -3.984375 0 -2.71875 0 -2.71875 C 0 -2.71875 -7.34375 -0.140625 -7.34375 -0.140625 C -7.34375 -0.140625 -7.34375 -1.453125 -7.34375 -1.453125 C -7.34375 -1.453125 -1.390625 -3.421875 -1.390625 -3.421875 C -1.390625 -3.421875 -7.34375 -5.484375 -7.34375 -5.484375 C -7.34375 -5.484375 -7.34375 -6.796875 -7.34375 -6.796875 Z M -7.34375 -6.796875 "/>
</g>
<g id="glyph-12-1-ece5cbd7">
<path d="M -3.328125 -7.1875 C -3.328125 -7.1875 -3.328125 -1.78125 -3.328125 -1.78125 C -1.65625 -1.8125 -0.875 -2.71875 -0.875 -3.9375 C -0.875 -4.875 -1.265625 -5.53125 -2.21875 -5.859375 C -2.21875 -5.859375 -2.21875 -7.03125 -2.21875 -7.03125 C -0.734375 -6.734375 0.203125 -5.578125 0.203125 -3.890625 C 0.203125 -1.828125 -1.21875 -0.5625 -3.625 -0.5625 C -6.03125 -0.5625 -7.546875 -1.875 -7.546875 -3.921875 C -7.546875 -5.296875 -6.8125 -6.40625 -5.609375 -6.890625 C -5.0625 -7.09375 -4.390625 -7.1875 -3.328125 -7.1875 Z M -4.375 -5.9375 C -5.515625 -5.9375 -6.46875 -5.046875 -6.46875 -3.90625 C -6.46875 -2.734375 -5.59375 -1.90625 -4.28125 -1.8125 C -4.28125 -1.8125 -4.28125 -5.921875 -4.28125 -5.921875 C -4.3125 -5.9375 -4.375 -5.9375 -4.375 -5.9375 Z M -4.375 -5.9375 "/>
</g>
<g id="glyph-13-0-ece5cbd7">
</g>
<g id="glyph-14-0-ece5cbd7">
<path d="M 0 -10.65625 C 0 -10.65625 0 -9.421875 0 -9.421875 C 0 -9.421875 -8.546875 -9.421875 -8.546875 -9.421875 C -8.546875 -9.421875 0 -6.546875 0 -6.546875 C 0 -6.546875 0 -5.1875 0 -5.1875 C 0 -5.1875 -8.546875 -2.28125 -8.546875 -2.28125 C -8.546875 -2.28125 0 -2.28125 0 -2.28125 C 0 -2.28125 0 -1.046875 0 -1.046875 C 0 -1.046875 -10.203125 -1.046875 -10.203125 -1.046875 C -10.203125 -1.046875 -10.203125 -2.859375 -10.203125 -2.859375 C -10.203125 -2.859375 -1.3125 -5.875 -1.3125 -5.875 C -1.3125 -5.875 -10.203125 -8.84375 -10.203125 -8.84375 C -10.203125 -8.84375 -10.203125 -10.65625 -10.203125 -10.65625 C -10.203125 -10.65625 0 -10.65625 0 -10.65625 Z M 0 -10.65625 "/>
</g>
<g id="glyph-15-0-ece5cbd7">
<path d="M -0.03125 -7.484375 C 0.0625 -7.109375 0.09375 -6.9375 0.09375 -6.6875 C 0.09375 -6.125 -0.3125 -5.609375 -0.875 -5.484375 C -0.1875 -4.84375 0.203125 -3.9375 0.203125 -3 C 0.203125 -1.515625 -0.578125 -0.59375 -1.90625 -0.59375 C -2.796875 -0.59375 -3.453125 -1.015625 -3.8125 -1.875 C -3.984375 -2.328125 -4.046875 -2.578125 -4.25 -4.234375 C -4.375 -5.15625 -4.578125 -5.453125 -5.0625 -5.453125 C -5.0625 -5.453125 -5.375 -5.453125 -5.375 -5.453125 C -6.078125 -5.453125 -6.46875 -4.859375 -6.46875 -3.8125 C -6.46875 -2.71875 -6.0625 -2.1875 -5.171875 -2.09375 C -5.171875 -2.09375 -5.171875 -0.90625 -5.171875 -0.90625 C -6.859375 -0.984375 -7.546875 -2.078125 -7.546875 -3.84375 C -7.546875 -5.65625 -6.84375 -6.609375 -5.546875 -6.609375 C -5.546875 -6.609375 -1.453125 -6.609375 -1.453125 -6.609375 C -1.09375 -6.609375 -0.875 -6.828125 -0.875 -7.234375 C -0.875 -7.3125 -0.875 -7.359375 -0.90625 -7.484375 C -0.90625 -7.484375 -0.03125 -7.484375 -0.03125 -7.484375 Z M -2.53125 -5.453125 C -2.53125 -5.453125 -3.625 -5.453125 -3.625 -5.453125 C -3.4375 -5.046875 -3.390625 -4.796875 -3.21875 -3.5625 C -3.03125 -2.328125 -2.703125 -1.8125 -1.9375 -1.8125 C -1.140625 -1.8125 -0.8125 -2.34375 -0.8125 -3.25 C -0.8125 -4.375 -1.484375 -5.453125 -2.53125 -5.453125 Z M -2.53125 -5.453125 "/>
</g>
<g id="glyph-16-0-ece5cbd7">
<path d="M -2.0625 -6.421875 C -0.640625 -6.421875 0.203125 -5.25 0.203125 -3.40625 C 0.203125 -1.484375 -0.546875 -0.53125 -2.234375 -0.46875 C -2.234375 -0.46875 -2.234375 -1.703125 -2.234375 -1.703125 C -1.125 -1.859375 -0.875 -2.453125 -0.875 -3.5 C -0.875 -4.515625 -1.28125 -5.203125 -1.953125 -5.203125 C -2.484375 -5.203125 -2.734375 -4.890625 -2.921875 -4.078125 C -2.921875 -4.078125 -3.1875 -2.984375 -3.1875 -2.984375 C -3.609375 -1.25 -4.15625 -0.65625 -5.3125 -0.65625 C -6.65625 -0.65625 -7.546875 -1.765625 -7.546875 -3.46875 C -7.546875 -5.171875 -6.734375 -6.125 -5.296875 -6.125 C -5.296875 -6.125 -5.296875 -4.90625 -5.296875 -4.90625 C -6.0625 -4.875 -6.46875 -4.375 -6.46875 -3.4375 C -6.46875 -2.484375 -6.03125 -1.875 -5.359375 -1.875 C -4.84375 -1.875 -4.53125 -2.28125 -4.3125 -3.234375 C -4.3125 -3.234375 -4.046875 -4.359375 -4.046875 -4.359375 C -3.703125 -5.8125 -3.15625 -6.421875 -2.0625 -6.421875 Z M -2.0625 -6.421875 "/>
</g>
<g id="glyph-17-0-ece5cbd7">
<path d="M -2.0625 -6.421875 C -0.640625 -6.421875 0.203125 -5.25 0.203125 -3.40625 C 0.203125 -1.484375 -0.546875 -0.53125 -2.234375 -0.46875 C -2.234375 -0.46875 -2.234375 -1.703125 -2.234375 -1.703125 C -1.125 -1.859375 -0.875 -2.453125 -0.875 -3.5 C -0.875 -4.515625 -1.28125 -5.203125 -1.953125 -5.203125 C -2.484375 -5.203125 -2.734375 -4.890625 -2.921875 -4.078125 C -2.921875 -4.078125 -3.1875 -2.984375 -3.1875 -2.984375 C -3.609375 -1.25 -4.15625 -0.65625 -5.3125 -0.65625 C -6.65625 -0.65625 -7.546875 -1.765625 -7.546875 -3.46875 C -7.546875 -5.171875 -6.734375 -6.125 -5.296875 -6.125 C -5.296875 -6.125 -5.296875 -4.90625 -5.296875 -4.90625 C -6.0625 -4.875 -6.46875 -4.375 -6.46875 -3.4375 C -6.46875 -2.484375 -6.03125 -1.875 -5.359375 -1.875 C -4.84375 -1.875 -4.53125 -2.28125 -4.3125 -3.234375 C -4.3125 -3.234375 -4.046875 -4.359375 -4.046875 -4.359375 C -3.703125 -5.8125 -3.15625 -6.421875 -2.0625 -6.421875 Z M -2.0625 -6.421875 "/>
</g>
<g id="glyph-18-0-ece5cbd7">
<path d="M 6.078125 -4.09375 C 6.078125 -1.296875 5.09375 0.1875 3.296875 0.1875 C 1.46875 0.1875 0.515625 -1.296875 0.515625 -4.15625 C 0.515625 -7.015625 1.46875 -8.515625 3.296875 -8.515625 C 5.140625 -8.515625 6.078125 -7.046875 6.078125 -4.09375 Z M 5 -4.1875 C 5 -6.46875 4.4375 -7.578125 3.296875 -7.578125 C 2.15625 -7.578125 1.59375 -6.484375 1.59375 -4.15625 C 1.59375 -1.828125 2.15625 -0.703125 3.28125 -0.703125 C 4.453125 -0.703125 5 -1.78125 5 -4.1875 Z M 5 -4.1875 "/>
</g>
<g id="glyph-18-1-ece5cbd7">
<path d="M 6.109375 -4.453125 C 6.109375 -1.515625 5.046875 0.1875 3.046875 0.1875 C 1.75 0.1875 0.84375 -0.640625 0.640625 -2.046875 C 0.640625 -2.046875 1.6875 -2.046875 1.6875 -2.046875 C 1.859375 -1.21875 2.375 -0.75 3.125 -0.75 C 4.328125 -0.75 5 -1.90625 5.015625 -3.984375 C 4.46875 -3.328125 3.875 -3.03125 3.078125 -3.03125 C 1.53125 -3.03125 0.453125 -4.109375 0.453125 -5.6875 C 0.453125 -7.359375 1.625 -8.515625 3.234375 -8.515625 C 5.1875 -8.515625 6.109375 -7.109375 6.109375 -4.453125 Z M 4.953125 -5.71875 C 4.953125 -6.8125 4.21875 -7.578125 3.234375 -7.578125 C 2.25 -7.578125 1.53125 -6.859375 1.53125 -5.765625 C 1.53125 -4.625 2.171875 -3.96875 3.1875 -3.96875 C 4.21875 -3.96875 4.953125 -4.671875 4.953125 -5.71875 Z M 4.953125 -5.71875 "/>
</g>
<g id="glyph-18-2-ece5cbd7">
<path d="M 4.15625 0 C 4.15625 0 3.109375 0 3.109375 0 C 3.109375 0 3.109375 -6.0625 3.109375 -6.0625 C 3.109375 -6.0625 1.21875 -6.0625 1.21875 -6.0625 C 1.21875 -6.0625 1.21875 -6.8125 1.21875 -6.8125 C 2.859375 -7.015625 3.09375 -7.203125 3.46875 -8.515625 C 3.46875 -8.515625 4.15625 -8.515625 4.15625 -8.515625 C 4.15625 -8.515625 4.15625 0 4.15625 0 Z M 4.15625 0 "/>
</g>
<g id="glyph-19-0-ece5cbd7">
<path d="M 2.296875 0 C 2.296875 0 1.046875 0 1.046875 0 C 1.046875 0 1.046875 -1.25 1.046875 -1.25 C 1.046875 -1.25 2.296875 -1.25 2.296875 -1.25 C 2.296875 -1.25 2.296875 0 2.296875 0 Z M 2.296875 0 "/>
</g>
<g id="glyph-19-1-ece5cbd7">
<path d="M 6.109375 -4.453125 C 6.109375 -1.515625 5.046875 0.1875 3.046875 0.1875 C 1.75 0.1875 0.84375 -0.640625 0.640625 -2.046875 C 0.640625 -2.046875 1.6875 -2.046875 1.6875 -2.046875 C 1.859375 -1.21875 2.375 -0.75 3.125 -0.75 C 4.328125 -0.75 5 -1.90625 5.015625 -3.984375 C 4.46875 -3.328125 3.875 -3.03125 3.078125 -3.03125 C 1.53125 -3.03125 0.453125 -4.109375 0.453125 -5.6875 C 0.453125 -7.359375 1.625 -8.515625 3.234375 -8.515625 C 5.1875 -8.515625 6.109375 -7.109375 6.109375 -4.453125 Z M 4.953125 -5.71875 C 4.953125 -6.8125 4.21875 -7.578125 3.234375 -7.578125 C 2.25 -7.578125 1.53125 -6.859375 1.53125 -5.765625 C 1.53125 -4.625 2.171875 -3.96875 3.1875 -3.96875 C 4.21875 -3.96875 4.953125 -4.671875 4.953125 -5.71875 Z M 4.953125 -5.71875 "/>
</g>
<g id="glyph-19-2-ece5cbd7">
<path d="M 6.078125 -4.09375 C 6.078125 -1.296875 5.09375 0.1875 3.296875 0.1875 C 1.46875 0.1875 0.515625 -1.296875 0.515625 -4.15625 C 0.515625 -7.015625 1.46875 -8.515625 3.296875 -8.515625 C 5.140625 -8.515625 6.078125 -7.046875 6.078125 -4.09375 Z M 5 -4.1875 C 5 -6.46875 4.4375 -7.578125 3.296875 -7.578125 C 2.15625 -7.578125 1.59375 -6.484375 1.59375 -4.15625 C 1.59375 -1.828125 2.15625 -0.703125 3.28125 -0.703125 C 4.453125 -0.703125 5 -1.78125 5 -4.1875 Z M 5 -4.1875 "/>
</g>
<g id="glyph-20-0-ece5cbd7">
<path d="M 6.109375 -4.453125 C 6.109375 -1.515625 5.046875 0.1875 3.046875 0.1875 C 1.75 0.1875 0.84375 -0.640625 0.640625 -2.046875 C 0.640625 -2.046875 1.6875 -2.046875 1.6875 -2.046875 C 1.859375 -1.21875 2.375 -0.75 3.125 -0.75 C 4.328125 -0.75 5 -1.90625 5.015625 -3.984375 C 4.46875 -3.328125 3.875 -3.03125 3.078125 -3.03125 C 1.53125 -3.03125 0.453125 -4.109375 0.453125 -5.6875 C 0.453125 -7.359375 1.625 -8.515625 3.234375 -8.515625 C 5.1875 -8.515625 6.109375 -7.109375 6.109375 -4.453125 Z M 4.953125 -5.71875 C 4.953125 -6.8125 4.21875 -7.578125 3.234375 -7.578125 C 2.25 -7.578125 1.53125 -6.859375 1.53125 -5.765625 C 1.53125 -4.625 2.171875 -3.96875 3.1875 -3.96875 C 4.21875 -3.96875 4.953125 -4.671875 4.953125 -5.71875 Z M 4.953125 -5.71875 "/>
</g>
<g id="glyph-20-1-ece5cbd7">
<path d="M 6.078125 -4.09375 C 6.078125 -1.296875 5.09375 0.1875 3.296875 0.1875 C 1.46875 0.1875 0.515625 -1.296875 0.515625 -4.15625 C 0.515625 -7.015625 1.46875 -8.515625 3.296875 -8.515625 C 5.140625 -8.515625 6.078125 -7.046875 6.078125 -4.09375 Z M 5 -4.1875 C 5 -6.46875 4.4375 -7.578125 3.296875 -7.578125 C 2.15625 -7.578125 1.59375 -6.484375 1.59375 -4.15625 C 1.59375 -1.828125 2.15625 -0.703125 3.28125 -0.703125 C 4.453125 -0.703125 5 -1.78125 5 -4.1875 Z M 5 -4.1875 "/>
</g>
<g id="glyph-21-0-ece5cbd7">
<path d="M 6.109375 -4.453125 C 6.109375 -1.515625 5.046875 0.1875 3.046875 0.1875 C 1.75 0.1875 0.84375 -0.640625 0.640625 -2.046875 C 0.640625 -2.046875 1.6875 -2.046875 1.6875 -2.046875 C 1.859375 -1.21875 2.375 -0.75 3.125 -0.75 C 4.328125 -0.75 5 -1.90625 5.015625 -3.984375 C 4.46875 -3.328125 3.875 -3.03125 3.078125 -3.03125 C 1.53125 -3.03125 0.453125 -4.109375 0.453125 -5.6875 C 0.453125 -7.359375 1.625 -8.515625 3.234375 -8.515625 C 5.1875 -8.515625 6.109375 -7.109375 6.109375 -4.453125 Z M 4.953125 -5.71875 C 4.953125 -6.8125 4.21875 -7.578125 3.234375 -7.578125 C 2.25 -7.578125 1.53125 -6.859375 1.53125 -5.765625 C 1.53125 -4.625 2.171875 -3.96875 3.1875 -3.96875 C 4.21875 -3.96875 4.953125 -4.671875 4.953125 -5.71875 Z M 4.953125 -5.71875 "/>
</g>
<g id="glyph-21-1-ece5cbd7">
<path d="M 6.078125 -4.09375 C 6.078125 -1.296875 5.09375 0.1875 3.296875 0.1875 C 1.46875 0.1875 0.515625 -1.296875 0.515625 -4.15625 C 0.515625 -7.015625 1.46875 -8.515625 3.296875 -8.515625 C 5.140625 -8.515625 6.078125 -7.046875 6.078125 -4.09375 Z M 5 -4.1875 C 5 -6.46875 4.4375 -7.578125 3.296875 -7.578125 C 2.15625 -7.578125 1.59375 -6.484375 1.59375 -4.15625 C 1.59375 -1.828125 2.15625 -0.703125 3.28125 -0.703125 C 4.453125 -0.703125 5 -1.78125 5 -4.1875 Z M 5 -4.1875 "/>
</g>
<g id="glyph-22-0-ece5cbd7">
<path d="M 4.15625 0 C 4.15625 0 3.109375 0 3.109375 0 C 3.109375 0 3.109375 -6.0625 3.109375 -6.0625 C 3.109375 -6.0625 1.21875 -6.0625 1.21875 -6.0625 C 1.21875 -6.0625 1.21875 -6.8125 1.21875 -6.8125 C 2.859375 -7.015625 3.09375 -7.203125 3.46875 -8.515625 C 3.46875 -8.515625 4.15625 -8.515625 4.15625 -8.515625 C 4.15625 -8.515625 4.15625 0 4.15625 0 Z M 4.15625 0 "/>
</g>
<g id="glyph-22-1-ece5cbd7">
<path d="M 6.078125 -4.09375 C 6.078125 -1.296875 5.09375 0.1875 3.296875 0.1875 C 1.46875 0.1875 0.515625 -1.296875 0.515625 -4.15625 C 0.515625 -7.015625 1.46875 -8.515625 3.296875 -8.515625 C 5.140625 -8.515625 6.078125 -7.046875 6.078125 -4.09375 Z M 5 -4.1875 C 5 -6.46875 4.4375 -7.578125 3.296875 -7.578125 C 2.15625 -7.578125 1.59375 -6.484375 1.59375 -4.15625 C 1.59375 -1.828125 2.15625 -0.703125 3.28125 -0.703125 C 4.453125 -0.703125 5 -1.78125 5 -4.1875 Z M 5 -4.1875 "/>
</g>
<g id="glyph-23-0-ece5cbd7">
<path d="M 2.296875 0 C 2.296875 0 1.046875 0 1.046875 0 C 1.046875 0 1.046875 -1.25 1.046875 -1.25 C 1.046875 -1.25 2.296875 -1.25 2.296875 -1.25 C 2.296875 -1.25 2.296875 0 2.296875 0 Z M 2.296875 0 "/>
</g>
<g id="glyph-23-1-ece5cbd7">
<path d="M 4.15625 0 C 4.15625 0 3.109375 0 3.109375 0 C 3.109375 0 3.109375 -6.0625 3.109375 -6.0625 C 3.109375 -6.0625 1.21875 -6.0625 1.21875 -6.0625 C 1.21875 -6.0625 1.21875 -6.8125 1.21875 -6.8125 C 2.859375 -7.015625 3.09375 -7.203125 3.46875 -8.515625 C 3.46875 -8.515625 4.15625 -8.515625 4.15625 -8.515625 C 4.15625 -8.515625 4.15625 0 4.15625 0 Z M 4.15625 0 "/>
</g>
<g id="glyph-24-0-ece5cbd7">
<path d="M 6.078125 -4.09375 C 6.078125 -1.296875 5.09375 0.1875 3.296875 0.1875 C 1.46875 0.1875 0.515625 -1.296875 0.515625 -4.15625 C 0.515625 -7.015625 1.46875 -8.515625 3.296875 -8.515625 C 5.140625 -8.515625 6.078125 -7.046875 6.078125 -4.09375 Z M 5 -4.1875 C 5 -6.46875 4.4375 -7.578125 3.296875 -7.578125 C 2.15625 -7.578125 1.59375 -6.484375 1.59375 -4.15625 C 1.59375 -1.828125 2.15625 -0.703125 3.28125 -0.703125 C 4.453125 -0.703125 5 -1.78125 5 -4.1875 Z M 5 -4.1875 "/>
</g>
<g id="glyph-25-0-ece5cbd7">
<path d="M 6.078125 -4.09375 C 6.078125 -1.296875 5.09375 0.1875 3.296875 0.1875 C 1.46875 0.1875 0.515625 -1.296875 0.515625 -4.15625 C 0.515625 -7.015625 1.46875 -8.515625 3.296875 -8.515625 C 5.140625 -8.515625 6.078125 -7.046875 6.078125 -4.09375 Z M 5 -4.1875 C 5 -6.46875 4.4375 -7.578125 3.296875 -7.578125 C 2.15625 -7.578125 1.59375 -6.484375 1.59375 -4.15625 C 1.59375 -1.828125 2.15625 -0.703125 3.28125 -0.703125 C 4.453125 -0.703125 5 -1.78125 5 -4.1875 Z M 5 -4.1875 "/>
</g>
<g id="glyph-26-0-ece5cbd7">
<path d="M 7.46875 0 C 7.46875 0 1.125 0 1.125 0 C 1.125 0 1.125 -10.203125 1.125 -10.203125 C 1.125 -10.203125 2.421875 -10.203125 2.421875 -10.203125 C 2.421875 -10.203125 2.421875 -1.140625 2.421875 -1.140625 C 2.421875 -1.140625 7.46875 -1.140625 7.46875 -1.140625 C 7.46875 -1.140625 7.46875 0 7.46875 0 Z M 7.46875 0 "/>
</g>
<g id="glyph-26-1-ece5cbd7">
<path d="M 13 -10.203125 C 13 -10.203125 10.421875 0 10.421875 0 C 10.421875 0 8.984375 0 8.984375 0 C 8.984375 0 6.640625 -8.390625 6.640625 -8.390625 C 6.640625 -8.390625 4.359375 0 4.359375 0 C 4.359375 0 2.921875 0 2.921875 0 C 2.921875 0 0.3125 -10.203125 0.3125 -10.203125 C 0.3125 -10.203125 1.765625 -10.203125 1.765625 -10.203125 C 1.765625 -10.203125 3.6875 -1.921875 3.6875 -1.921875 C 3.6875 -1.921875 5.953125 -10.203125 5.953125 -10.203125 C 5.953125 -10.203125 7.34375 -10.203125 7.34375 -10.203125 C 7.34375 -10.203125 9.671875 -1.921875 9.671875 -1.921875 C 9.671875 -1.921875 11.546875 -10.203125 11.546875 -10.203125 C 11.546875 -10.203125 13 -10.203125 13 -10.203125 Z M 13 -10.203125 "/>
</g>
<g id="glyph-26-2-ece5cbd7">
<path d="M 10.65625 0 C 10.65625 0 9.421875 0 9.421875 0 C 9.421875 0 9.421875 -8.546875 9.421875 -8.546875 C 9.421875 -8.546875 6.546875 0 6.546875 0 C 6.546875 0 5.1875 0 5.1875 0 C 5.1875 0 2.28125 -8.546875 2.28125 -8.546875 C 2.28125 -8.546875 2.28125 0 2.28125 0 C 2.28125 0 1.046875 0 1.046875 0 C 1.046875 0 1.046875 -10.203125 1.046875 -10.203125 C 1.046875 -10.203125 2.859375 -10.203125 2.859375 -10.203125 C 2.859375 -10.203125 5.875 -1.3125 5.875 -1.3125 C 5.875 -1.3125 8.84375 -10.203125 8.84375 -10.203125 C 8.84375 -10.203125 10.65625 -10.203125 10.65625 -10.203125 C 10.65625 -10.203125 10.65625 0 10.65625 0 Z M 10.65625 0 "/>
</g>
<g id="glyph-26-3-ece5cbd7">
<path d="M 10.390625 -4.9375 C 10.390625 -1.953125 8.453125 0.25 5.453125 0.25 C 2.515625 0.25 0.53125 -1.828125 0.53125 -5.03125 C 0.53125 -8.21875 2.515625 -10.453125 5.453125 -10.453125 C 8.4375 -10.453125 10.390625 -8.234375 10.390625 -4.9375 Z M 9.09375 -4.96875 C 9.09375 -7.546875 7.65625 -9.3125 5.453125 -9.3125 C 3.296875 -9.3125 1.828125 -7.546875 1.828125 -5.03125 C 1.828125 -2.5 3.296875 -0.890625 5.453125 -0.890625 C 7.609375 -0.890625 9.09375 -2.5 9.09375 -4.96875 Z M 9.09375 -4.96875 "/>
</g>
<g id="glyph-26-4-ece5cbd7">
<path d="M 9.34375 -5.109375 C 9.34375 -1.9375 7.75 0 5.1875 0 C 5.1875 0 1.25 0 1.25 0 C 1.25 0 1.25 -10.203125 1.25 -10.203125 C 1.25 -10.203125 5.1875 -10.203125 5.1875 -10.203125 C 7.765625 -10.203125 9.34375 -8.28125 9.34375 -5.109375 Z M 8.03125 -5.09375 C 8.03125 -7.703125 6.96875 -9.0625 4.953125 -9.0625 C 4.953125 -9.0625 2.546875 -9.0625 2.546875 -9.0625 C 2.546875 -9.0625 2.546875 -1.140625 2.546875 -1.140625 C 2.546875 -1.140625 4.953125 -1.140625 4.953125 -1.140625 C 6.96875 -1.140625 8.03125 -2.515625 8.03125 -5.09375 Z M 8.03125 -5.09375 "/>
</g>
<g id="glyph-26-5-ece5cbd7">
<path d="M 9.5 0 C 9.5 0 7.921875 0 7.921875 0 C 7.734375 -0.421875 7.609375 -1.03125 7.625 -1.671875 C 7.625 -1.671875 7.640625 -2.578125 7.640625 -2.578125 C 7.65625 -3.84375 7.109375 -4.390625 5.96875 -4.390625 C 5.96875 -4.390625 2.609375 -4.390625 2.609375 -4.390625 C 2.609375 -4.390625 2.609375 0 2.609375 0 C 2.609375 0 1.296875 0 1.296875 0 C 1.296875 0 1.296875 -10.203125 1.296875 -10.203125 C 1.296875 -10.203125 6 -10.203125 6 -10.203125 C 8.015625 -10.203125 9.109375 -9.234375 9.109375 -7.46875 C 9.109375 -6.3125 8.65625 -5.59375 7.5 -5.046875 C 8.609375 -4.5625 8.859375 -4.0625 8.890625 -2.375 C 8.90625 -1.015625 9.015625 -0.65625 9.5 -0.328125 C 9.5 -0.328125 9.5 0 9.5 0 Z M 7.75 -7.296875 C 7.75 -8.4375 7.203125 -9.0625 5.75 -9.0625 C 5.75 -9.0625 2.609375 -9.0625 2.609375 -9.0625 C 2.609375 -9.0625 2.609375 -5.546875 2.609375 -5.546875 C 2.609375 -5.546875 5.75 -5.546875 5.75 -5.546875 C 7.140625 -5.546875 7.75 -6.09375 7.75 -7.296875 Z M 7.75 -7.296875 "/>
</g>
<g id="glyph-26-6-ece5cbd7">
<path d="M 9.21875 0 C 9.21875 0 7.671875 0 7.671875 0 C 7.671875 0 4.078125 -5.234375 4.078125 -5.234375 C 4.078125 -5.234375 2.40625 -3.5625 2.40625 -3.5625 C 2.40625 -3.5625 2.40625 0 2.40625 0 C 2.40625 0 1.109375 0 1.109375 0 C 1.109375 0 1.109375 -10.203125 1.109375 -10.203125 C 1.109375 -10.203125 2.40625 -10.203125 2.40625 -10.203125 C 2.40625 -10.203125 2.40625 -5.046875 2.40625 -5.046875 C 2.40625 -5.046875 7.484375 -10.203125 7.484375 -10.203125 C 7.484375 -10.203125 9.171875 -10.203125 9.171875 -10.203125 C 9.171875 -10.203125 5.015625 -6.046875 5.015625 -6.046875 C 5.015625 -6.046875 9.21875 0 9.21875 0 Z M 9.21875 0 "/>
</g>
<g id="glyph-26-7-ece5cbd7">
<path d="M 7.15625 -7.015625 C 7.15625 -5.796875 6.4375 -4.765625 5.046875 -4.015625 C 5.046875 -4.015625 3.65625 -3.265625 3.65625 -3.265625 C 2.4375 -2.546875 1.984375 -2.03125 1.859375 -1.21875 C 1.859375 -1.21875 7.078125 -1.21875 7.078125 -1.21875 C 7.078125 -1.21875 7.078125 0 7.078125 0 C 7.078125 0 0.46875 0 0.46875 0 C 0.59375 -2.1875 1.1875 -3.125 3.265625 -4.296875 C 3.265625 -4.296875 4.546875 -5.03125 4.546875 -5.03125 C 5.4375 -5.53125 5.890625 -6.203125 5.890625 -6.984375 C 5.890625 -8.046875 5.046875 -8.84375 3.9375 -8.84375 C 2.71875 -8.84375 2.03125 -8.140625 1.9375 -6.484375 C 1.9375 -6.484375 0.703125 -6.484375 0.703125 -6.484375 C 0.765625 -8.890625 1.953125 -9.921875 3.96875 -9.921875 C 5.859375 -9.921875 7.15625 -8.6875 7.15625 -7.015625 Z M 7.15625 -7.015625 "/>
</g>
<g id="glyph-26-8-ece5cbd7">
<path d="M 9.03125 -3.109375 C 9.03125 -1.0625 7.484375 0.25 5.09375 0.25 C 2.671875 0.25 1.1875 -1.03125 1.1875 -3.109375 C 1.1875 -3.109375 1.1875 -10.203125 1.1875 -10.203125 C 1.1875 -10.203125 2.484375 -10.203125 2.484375 -10.203125 C 2.484375 -10.203125 2.484375 -3.109375 2.484375 -3.109375 C 2.484375 -1.625 3.5625 -0.890625 5.09375 -0.890625 C 6.734375 -0.890625 7.734375 -1.734375 7.734375 -3.109375 C 7.734375 -3.109375 7.734375 -10.203125 7.734375 -10.203125 C 7.734375 -10.203125 9.03125 -10.203125 9.03125 -10.203125 C 9.03125 -10.203125 9.03125 -3.109375 9.03125 -3.109375 Z M 9.03125 -3.109375 "/>
</g>
<g id="glyph-26-9-ece5cbd7">
<path d="M 8.6875 -2.796875 C 8.6875 -0.984375 7.296875 0.25 4.703125 0.25 C 2.296875 0.25 0.671875 -0.90625 0.671875 -3.3125 C 0.671875 -3.3125 1.90625 -3.3125 1.90625 -3.3125 C 1.90625 -1.859375 2.859375 -0.890625 4.78125 -0.890625 C 6.546875 -0.890625 7.390625 -1.546875 7.390625 -2.671875 C 7.390625 -3.46875 6.796875 -3.984375 5.515625 -4.328125 C 5.515625 -4.328125 2.984375 -5 2.984375 -5 C 1.640625 -5.34375 0.984375 -6.125 0.984375 -7.375 C 0.984375 -9.21875 2.359375 -10.453125 4.609375 -10.453125 C 6.953125 -10.453125 8.34375 -9.296875 8.34375 -7.296875 C 8.34375 -7.296875 7.109375 -7.296875 7.109375 -7.296875 C 7.109375 -8.625 6.1875 -9.359375 4.5625 -9.359375 C 3.1875 -9.359375 2.28125 -8.59375 2.28125 -7.5625 C 2.28125 -6.78125 2.734375 -6.375 3.96875 -6.046875 C 3.96875 -6.046875 6.53125 -5.359375 6.53125 -5.359375 C 7.90625 -4.984375 8.6875 -4.0625 8.6875 -2.796875 Z M 8.6875 -2.796875 "/>
</g>
<g id="glyph-26-10-ece5cbd7">
<path d="M 9.484375 -3.71875 C 9.171875 -1.0625 7.765625 0.25 5.28125 0.25 C 2.28125 0.25 0.671875 -2 0.671875 -4.984375 C 0.671875 -7.96875 2.234375 -10.453125 5.328125 -10.453125 C 7.578125 -10.453125 8.859375 -9.28125 9.265625 -7.046875 C 9.265625 -7.046875 7.9375 -7.046875 7.9375 -7.046875 C 7.609375 -8.59375 6.78125 -9.3125 5.1875 -9.3125 C 3.203125 -9.3125 1.96875 -7.609375 1.96875 -5 C 1.96875 -2.453125 3.265625 -0.890625 5.296875 -0.890625 C 7.015625 -0.890625 7.828125 -1.796875 8.140625 -3.71875 C 8.140625 -3.71875 9.484375 -3.71875 9.484375 -3.71875 Z M 9.484375 -3.71875 "/>
</g>
<g id="glyph-26-11-ece5cbd7">
<path d="M 4.078125 2.96875 C 4.078125 2.96875 3.296875 2.96875 3.296875 2.96875 C 1.90625 1.140625 1.015625 -1.40625 1.015625 -3.625 C 1.015625 -5.828125 1.90625 -8.375 3.296875 -10.203125 C 3.296875 -10.203125 4.078125 -10.203125 4.078125 -10.203125 C 2.84375 -8.21875 2.15625 -5.859375 2.15625 -3.625 C 2.15625 -1.390625 2.84375 0.96875 4.078125 2.96875 Z M 4.078125 2.96875 "/>
</g>
<g id="glyph-26-12-ece5cbd7">
<path d="M 3.578125 -3.609375 C 3.578125 -1.40625 2.703125 1.140625 1.296875 2.96875 C 1.296875 2.96875 0.53125 2.96875 0.53125 2.96875 C 1.765625 0.984375 2.453125 -1.390625 2.453125 -3.609375 C 2.453125 -5.859375 1.765625 -8.203125 0.53125 -10.203125 C 0.53125 -10.203125 1.296875 -10.203125 1.296875 -10.203125 C 2.703125 -8.375 3.578125 -5.828125 3.578125 -3.609375 Z M 3.578125 -3.609375 "/>
</g>
<g id="glyph-27-0-ece5cbd7">
<path d="M 9.5 0 C 9.5 0 7.921875 0 7.921875 0 C 7.734375 -0.421875 7.609375 -1.03125 7.625 -1.671875 C 7.625 -1.671875 7.640625 -2.578125 7.640625 -2.578125 C 7.65625 -3.84375 7.109375 -4.390625 5.96875 -4.390625 C 5.96875 -4.390625 2.609375 -4.390625 2.609375 -4.390625 C 2.609375 -4.390625 2.609375 0 2.609375 0 C 2.609375 0 1.296875 0 1.296875 0 C 1.296875 0 1.296875 -10.203125 1.296875 -10.203125 C 1.296875 -10.203125 6 -10.203125 6 -10.203125 C 8.015625 -10.203125 9.109375 -9.234375 9.109375 -7.46875 C 9.109375 -6.3125 8.65625 -5.59375 7.5 -5.046875 C 8.609375 -4.5625 8.859375 -4.0625 8.890625 -2.375 C 8.90625 -1.015625 9.015625 -0.65625 9.5 -0.328125 C 9.5 -0.328125 9.5 0 9.5 0 Z M 7.75 -7.296875 C 7.75 -8.4375 7.203125 -9.0625 5.75 -9.0625 C 5.75 -9.0625 2.609375 -9.0625 2.609375 -9.0625 C 2.609375 -9.0625 2.609375 -5.546875 2.609375 -5.546875 C 2.609375 -5.546875 5.75 -5.546875 5.75 -5.546875 C 7.140625 -5.546875 7.75 -6.09375 7.75 -7.296875 Z M 7.75 -7.296875 "/>
</g>
<g id="glyph-27-1-ece5cbd7">
<path d="M 9.21875 0 C 9.21875 0 7.671875 0 7.671875 0 C 7.671875 0 4.078125 -5.234375 4.078125 -5.234375 C 4.078125 -5.234375 2.40625 -3.5625 2.40625 -3.5625 C 2.40625 -3.5625 2.40625 0 2.40625 0 C 2.40625 0 1.109375 0 1.109375 0 C 1.109375 0 1.109375 -10.203125 1.109375 -10.203125 C 1.109375 -10.203125 2.40625 -10.203125 2.40625 -10.203125 C 2.40625 -10.203125 2.40625 -5.046875 2.40625 -5.046875 C 2.40625 -5.046875 7.484375 -10.203125 7.484375 -10.203125 C 7.484375 -10.203125 9.171875 -10.203125 9.171875 -10.203125 C 9.171875 -10.203125 5.015625 -6.046875 5.015625 -6.046875 C 5.015625 -6.046875 9.21875 0 9.21875 0 Z M 9.21875 0 "/>
</g>
<g id="glyph-27-2-ece5cbd7">
<path d="M 7.15625 -7.015625 C 7.15625 -5.796875 6.4375 -4.765625 5.046875 -4.015625 C 5.046875 -4.015625 3.65625 -3.265625 3.65625 -3.265625 C 2.4375 -2.546875 1.984375 -2.03125 1.859375 -1.21875 C 1.859375 -1.21875 7.078125 -1.21875 7.078125 -1.21875 C 7.078125 -1.21875 7.078125 0 7.078125 0 C 7.078125 0 0.46875 0 0.46875 0 C 0.59375 -2.1875 1.1875 -3.125 3.265625 -4.296875 C 3.265625 -4.296875 4.546875 -5.03125 4.546875 -5.03125 C 5.4375 -5.53125 5.890625 -6.203125 5.890625 -6.984375 C 5.890625 -8.046875 5.046875 -8.84375 3.9375 -8.84375 C 2.71875 -8.84375 2.03125 -8.140625 1.9375 -6.484375 C 1.9375 -6.484375 0.703125 -6.484375 0.703125 -6.484375 C 0.765625 -8.890625 1.953125 -9.921875 3.96875 -9.921875 C 5.859375 -9.921875 7.15625 -8.6875 7.15625 -7.015625 Z M 7.15625 -7.015625 "/>
</g>
<g id="glyph-27-3-ece5cbd7">
<path d="M 10.65625 0 C 10.65625 0 9.421875 0 9.421875 0 C 9.421875 0 9.421875 -8.546875 9.421875 -8.546875 C 9.421875 -8.546875 6.546875 0 6.546875 0 C 6.546875 0 5.1875 0 5.1875 0 C 5.1875 0 2.28125 -8.546875 2.28125 -8.546875 C 2.28125 -8.546875 2.28125 0 2.28125 0 C 2.28125 0 1.046875 0 1.046875 0 C 1.046875 0 1.046875 -10.203125 1.046875 -10.203125 C 1.046875 -10.203125 2.859375 -10.203125 2.859375 -10.203125 C 2.859375 -10.203125 5.875 -1.3125 5.875 -1.3125 C 5.875 -1.3125 8.84375 -10.203125 8.84375 -10.203125 C 8.84375 -10.203125 10.65625 -10.203125 10.65625 -10.203125 C 10.65625 -10.203125 10.65625 0 10.65625 0 Z M 10.65625 0 "/>
</g>
<g id="glyph-27-4-ece5cbd7">
<path d="M 9.03125 -3.109375 C 9.03125 -1.0625 7.484375 0.25 5.09375 0.25 C 2.671875 0.25 1.1875 -1.03125 1.1875 -3.109375 C 1.1875 -3.109375 1.1875 -10.203125 1.1875 -10.203125 C 1.1875 -10.203125 2.484375 -10.203125 2.484375 -10.203125 C 2.484375 -10.203125 2.484375 -3.109375 2.484375 -3.109375 C 2.484375 -1.625 3.5625 -0.890625 5.09375 -0.890625 C 6.734375 -0.890625 7.734375 -1.734375 7.734375 -3.109375 C 7.734375 -3.109375 7.734375 -10.203125 7.734375 -10.203125 C 7.734375 -10.203125 9.03125 -10.203125 9.03125 -10.203125 C 9.03125 -10.203125 9.03125 -3.109375 9.03125 -3.109375 Z M 9.03125 -3.109375 "/>
</g>
<g id="glyph-27-5-ece5cbd7">
<path d="M 8.6875 -2.796875 C 8.6875 -0.984375 7.296875 0.25 4.703125 0.25 C 2.296875 0.25 0.671875 -0.90625 0.671875 -3.3125 C 0.671875 -3.3125 1.90625 -3.3125 1.90625 -3.3125 C 1.90625 -1.859375 2.859375 -0.890625 4.78125 -0.890625 C 6.546875 -0.890625 7.390625 -1.546875 7.390625 -2.671875 C 7.390625 -3.46875 6.796875 -3.984375 5.515625 -4.328125 C 5.515625 -4.328125 2.984375 -5 2.984375 -5 C 1.640625 -5.34375 0.984375 -6.125 0.984375 -7.375 C 0.984375 -9.21875 2.359375 -10.453125 4.609375 -10.453125 C 6.953125 -10.453125 8.34375 -9.296875 8.34375 -7.296875 C 8.34375 -7.296875 7.109375 -7.296875 7.109375 -7.296875 C 7.109375 -8.625 6.1875 -9.359375 4.5625 -9.359375 C 3.1875 -9.359375 2.28125 -8.59375 2.28125 -7.5625 C 2.28125 -6.78125 2.734375 -6.375 3.96875 -6.046875 C 3.96875 -6.046875 6.53125 -5.359375 6.53125 -5.359375 C 7.90625 -4.984375 8.6875 -4.0625 8.6875 -2.796875 Z M 8.6875 -2.796875 "/>
</g>
<g id="glyph-27-6-ece5cbd7">
<path d="M 9.484375 -3.71875 C 9.171875 -1.0625 7.765625 0.25 5.28125 0.25 C 2.28125 0.25 0.671875 -2 0.671875 -4.984375 C 0.671875 -7.96875 2.234375 -10.453125 5.328125 -10.453125 C 7.578125 -10.453125 8.859375 -9.28125 9.265625 -7.046875 C 9.265625 -7.046875 7.9375 -7.046875 7.9375 -7.046875 C 7.609375 -8.59375 6.78125 -9.3125 5.1875 -9.3125 C 3.203125 -9.3125 1.96875 -7.609375 1.96875 -5 C 1.96875 -2.453125 3.265625 -0.890625 5.296875 -0.890625 C 7.015625 -0.890625 7.828125 -1.796875 8.140625 -3.71875 C 8.140625 -3.71875 9.484375 -3.71875 9.484375 -3.71875 Z M 9.484375 -3.71875 "/>
</g>
<g id="glyph-27-7-ece5cbd7">
<path d="M 7.46875 0 C 7.46875 0 1.125 0 1.125 0 C 1.125 0 1.125 -10.203125 1.125 -10.203125 C 1.125 -10.203125 2.421875 -10.203125 2.421875 -10.203125 C 2.421875 -10.203125 2.421875 -1.140625 2.421875 -1.140625 C 2.421875 -1.140625 7.46875 -1.140625 7.46875 -1.140625 C 7.46875 -1.140625 7.46875 0 7.46875 0 Z M 7.46875 0 "/>
</g>
<g id="glyph-27-8-ece5cbd7">
<path d="M 10.390625 -4.9375 C 10.390625 -1.953125 8.453125 0.25 5.453125 0.25 C 2.515625 0.25 0.53125 -1.828125 0.53125 -5.03125 C 0.53125 -8.21875 2.515625 -10.453125 5.453125 -10.453125 C 8.4375 -10.453125 10.390625 -8.234375 10.390625 -4.9375 Z M 9.09375 -4.96875 C 9.09375 -7.546875 7.65625 -9.3125 5.453125 -9.3125 C 3.296875 -9.3125 1.828125 -7.546875 1.828125 -5.03125 C 1.828125 -2.5 3.296875 -0.890625 5.453125 -0.890625 C 7.609375 -0.890625 9.09375 -2.5 9.09375 -4.96875 Z M 9.09375 -4.96875 "/>
</g>
<g id="glyph-27-9-ece5cbd7">
<path d="M 9.34375 -5.109375 C 9.34375 -1.9375 7.75 0 5.1875 0 C 5.1875 0 1.25 0 1.25 0 C 1.25 0 1.25 -10.203125 1.25 -10.203125 C 1.25 -10.203125 5.1875 -10.203125 5.1875 -10.203125 C 7.765625 -10.203125 9.34375 -8.28125 9.34375 -5.109375 Z M 8.03125 -5.09375 C 8.03125 -7.703125 6.96875 -9.0625 4.953125 -9.0625 C 4.953125 -9.0625 2.546875 -9.0625 2.546875 -9.0625 C 2.546875 -9.0625 2.546875 -1.140625 2.546875 -1.140625 C 2.546875 -1.140625 4.953125 -1.140625 4.953125 -1.140625 C 6.96875 -1.140625 8.03125 -2.515625 8.03125 -5.09375 Z M 8.03125 -5.09375 "/>
</g>
<g id="glyph-27-10-ece5cbd7">
<path d="M 4.078125 2.96875 C 4.078125 2.96875 3.296875 2.96875 3.296875 2.96875 C 1.90625 1.140625 1.015625 -1.40625 1.015625 -3.625 C 1.015625 -5.828125 1.90625 -8.375 3.296875 -10.203125 C 3.296875 -10.203125 4.078125 -10.203125 4.078125 -10.203125 C 2.84375 -8.21875 2.15625 -5.859375 2.15625 -3.625 C 2.15625 -1.390625 2.84375 0.96875 4.078125 2.96875 Z M 4.078125 2.96875 "/>
</g>
<g id="glyph-27-11-ece5cbd7">
<path d="M 4.859375 0 C 4.859375 0 3.625 0 3.625 0 C 3.625 0 3.625 -7.0625 3.625 -7.0625 C 3.625 -7.0625 1.421875 -7.0625 1.421875 -7.0625 C 1.421875 -7.0625 1.421875 -7.953125 1.421875 -7.953125 C 3.328125 -8.1875 3.609375 -8.40625 4.046875 -9.921875 C 4.046875 -9.921875 4.859375 -9.921875 4.859375 -9.921875 C 4.859375 -9.921875 4.859375 0 4.859375 0 Z M 4.859375 0 "/>
</g>
<g id="glyph-27-12-ece5cbd7">
<path d="M 3.578125 -3.609375 C 3.578125 -1.40625 2.703125 1.140625 1.296875 2.96875 C 1.296875 2.96875 0.53125 2.96875 0.53125 2.96875 C 1.765625 0.984375 2.453125 -1.390625 2.453125 -3.609375 C 2.453125 -5.859375 1.765625 -8.203125 0.53125 -10.203125 C 0.53125 -10.203125 1.296875 -10.203125 1.296875 -10.203125 C 2.703125 -8.375 3.578125 -5.828125 3.578125 -3.609375 Z M 3.578125 -3.609375 "/>
</g>
</g>
<clipPath id="clip-0-ece5cbd7">
<path clip-rule="nonzero" d="M 83 204 L 684 204 L 684 208 L 83 208 Z M 83 204 "/>
</clipPath>
<clipPath id="clip-1-ece5cbd7">
<path clip-rule="nonzero" d="M 83 67 L 684 67 L 684 354 L 83 354 Z M 83 67 "/>
</clipPath>
<clipPath id="clip-2-ece5cbd7">
<path clip-rule="nonzero" d="M 83 198 L 684 198 L 684 216 L 83 216 Z M 83 198 "/>
</clipPath>
<clipPath id="clip-3-ece5cbd7">
<path clip-rule="nonzero" d="M 83 91 L 684 91 L 684 424 L 83 424 Z M 83 91 "/>
</clipPath>
<clipPath id="clip-4-ece5cbd7">
<path clip-rule="nonzero" d="M 83 30 L 684 30 L 684 480 L 83 480 Z M 83 30 "/>
</clipPath>
<clipPath id="clip-5-ece5cbd7">
<path clip-rule="nonzero" d="M 83 140 L 684 140 L 684 431 L 83 431 Z M 83 140 "/>
</clipPath>
</defs>
<rect x="-70" y="-55" width="840" height="660" fill="rgb(100%, 100%, 100%)" fill-opacity="1"/>
<path fill-rule="nonzero" fill="rgb(100%, 100%, 100%)" fill-opacity="1" d="M 83 494 L 684 494 L 684 16 L 83 16 Z M 83 494 "/>
<path fill="none" stroke-width="1" stroke-linecap="butt" stroke-linejoin="miter" stroke="rgb(0%, 0%, 0%)" stroke-opacity="0.12" stroke-miterlimit="1.154701" d="M 83 494 L 83 16 "/>
<path fill="none" stroke-width="1" stroke-linecap="butt" stroke-linejoin="miter" stroke="rgb(0%, 0%, 0%)" stroke-opacity="0.12" stroke-miterlimit="1.154701" d="M 383.5 494 L 383.5 16 "/>
<path fill="none" stroke-width="1" stroke-linecap="butt" stroke-linejoin="miter" stroke="rgb(0%, 0%, 0%)" stroke-opacity="0.12" stroke-miterlimit="1.154701" d="M 684 494 L 684 16 "/>
<path fill="none" stroke-width="1" stroke-linecap="butt" stroke-linejoin="miter" stroke="rgb(0%, 0%, 0%)" stroke-opacity="0.12" stroke-miterlimit="1.154701" d="M 83 377.886719 L 684 377.886719 "/>
<path fill="none" stroke-width="1" stroke-linecap="butt" stroke-linejoin="miter" stroke="rgb(0%, 0%, 0%)" stroke-opacity="0.12" stroke-miterlimit="1.154701" d="M 83 206.171875 L 684 206.171875 "/>
<path fill="none" stroke-width="1" stroke-linecap="butt" stroke-linejoin="miter" stroke="rgb(0%, 0%, 0%)" stroke-opacity="0.12" stroke-miterlimit="1.154701" d="M 83 34.453125 L 684 34.453125 "/>
<g fill="rgb(0%, 0%, 0%)" fill-opacity="1">
<use xlink:href="#glyph-0-0-ece5cbd7" x="359.392002" y="532.238"/>
</g>
<g fill="rgb(0%, 0%, 0%)" fill-opacity="1">
<use xlink:href="#glyph-0-1-ece5cbd7" x="367.946002" y="532.238"/>
</g>
<g fill="rgb(0%, 0%, 0%)" fill-opacity="1">
<use xlink:href="#glyph-1-0-ece5cbd7" x="371.054002" y="532.238"/>
</g>
<g fill="rgb(0%, 0%, 0%)" fill-opacity="1">
<use xlink:href="#glyph-1-1-ece5cbd7" x="382.716002" y="532.238"/>
</g>
<g fill="rgb(0%, 0%, 0%)" fill-opacity="1">
<use xlink:href="#glyph-2-0-ece5cbd7" x="390.500002" y="532.238"/>
</g>
<g fill="rgb(0%, 0%, 0%)" fill-opacity="1">
<use xlink:href="#glyph-1-2-ece5cbd7" x="394.392002" y="532.238"/>
</g>
<g fill="rgb(0%, 0%, 0%)" fill-opacity="1">
<use xlink:href="#glyph-3-0-ece5cbd7" x="399.054001" y="532.238"/>
</g>
<g fill="rgb(0%, 0%, 0%)" fill-opacity="1">
<use xlink:href="#glyph-1-3-ece5cbd7" x="402.945999" y="532.238"/>
</g>
<g fill="rgb(0%, 0%, 0%)" fill-opacity="1">
<use xlink:href="#glyph-4-0-ece5cbd7" x="79.664" y="513.364"/>
</g>
<g fill="rgb(0%, 0%, 0%)" fill-opacity="1">
<use xlink:href="#glyph-5-0-ece5cbd7" x="380.164" y="513.364"/>
</g>
<g fill="rgb(0%, 0%, 0%)" fill-opacity="1">
<use xlink:href="#glyph-5-1-ece5cbd7" x="677.328" y="513.364"/>
</g>
<g fill="rgb(0%, 0%, 0%)" fill-opacity="1">
<use xlink:href="#glyph-5-2-ece5cbd7" x="684" y="513.364"/>
</g>
<g fill="rgb(0%, 0%, 0%)" fill-opacity="1">
<use xlink:href="#glyph-6-0-ece5cbd7" x="28.251995" y="298.952995"/>
</g>
<g fill="rgb(0%, 0%, 0%)" fill-opacity="1">
<use xlink:href="#glyph-7-0-ece5cbd7" x="28.251995" y="288.844997"/>
</g>
<g fill="rgb(0%, 0%, 0%)" fill-opacity="1">
<use xlink:href="#glyph-8-0-ece5cbd7" x="28.251996" y="281.060997"/>
</g>
<g fill="rgb(0%, 0%, 0%)" fill-opacity="1">
<use xlink:href="#glyph-9-0-ece5cbd7" x="28.251996" y="277.952997"/>
</g>
<g fill="rgb(0%, 0%, 0%)" fill-opacity="1">
<use xlink:href="#glyph-10-0-ece5cbd7" x="28.251996" y="270.168998"/>
</g>
<g fill="rgb(0%, 0%, 0%)" fill-opacity="1">
<use xlink:href="#glyph-11-0-ece5cbd7" x="28.251997" y="266.276999"/>
</g>
<g fill="rgb(0%, 0%, 0%)" fill-opacity="1">
<use xlink:href="#glyph-12-0-ece5cbd7" x="28.251997" y="263.168998"/>
</g>
<g fill="rgb(0%, 0%, 0%)" fill-opacity="1">
<use xlink:href="#glyph-12-1-ece5cbd7" x="28.251997" y="256.168998"/>
</g>
<g fill="rgb(0%, 0%, 0%)" fill-opacity="1">
<use xlink:href="#glyph-13-0-ece5cbd7" x="28.251998" y="248.384999"/>
</g>
<g fill="rgb(0%, 0%, 0%)" fill-opacity="1">
<use xlink:href="#glyph-14-0-ece5cbd7" x="28.251998" y="244.493001"/>
</g>
<g fill="rgb(0%, 0%, 0%)" fill-opacity="1">
<use xlink:href="#glyph-15-0-ece5cbd7" x="28.251999" y="232.830999"/>
</g>
<g fill="rgb(0%, 0%, 0%)" fill-opacity="1">
<use xlink:href="#glyph-16-0-ece5cbd7" x="28.251999" y="225.047003"/>
</g>
<g fill="rgb(0%, 0%, 0%)" fill-opacity="1">
<use xlink:href="#glyph-17-0-ece5cbd7" x="28.251999" y="218.047005"/>
</g>
<g fill="rgb(0%, 0%, 0%)" fill-opacity="1">
<use xlink:href="#glyph-18-0-ece5cbd7" x="36.303997" y="382.260887"/>
</g>
<g fill="rgb(0%, 0%, 0%)" fill-opacity="1">
<use xlink:href="#glyph-19-0-ece5cbd7" x="42.975998" y="382.260887"/>
</g>
<g fill="rgb(0%, 0%, 0%)" fill-opacity="1">
<use xlink:href="#glyph-20-0-ece5cbd7" x="46.311996" y="382.260887"/>
</g>
<g fill="rgb(0%, 0%, 0%)" fill-opacity="1">
<use xlink:href="#glyph-21-0-ece5cbd7" x="52.983997" y="382.260887"/>
</g>
<g fill="rgb(0%, 0%, 0%)" fill-opacity="1">
<use xlink:href="#glyph-18-1-ece5cbd7" x="59.655998" y="382.260887"/>
</g>
<g fill="rgb(0%, 0%, 0%)" fill-opacity="1">
<use xlink:href="#glyph-19-1-ece5cbd7" x="66.327999" y="382.260887"/>
</g>
<g fill="rgb(0%, 0%, 0%)" fill-opacity="1">
<use xlink:href="#glyph-18-2-ece5cbd7" x="36.303997" y="210.54438"/>
</g>
<g fill="rgb(0%, 0%, 0%)" fill-opacity="1">
<use xlink:href="#glyph-19-0-ece5cbd7" x="42.975998" y="210.54438"/>
</g>
<g fill="rgb(0%, 0%, 0%)" fill-opacity="1">
<use xlink:href="#glyph-20-1-ece5cbd7" x="46.311996" y="210.54438"/>
</g>
<g fill="rgb(0%, 0%, 0%)" fill-opacity="1">
<use xlink:href="#glyph-21-1-ece5cbd7" x="52.983997" y="210.54438"/>
</g>
<g fill="rgb(0%, 0%, 0%)" fill-opacity="1">
<use xlink:href="#glyph-18-0-ece5cbd7" x="59.655998" y="210.54438"/>
</g>
<g fill="rgb(0%, 0%, 0%)" fill-opacity="1">
<use xlink:href="#glyph-19-2-ece5cbd7" x="66.327999" y="210.54438"/>
</g>
<g fill="rgb(0%, 0%, 0%)" fill-opacity="1">
<use xlink:href="#glyph-22-0-ece5cbd7" x="36.303997" y="38.827857"/>
</g>
<g fill="rgb(0%, 0%, 0%)" fill-opacity="1">
<use xlink:href="#glyph-23-0-ece5cbd7" x="42.975998" y="38.827857"/>
</g>
<g fill="rgb(0%, 0%, 0%)" fill-opacity="1">
<use xlink:href="#glyph-24-0-ece5cbd7" x="46.311996" y="38.827857"/>
</g>
<g fill="rgb(0%, 0%, 0%)" fill-opacity="1">
<use xlink:href="#glyph-25-0-ece5cbd7" x="52.983997" y="38.827857"/>
</g>
<g fill="rgb(0%, 0%, 0%)" fill-opacity="1">
<use xlink:href="#glyph-22-1-ece5cbd7" x="59.655998" y="38.827857"/>
</g>
<g fill="rgb(0%, 0%, 0%)" fill-opacity="1">
<use xlink:href="#glyph-23-1-ece5cbd7" x="66.327999" y="38.827857"/>
</g>
<g clip-path="url(#clip-0-ece5cbd7)">
<path fill="none" stroke-width="2.5" stroke-linecap="butt" stroke-linejoin="miter" stroke="rgb(100%, 0%, 0%)" stroke-opacity="1" stroke-miterlimit="2" d="M 83 206.171875 L 684 206.171875 "/>
</g>
<g clip-path="url(#clip-1-ece5cbd7)">
<path fill="none" stroke-width="2.5" stroke-linecap="butt" stroke-linejoin="miter" stroke="rgb(0%, 0%, 100%)" stroke-opacity="1" stroke-dasharray="7.5 5" stroke-miterlimit="2" d="M 83 206.171875 L 95.144531 184.445313 L 107.289063 165.449219 L 119.433594 157.121094 L 131.578125 163.339844 L 143.722656 183.800781 L 155.871094 213.054688 L 168.015625 241.683594 L 180.160156 259.597656 L 192.304688 259.964844 L 204.449219 242.074219 L 216.59375 211.90625 L 228.738281 179.800781 L 240.882813 156.355469 L 253.027344 148.449219 L 265.171875 157.191406 L 277.320313 178.757813 L 289.464844 207.25 L 301.609375 237.679688 L 313.753906 267.3125 L 325.898438 294.9375 L 338.042969 319.3125 L 350.1875 337.839844 L 362.332031 346.726563 L 374.476563 342.308594 L 386.621094 322.796875 L 398.769531 289.457031 L 410.914063 246.488281 L 423.058594 199.796875 L 435.203125 155.378906 L 447.347656 118.148438 L 459.492188 91.394531 L 471.636719 76.726563 L 483.78125 74.238281 L 495.925781 82.621094 L 508.070313 99.351563 L 520.21875 121.308594 L 532.363281 145.832031 L 544.507813 171.441406 L 556.652344 197.6875 L 568.796875 224.210938 L 580.941406 249.6875 L 593.085938 271.535156 L 605.230469 286.742188 L 617.375 293.242188 L 629.519531 290.777344 L 641.667969 280.640625 L 653.8125 264.582031 L 665.957031 243.964844 L 678.101563 220.003906 L 684 207.742188 "/>
</g>
<g clip-path="url(#clip-2-ece5cbd7)">
<path fill="none" stroke-width="2.5" stroke-linecap="butt" stroke-linejoin="miter" stroke="rgb(0%, 50.196081%, 0%)" stroke-opacity="1" stroke-dasharray="7.5 7.5" stroke-miterlimit="2" d="M 83 206.171875 L 167.980469 206.171875 L 180.121094 206.175781 L 192.261719 206.167969 L 204.402344 206.164063 L 216.539063 206.15625 L 228.679688 206.132813 L 240.820313 206.082031 L 252.960938 205.988281 L 265.101563 205.835938 L 277.242188 205.621094 L 289.378906 205.371094 L 301.519531 205.164063 L 313.660156 205.121094 L 325.800781 205.367188 L 337.941406 205.957031 L 350.082031 206.820313 L 362.222656 207.730469 L 374.359375 208.390625 L 386.5 208.558594 L 398.640625 208.160156 L 410.78125 207.351563 L 422.921875 206.414063 L 435.0625 205.636719 L 447.203125 205.191406 L 459.339844 205.089844 L 471.480469 205.230469 L 483.621094 205.480469 L 495.761719 205.726563 L 507.902344 205.921875 L 520.042969 206.042969 L 532.179688 206.113281 L 544.320313 205.851563 L 556.460938 206.160156 L 580.742188 206.175781 L 592.882813 206.171875 L 684 206.171875 "/>
<path fill="none" stroke-width="2.5" stroke-linecap="butt" stroke-linejoin="miter" stroke="rgb(100%, 64.705884%, 0%)" stroke-opacity="1" stroke-dasharray="7.5 5 2.5 5" stroke-miterlimit="2" d="M 83 206.171875 L 167.980469 206.171875 L 180.121094 206.175781 L 192.261719 206.167969 L 204.402344 206.164063 L 216.539063 206.15625 L 228.679688 206.132813 L 240.820313 206.082031 L 252.960938 205.988281 L 265.101563 205.835938 L 277.242188 205.621094 L 289.378906 205.371094 L 301.519531 205.164063 L 313.660156 205.121094 L 325.800781 205.367188 L 337.941406 205.957031 L 350.082031 206.820313 L 362.222656 207.730469 L 374.359375 208.390625 L 386.5 208.558594 L 398.640625 208.160156 L 410.78125 207.351563 L 422.921875 206.414063 L 435.0625 205.636719 L 447.203125 205.191406 L 459.339844 205.089844 L 471.480469 205.230469 L 483.621094 205.480469 L 495.761719 205.726563 L 507.902344 205.921875 L 520.042969 206.042969 L 532.179688 206.113281 L 544.320313 205.851563 L 556.460938 206.160156 L 580.742188 206.175781 L 592.882813 206.171875 L 684 206.171875 "/>
</g>
<g clip-path="url(#clip-3-ece5cbd7)">
<path fill="none" stroke-width="2.5" stroke-linecap="butt" stroke-linejoin="miter" stroke="rgb(50.196081%, 0%, 50.196081%)" stroke-opacity="1" stroke-dasharray="7.5 7.5 2.5 7.5" stroke-miterlimit="2" d="M 83 206.171875 L 95.230469 207.660156 L 107.460938 221.390625 L 119.691406 244.015625 L 131.921875 267.984375 L 144.152344 284.394531 L 156.382813 286.890625 L 168.613281 274.652344 L 180.84375 253.460938 L 193.074219 233.226563 L 205.304688 223.851563 L 217.535156 230.636719 L 229.765625 253.183594 L 241.996094 286.371094 L 254.226563 323.582031 L 266.457031 359.421875 L 278.6875 389.773438 L 290.917969 410.5625 L 303.148438 416.65625 L 315.378906 402.539063 L 327.609375 365.007813 L 339.839844 306.300781 L 352.070313 235.628906 L 364.300781 167.761719 L 376.53125 118.371094 L 388.761719 98.976563 L 400.992188 112.679688 L 413.222656 152.988281 L 425.453125 206.25 L 437.683594 256.316406 L 449.914063 289.550781 L 462.144531 298.753906 L 474.375 284.636719 L 486.605469 254.632813 L 498.835938 219.980469 L 511.066406 191.691406 L 523.296875 177.257813 L 535.527344 179.09375 L 547.757813 194.828125 L 559.988281 219.082031 L 572.21875 245.609375 L 584.449219 268.804688 L 596.679688 284.675781 L 608.910156 291.121094 L 621.140625 287.765625 L 633.371094 275.660156 L 645.601563 257.242188 L 657.832031 236.261719 L 670.0625 217.605469 L 682.292969 206.511719 L 684 205.824219 "/>
</g>
<g clip-path="url(#clip-4-ece5cbd7)">
<path fill="none" stroke-width="2.5" stroke-linecap="butt" stroke-linejoin="miter" stroke="rgb(64.705884%, 16.470589%, 16.470589%)" stroke-opacity="1" stroke-dasharray="2.5 2.5" stroke-miterlimit="2" d="M 83 206.171875 L 95.042969 174.515625 L 107.085938 146.902344 L 119.125 130.15625 L 131.167969 125.167969 L 143.210938 129.601563 L 155.253906 138.964844 L 167.292969 148.628906 L 179.335938 155.652344 L 191.378906 159.5 L 203.421875 161.636719 L 215.460938 163.65625 L 227.503906 165.191406 L 239.546875 163.621094 L 251.589844 155.269531 L 263.632813 138.691406 L 275.671875 117.828125 L 287.714844 103.335938 L 299.757813 108.617188 L 311.800781 144.109375 L 323.839844 210.246094 L 335.882813 295.855469 L 347.925781 380.867188 L 359.96875 444.371094 L 372.011719 472.273438 L 384.050781 464.550781 L 396.09375 427.960938 L 408.136719 375.976563 L 420.179688 319.496094 L 432.21875 263.421875 L 444.261719 207.703125 L 456.304688 151.605469 L 468.347656 98.402344 L 480.386719 56.589844 L 492.429688 37.726563 L 504.472656 50.496094 L 516.515625 95.195313 L 528.558594 161.761719 L 540.597656 233.101563 L 552.640625 291.664063 L 564.683594 326.582031 L 576.726563 337.175781 L 588.765625 331.097656 L 600.808594 319.101563 L 612.851563 309.210938 L 624.894531 303.296875 L 636.9375 297.789063 L 648.976563 287.105469 L 661.019531 267.375 L 673.0625 238.550781 L 684 207.757813 "/>
</g>
<g clip-path="url(#clip-5-ece5cbd7)">
<path fill="none" stroke-width="2.5" stroke-linecap="butt" stroke-linejoin="miter" stroke="rgb(0%, 100%, 100%)" stroke-opacity="1" stroke-dasharray="2.5 5" stroke-miterlimit="2" d="M 83 206.171875 L 94.949219 165.730469 L 106.898438 151.601563 L 118.84375 169.5625 L 130.792969 213.621094 L 142.742188 270.25 L 154.691406 324.035156 L 166.640625 363.367188 L 178.589844 384.003906 L 190.535156 388.910156 L 202.484375 384.996094 L 214.433594 379.859375 L 226.382813 377.972656 L 238.332031 380.601563 L 250.28125 385.140625 L 262.226563 387.082031 L 274.175781 381.59375 L 286.125 365.402344 L 298.074219 338.542969 L 310.023438 304.761719 L 321.96875 271.058594 L 333.917969 244.917969 L 345.867188 231.273438 L 357.816406 229.996094 L 369.765625 235.636719 L 381.714844 239.578125 L 393.660156 233.914063 L 405.609375 215.363281 L 417.558594 187.511719 L 429.507813 160.503906 L 441.457031 147.65625 L 453.40625 159.859375 L 465.351563 200.738281 L 477.300781 263.667969 L 489.25 333.519531 L 501.199219 391.761719 L 513.148438 423.34375 L 525.09375 422.402344 L 537.042969 393.976563 L 548.992188 351.472656 L 560.941406 311.390625 L 572.890625 287.402344 L 584.839844 286.980469 L 596.785156 305.773438 L 608.734375 336.882813 L 620.683594 366.03125 L 632.632813 380.089844 L 644.582031 370.277344 L 656.53125 335.1875 L 668.476563 281.617188 L 680.425781 223.28125 L 684 207.261719 "/>
</g>
<path fill-rule="nonzero" fill="rgb(100%, 100%, 100%)" fill-opacity="1" stroke-width="1" stroke-linecap="butt" stroke-linejoin="miter" stroke="rgb(0%, 0%, 0%)" stroke-opacity="1" stroke-miterlimit="2" d="M 482 484 L 674 484 L 674 314 L 482 314 Z M 482 484 "/>
<path fill="none" stroke-width="1" stroke-linecap="butt" stroke-linejoin="miter" stroke="rgb(0%, 0%, 0%)" stroke-opacity="1" stroke-miterlimit="1.154701" d="M 83 494.5 L 83 499.5 "/>
<path fill="none" stroke-width="1" stroke-linecap="butt" stroke-linejoin="miter" stroke="rgb(0%, 0%, 0%)" stroke-opacity="1" stroke-miterlimit="1.154701" d="M 383.5 494.5 L 383.5 499.5 "/>
<path fill="none" stroke-width="1" stroke-linecap="butt" stroke-linejoin="miter" stroke="rgb(0%, 0%, 0%)" stroke-opacity="1" stroke-miterlimit="1.154701" d="M 684 494.5 L 684 499.5 "/>
<path fill="none" stroke-width="1" stroke-linecap="butt" stroke-linejoin="miter" stroke="rgb(0%, 0%, 0%)" stroke-opacity="1" stroke-miterlimit="1.154701" d="M 82.5 377.886719 L 77.5 377.886719 "/>
<path fill="none" stroke-width="1" stroke-linecap="butt" stroke-linejoin="miter" stroke="rgb(0%, 0%, 0%)" stroke-opacity="1" stroke-miterlimit="1.154701" d="M 82.5 206.171875 L 77.5 206.171875 "/>
<path fill="none" stroke-width="1" stroke-linecap="butt" stroke-linejoin="miter" stroke="rgb(0%, 0%, 0%)" stroke-opacity="1" stroke-miterlimit="1.154701" d="M 82.5 34.453125 L 77.5 34.453125 "/>
<path fill="none" stroke-width="2.5" stroke-linecap="butt" stroke-linejoin="miter" stroke="rgb(100%, 0%, 0%)" stroke-opacity="1" stroke-miterlimit="2" d="M 488.109375 330 L 508.109375 330 "/>
<path fill="none" stroke-width="2.5" stroke-linecap="butt" stroke-linejoin="miter" stroke="rgb(0%, 0%, 100%)" stroke-opacity="1" stroke-dasharray="7.5 5" stroke-miterlimit="2" d="M 488.109375 353 L 508.109375 353 "/>
<path fill="none" stroke-width="2.5" stroke-linecap="butt" stroke-linejoin="miter" stroke="rgb(0%, 50.196081%, 0%)" stroke-opacity="1" stroke-dasharray="7.5 7.5" stroke-miterlimit="2" d="M 488.109375 376 L 508.109375 376 "/>
<path fill="none" stroke-width="2.5" stroke-linecap="butt" stroke-linejoin="miter" stroke="rgb(100%, 64.705884%, 0%)" stroke-opacity="1" stroke-dasharray="7.5 5 2.5 5" stroke-miterlimit="2" d="M 488.109375 399 L 508.109375 399 "/>
<path fill="none" stroke-width="2.5" stroke-linecap="butt" stroke-linejoin="miter" stroke="rgb(50.196081%, 0%, 50.196081%)" stroke-opacity="1" stroke-dasharray="7.5 7.5 2.5 7.5" stroke-miterlimit="2" d="M 488.109375 422 L 508.109375 422 "/>
<path fill="none" stroke-width="2.5" stroke-linecap="butt" stroke-linejoin="miter" stroke="rgb(64.705884%, 16.470589%, 16.470589%)" stroke-opacity="1" stroke-dasharray="2.5 2.5" stroke-miterlimit="2" d="M 488.109375 445 L 508.109375 445 "/>
<path fill="none" stroke-width="2.5" stroke-linecap="butt" stroke-linejoin="miter" stroke="rgb(0%, 100%, 100%)" stroke-opacity="1" stroke-dasharray="2.5 5" stroke-miterlimit="2" d="M 488.109375 468 L 508.109375 468 "/>
<g fill="rgb(0%, 0%, 0%)" fill-opacity="1">
<use xlink:href="#glyph-1-4-ece5cbd7" x="513.107994" y="335.103"/>
</g>
<g fill="rgb(0%, 0%, 0%)" fill-opacity="1">
<use xlink:href="#glyph-1-5-ece5cbd7" x="522.445995" y="335.103"/>
</g>
<g fill="rgb(0%, 0%, 0%)" fill-opacity="1">
<use xlink:href="#glyph-1-6-ece5cbd7" x="530.229996" y="335.103"/>
</g>
<g fill="rgb(0%, 0%, 0%)" fill-opacity="1">
<use xlink:href="#glyph-1-7-ece5cbd7" x="538.013994" y="335.103"/>
</g>
<g fill="rgb(0%, 0%, 0%)" fill-opacity="1">
<use xlink:href="#glyph-1-8-ece5cbd7" x="541.121994" y="335.103"/>
</g>
<g fill="rgb(0%, 0%, 0%)" fill-opacity="1">
<use xlink:href="#glyph-1-9-ece5cbd7" x="548.121994" y="335.103"/>
</g>
<g fill="rgb(0%, 0%, 0%)" fill-opacity="1">
<use xlink:href="#glyph-1-10-ece5cbd7" x="552.013992" y="335.103"/>
</g>
<g fill="rgb(0%, 0%, 0%)" fill-opacity="1">
<use xlink:href="#glyph-1-11-ece5cbd7" x="555.121994" y="335.103"/>
</g>
<g fill="rgb(0%, 0%, 0%)" fill-opacity="1">
<use xlink:href="#glyph-1-12-ece5cbd7" x="562.121994" y="335.103"/>
</g>
<g fill="rgb(0%, 0%, 0%)" fill-opacity="1">
<use xlink:href="#glyph-1-13-ece5cbd7" x="566.013992" y="335.103"/>
</g>
<g fill="rgb(0%, 0%, 0%)" fill-opacity="1">
<use xlink:href="#glyph-1-14-ece5cbd7" x="575.351994" y="335.103"/>
</g>
<g fill="rgb(0%, 0%, 0%)" fill-opacity="1">
<use xlink:href="#glyph-1-7-ece5cbd7" x="583.135994" y="335.103"/>
</g>
<g fill="rgb(0%, 0%, 0%)" fill-opacity="1">
<use xlink:href="#glyph-1-15-ece5cbd7" x="586.243996" y="335.103"/>
</g>
<g fill="rgb(0%, 0%, 0%)" fill-opacity="1">
<use xlink:href="#glyph-1-9-ece5cbd7" x="594.027992" y="335.103"/>
</g>
<g fill="rgb(0%, 0%, 0%)" fill-opacity="1">
<use xlink:href="#glyph-1-10-ece5cbd7" x="597.919991" y="335.103"/>
</g>
<g fill="rgb(0%, 0%, 0%)" fill-opacity="1">
<use xlink:href="#glyph-1-14-ece5cbd7" x="601.027992" y="335.103"/>
</g>
<g fill="rgb(0%, 0%, 0%)" fill-opacity="1">
<use xlink:href="#glyph-1-5-ece5cbd7" x="608.811989" y="335.103"/>
</g>
<g fill="rgb(0%, 0%, 0%)" fill-opacity="1">
<use xlink:href="#glyph-1-4-ece5cbd7" x="513.107971" y="358.103"/>
</g>
<g fill="rgb(0%, 0%, 0%)" fill-opacity="1">
<use xlink:href="#glyph-1-16-ece5cbd7" x="522.445969" y="358.103"/>
</g>
<g fill="rgb(0%, 0%, 0%)" fill-opacity="1">
<use xlink:href="#glyph-1-13-ece5cbd7" x="532.55397" y="358.103"/>
</g>
<g fill="rgb(0%, 0%, 0%)" fill-opacity="1">
<use xlink:href="#glyph-1-17-ece5cbd7" x="541.891972" y="358.103"/>
</g>
<g fill="rgb(0%, 0%, 0%)" fill-opacity="1">
<use xlink:href="#glyph-1-18-ece5cbd7" x="549.675972" y="358.103"/>
</g>
<g fill="rgb(0%, 0%, 0%)" fill-opacity="1">
<use xlink:href="#glyph-1-18-ece5cbd7" x="557.459972" y="358.103"/>
</g>
<g fill="rgb(0%, 0%, 0%)" fill-opacity="1">
<use xlink:href="#glyph-1-19-ece5cbd7" x="565.243973" y="358.103"/>
</g>
<g fill="rgb(0%, 0%, 0%)" fill-opacity="1">
<use xlink:href="#glyph-1-20-ece5cbd7" x="576.905972" y="358.103"/>
</g>
<g fill="rgb(0%, 0%, 0%)" fill-opacity="1">
<use xlink:href="#glyph-1-13-ece5cbd7" x="587.013969" y="358.103"/>
</g>
<g fill="rgb(0%, 0%, 0%)" fill-opacity="1">
<use xlink:href="#glyph-1-21-ece5cbd7" x="596.351967" y="358.103"/>
</g>
<g fill="rgb(0%, 0%, 0%)" fill-opacity="1">
<use xlink:href="#glyph-1-22-ece5cbd7" x="606.459969" y="358.103"/>
</g>
<g fill="rgb(0%, 0%, 0%)" fill-opacity="1">
<use xlink:href="#glyph-1-17-ece5cbd7" x="614.243965" y="358.103"/>
</g>
<g fill="rgb(0%, 0%, 0%)" fill-opacity="1">
<use xlink:href="#glyph-1-19-ece5cbd7" x="622.027962" y="358.103"/>
</g>
<g fill="rgb(0%, 0%, 0%)" fill-opacity="1">
<use xlink:href="#glyph-1-23-ece5cbd7" x="633.689964" y="358.103"/>
</g>
<g fill="rgb(0%, 0%, 0%)" fill-opacity="1">
<use xlink:href="#glyph-1-23-ece5cbd7" x="644.58197" y="358.103"/>
</g>
<g fill="rgb(0%, 0%, 0%)" fill-opacity="1">
<use xlink:href="#glyph-1-24-ece5cbd7" x="655.473969" y="358.103"/>
</g>
<g fill="rgb(0%, 0%, 0%)" fill-opacity="1">
<use xlink:href="#glyph-1-22-ece5cbd7" x="513.107971" y="381.103"/>
</g>
<g fill="rgb(0%, 0%, 0%)" fill-opacity="1">
<use xlink:href="#glyph-1-25-ece5cbd7" x="520.891971" y="381.103"/>
</g>
<g fill="rgb(0%, 0%, 0%)" fill-opacity="1">
<use xlink:href="#glyph-26-0-ece5cbd7" x="513.107948" y="404.103"/>
</g>
<g fill="rgb(0%, 0%, 0%)" fill-opacity="1">
<use xlink:href="#glyph-26-1-ece5cbd7" x="520.891949" y="404.103"/>
</g>
<g fill="rgb(0%, 0%, 0%)" fill-opacity="1">
<use xlink:href="#glyph-26-2-ece5cbd7" x="534.107948" y="404.103"/>
</g>
<g fill="rgb(0%, 0%, 0%)" fill-opacity="1">
<use xlink:href="#glyph-26-3-ece5cbd7" x="545.769947" y="404.103"/>
</g>
<g fill="rgb(0%, 0%, 0%)" fill-opacity="1">
<use xlink:href="#glyph-26-3-ece5cbd7" x="556.661949" y="404.103"/>
</g>
<g fill="rgb(0%, 0%, 0%)" fill-opacity="1">
<use xlink:href="#glyph-26-4-ece5cbd7" x="567.553947" y="404.103"/>
</g>
<g fill="rgb(0%, 0%, 0%)" fill-opacity="1">
<use xlink:href="#glyph-1-16-ece5cbd7" x="513.107994" y="427.103"/>
</g>
<g fill="rgb(0%, 0%, 0%)" fill-opacity="1">
<use xlink:href="#glyph-1-26-ece5cbd7" x="523.215994" y="427.103"/>
</g>
<g fill="rgb(0%, 0%, 0%)" fill-opacity="1">
<use xlink:href="#glyph-1-17-ece5cbd7" x="532.553993" y="427.103"/>
</g>
<g fill="rgb(0%, 0%, 0%)" fill-opacity="1">
<use xlink:href="#glyph-1-19-ece5cbd7" x="540.337994" y="427.103"/>
</g>
<g fill="rgb(0%, 0%, 0%)" fill-opacity="1">
<use xlink:href="#glyph-1-20-ece5cbd7" x="551.999992" y="427.103"/>
</g>
<g fill="rgb(0%, 0%, 0%)" fill-opacity="1">
<use xlink:href="#glyph-1-13-ece5cbd7" x="562.107994" y="427.103"/>
</g>
<g fill="rgb(0%, 0%, 0%)" fill-opacity="1">
<use xlink:href="#glyph-1-21-ece5cbd7" x="571.445995" y="427.103"/>
</g>
<g fill="rgb(0%, 0%, 0%)" fill-opacity="1">
<use xlink:href="#glyph-1-22-ece5cbd7" x="581.553993" y="427.103"/>
</g>
<g fill="rgb(0%, 0%, 0%)" fill-opacity="1">
<use xlink:href="#glyph-1-17-ece5cbd7" x="589.33799" y="427.103"/>
</g>
<g fill="rgb(0%, 0%, 0%)" fill-opacity="1">
<use xlink:href="#glyph-27-0-ece5cbd7" x="513.108002" y="450.103"/>
</g>
<g fill="rgb(0%, 0%, 0%)" fill-opacity="1">
<use xlink:href="#glyph-27-1-ece5cbd7" x="523.216003" y="450.103"/>
</g>
<g fill="rgb(0%, 0%, 0%)" fill-opacity="1">
<use xlink:href="#glyph-27-2-ece5cbd7" x="532.554001" y="450.103"/>
</g>
<g fill="rgb(0%, 0%, 0%)" fill-opacity="1">
<use xlink:href="#glyph-27-3-ece5cbd7" x="540.338001" y="450.103"/>
</g>
<g fill="rgb(0%, 0%, 0%)" fill-opacity="1">
<use xlink:href="#glyph-27-4-ece5cbd7" x="552" y="450.103"/>
</g>
<g fill="rgb(0%, 0%, 0%)" fill-opacity="1">
<use xlink:href="#glyph-27-5-ece5cbd7" x="562.108002" y="450.103"/>
</g>
<g fill="rgb(0%, 0%, 0%)" fill-opacity="1">
<use xlink:href="#glyph-27-6-ece5cbd7" x="571.446003" y="450.103"/>
</g>
<g fill="rgb(0%, 0%, 0%)" fill-opacity="1">
<use xlink:href="#glyph-27-7-ece5cbd7" x="581.554001" y="450.103"/>
</g>
<g fill="rgb(0%, 0%, 0%)" fill-opacity="1">
<use xlink:href="#glyph-27-2-ece5cbd7" x="589.337997" y="450.103"/>
</g>
<g fill="rgb(0%, 0%, 0%)" fill-opacity="1">
<use xlink:href="#glyph-27-3-ece5cbd7" x="597.121994" y="450.103"/>
</g>
<g fill="rgb(0%, 0%, 0%)" fill-opacity="1">
<use xlink:href="#glyph-27-8-ece5cbd7" x="608.783997" y="450.103"/>
</g>
<g fill="rgb(0%, 0%, 0%)" fill-opacity="1">
<use xlink:href="#glyph-27-8-ece5cbd7" x="619.675995" y="450.103"/>
</g>
<g fill="rgb(0%, 0%, 0%)" fill-opacity="1">
<use xlink:href="#glyph-27-9-ece5cbd7" x="630.567993" y="450.103"/>
</g>
<g fill="rgb(0%, 0%, 0%)" fill-opacity="1">
<use xlink:href="#glyph-27-10-ece5cbd7" x="640.675995" y="450.103"/>
</g>
<g fill="rgb(0%, 0%, 0%)" fill-opacity="1">
<use xlink:href="#glyph-27-4-ece5cbd7" x="645.337997" y="450.103"/>
</g>
<g fill="rgb(0%, 0%, 0%)" fill-opacity="1">
<use xlink:href="#glyph-27-11-ece5cbd7" x="655.445999" y="450.103"/>
</g>
<g fill="rgb(0%, 0%, 0%)" fill-opacity="1">
<use xlink:href="#glyph-27-12-ece5cbd7" x="663.229996" y="450.103"/>
</g>
<g fill="rgb(0%, 0%, 0%)" fill-opacity="1">
<use xlink:href="#glyph-26-5-ece5cbd7" x="513.108002" y="473.103"/>
</g>
<g fill="rgb(0%, 0%, 0%)" fill-opacity="1">
<use xlink:href="#glyph-26-6-ece5cbd7" x="523.216003" y="473.103"/>
</g>
<g fill="rgb(0%, 0%, 0%)" fill-opacity="1">
<use xlink:href="#glyph-26-7-ece5cbd7" x="532.554001" y="473.103"/>
</g>
<g fill="rgb(0%, 0%, 0%)" fill-opacity="1">
<use xlink:href="#glyph-26-2-ece5cbd7" x="540.338001" y="473.103"/>
</g>
<g fill="rgb(0%, 0%, 0%)" fill-opacity="1">
<use xlink:href="#glyph-26-8-ece5cbd7" x="552" y="473.103"/>
</g>
<g fill="rgb(0%, 0%, 0%)" fill-opacity="1">
<use xlink:href="#glyph-26-9-ece5cbd7" x="562.108002" y="473.103"/>
</g>
<g fill="rgb(0%, 0%, 0%)" fill-opacity="1">
<use xlink:href="#glyph-26-10-ece5cbd7" x="571.446003" y="473.103"/>
</g>
<g fill="rgb(0%, 0%, 0%)" fill-opacity="1">
<use xlink:href="#glyph-26-0-ece5cbd7" x="581.554001" y="473.103"/>
</g>
<g fill="rgb(0%, 0%, 0%)" fill-opacity="1">
<use xlink:href="#glyph-26-7-ece5cbd7" x="589.337997" y="473.103"/>
</g>
<g fill="rgb(0%, 0%, 0%)" fill-opacity="1">
<use xlink:href="#glyph-26-2-ece5cbd7" x="597.121994" y="473.103"/>
</g>
<g fill="rgb(0%, 0%, 0%)" fill-opacity="1">
<use xlink:href="#glyph-26-3-ece5cbd7" x="608.783997" y="473.103"/>
</g>
<g fill="rgb(0%, 0%, 0%)" fill-opacity="1">
<use xlink:href="#glyph-26-3-ece5cbd7" x="619.675995" y="473.103"/>
</g>
<g fill="rgb(0%, 0%, 0%)" fill-opacity="1">
<use xlink:href="#glyph-26-4-ece5cbd7" x="630.567993" y="473.103"/>
</g>
<g fill="rgb(0%, 0%, 0%)" fill-opacity="1">
<use xlink:href="#glyph-26-11-ece5cbd7" x="640.675995" y="473.103"/>
</g>
<g fill="rgb(0%, 0%, 0%)" fill-opacity="1">
<use xlink:href="#glyph-26-8-ece5cbd7" x="645.337997" y="473.103"/>
</g>
<g fill="rgb(0%, 0%, 0%)" fill-opacity="1">
<use xlink:href="#glyph-26-7-ece5cbd7" x="655.445999" y="473.103"/>
</g>
<g fill="rgb(0%, 0%, 0%)" fill-opacity="1">
<use xlink:href="#glyph-26-12-ece5cbd7" x="663.229996" y="473.103"/>
</g>
<path fill="none" stroke-width="1" stroke-linecap="butt" stroke-linejoin="miter" stroke="rgb(0%, 0%, 0%)" stroke-opacity="1" stroke-miterlimit="1.154701" d="M 82.5 494 L 684.5 494 "/>
<path fill="none" stroke-width="1" stroke-linecap="butt" stroke-linejoin="miter" stroke="rgb(0%, 0%, 0%)" stroke-opacity="1" stroke-miterlimit="1.154701" d="M 83 494.5 L 83 15.5 "/>
<path fill="none" stroke-width="1" stroke-linecap="butt" stroke-linejoin="miter" stroke="rgb(0%, 0%, 0%)" stroke-opacity="1" stroke-miterlimit="1.154701" d="M 82.5 16 L 684.5 16 "/>
<path fill="none" stroke-width="1" stroke-linecap="butt" stroke-linejoin="miter" stroke="rgb(0%, 0%, 0%)" stroke-opacity="1" stroke-miterlimit="1.154701" d="M 684 494.5 L 684 15.5 "/>
</svg>
